<?xml version="1.0" encoding="UTF-8"?>
<svg width="39px" height="39px" viewBox="0 0 39 39" version="1.1" xmlns="http://www.w3.org/2000/svg" xmlns:xlink="http://www.w3.org/1999/xlink">
    <!-- Generator: Sketch 56.2 (81672) - https://sketch.com -->
    <title>behance_behance copy</title>
    <desc>Created with Sketch.</desc>
    <g id="Page-1" stroke="none" stroke-width="1" fill="none" fill-rule="evenodd">
        <g id="HomePageDesktopv1" transform="translate(-1039.000000, -1610.000000)" fill-rule="nonzero">
            <g id="behance_behance-copy" transform="translate(1038.000000, 1610.000000)">
                <rect id="Rectangle" fill="#4B4B4B" x="1" y="0" width="39" height="39" rx="5.01"></rect>
                <path d="M14.9013973,11.0022546 C15.6360844,10.9848997 16.3697428,11.0678006 17.0827646,11.2487417 C17.6860497,11.3569673 18.2625235,11.5847697 18.7793837,11.9191864 C19.2631781,12.2304607 19.6420061,12.6845129 19.8652199,13.2206379 C20.1196944,13.8452882 20.2450962,14.5164973 20.2336286,15.1925341 C20.2677883,15.9607434 20.0457225,16.7181559 19.6034558,17.341901 C19.1644101,17.9528125 18.5808483,18.441149 17.9068368,18.7616662 C18.8387438,18.9970109 19.6571609,19.5635379 20.2142387,20.3589022 C20.7343207,21.1636259 21.007643,22.1073185 20.9995309,23.0702595 C21.0100336,23.8380215 20.8440408,24.5976643 20.5147826,25.2886427 C20.2076952,25.9077441 19.7505847,26.437082 19.1865723,26.8267218 C18.5930137,27.2251315 17.9374216,27.5184869 17.2475791,27.6943561 C16.5347696,27.8829363 15.8026086,27.9855235 15.0662117,28 L7,28 L7,11.0022546 L14.9013973,11.0022546 Z M14.416649,17.9038914 C15.0007394,17.9232066 15.5753648,17.7503142 16.0550983,17.4109173 C16.5058681,17.0334583 16.7451483,16.4546027 16.694966,15.8629788 C16.7060894,15.5245143 16.6431739,15.1877607 16.5107617,14.8770307 C16.3816135,14.6312208 16.1952054,14.4213383 15.9678436,14.2657429 C15.7226245,14.1244058 15.4579007,14.0213725 15.1825513,13.9600989 C14.8629321,13.9003631 14.5377403,13.8772134 14.2130547,13.8910826 L10.6646972,13.8910826 L10.6646972,17.8940319 L14.416649,17.9038914 Z M14.6008534,25.1801884 C14.9466025,25.170323 15.290673,25.1274096 15.6285197,25.0520152 C15.9324374,24.9943174 16.220298,24.8698164 16.4719818,24.6872144 C16.7184765,24.5045091 16.9262112,24.2731293 17.0827646,24.0069102 C17.2318318,23.6543746 17.3140652,23.276372 17.3251388,22.8927888 C17.3825762,22.1757589 17.1147875,21.4713246 16.5980163,20.9800495 C16.0278576,20.58661 15.3471797,20.392786 14.6590231,20.4279185 L10.6646972,20.4279185 L10.6646972,25.1703289 L14.6008534,25.1801884 Z" id="path12" fill="#FFFFFF"></path>
                <path d="M26.0009353,24.6838459 C26.5998643,25.2157735 27.3849637,25.4809317 28.1791006,25.4194962 C28.7999071,25.4246163 29.4099028,25.2548204 29.9409943,24.9290627 C30.344433,24.6642252 30.6585186,24.2809727 30.8413026,23.8304916 L33.8520111,23.8304916 C33.4946255,25.1082811 32.7284573,26.2295938 31.6738458,27.0183094 C30.6225371,27.6786049 29.4061721,28.0190579 28.1694199,27.9991764 C27.2819898,28.0010575 26.4020435,27.8347188 25.574983,27.5087429 C24.8295664,27.2257195 24.1645469,26.760792 23.6388361,26.1551465 C23.0747925,25.5949545 22.6586924,24.9001592 22.4287442,24.1345604 C22.122247,23.2905517 21.9776727,22.3949958 22.0027919,21.4960282 C21.9832259,20.6198286 22.1277613,19.7478121 22.4287442,18.9261566 C22.7189888,18.1585454 23.1491993,17.453126 23.6969205,16.8467185 C24.2473677,16.2699442 24.9055108,15.8098241 25.6330674,15.4931221 C26.43968,15.1664426 27.3007598,15 28.1694199,15.0026886 C29.1130747,14.9732604 30.0487776,15.1858167 30.8897063,15.6206348 C31.6465607,15.9950132 32.2939046,16.5630081 32.7677688,17.2684913 C33.2610393,17.9764735 33.6280066,18.7665847 33.8520111,19.6029548 C33.9886574,20.4949753 34.0308467,21.3992357 33.9778607,22.3003391 L25.1393499,22.3003391 C25.1268782,23.1752654 25.4336945,24.0240482 26.0009353,24.6838459 Z M29.8151448,18.2493584 C29.2988095,17.7875832 28.6249627,17.548268 27.9370822,17.5823688 C27.4771623,17.5728745 27.0219043,17.6772504 26.6108216,17.8864376 C26.291931,18.0584751 26.0065529,18.2878006 25.7685977,18.5632358 C25.5450206,18.7977221 25.396554,19.0951605 25.3426454,19.4165901 C25.2769081,19.6769894 25.2347832,19.9429283 25.2167958,20.2110924 L30.6670494,20.2110924 C30.6067219,19.4792771 30.3068921,18.7888403 29.8151448,18.2493584 L29.8151448,18.2493584 Z" id="path14" fill="#FFFFFF"></path>
                <rect id="rect24" fill="#FFFFFF" x="25" y="12" width="7" height="2"></rect>
            </g>
        </g>
    </g>
</svg>