<?xml version="1.0" encoding="UTF-8"?>
<svg width="39px" height="39px" viewBox="0 0 39 39" version="1.1" xmlns="http://www.w3.org/2000/svg" xmlns:xlink="http://www.w3.org/1999/xlink">
    <!-- Generator: Sketch 56.2 (81672) - https://sketch.com -->
    <title>linkedin_linkedin copy</title>
    <desc>Created with Sketch.</desc>
    <g id="Page-1" stroke="none" stroke-width="1" fill="none" fill-rule="evenodd">
        <g id="HomePageDesktopv1" transform="translate(-1094.000000, -1610.000000)" fill-rule="nonzero">
            <g id="linkedin_linkedin-copy" transform="translate(1094.000000, 1610.000000)">
                <rect id="Rectangle" fill="#4B4B4B" x="0" y="0" width="39" height="39" rx="5.01"></rect>
                <path d="M14,11.9758325 C14.0013053,12.523379 13.7792567,13.0468082 13.3870581,13.4206767 C12.9948595,13.7945451 12.467861,13.9851548 11.9323615,13.9468248 C10.8651477,13.9468248 10,13.0643815 10,11.9758325 C10,10.8872835 10.8651477,10.0048402 11.9323615,10.0048402 C12.467861,9.96651015 12.9948595,10.1571198 13.3870581,10.5309883 C13.7792567,10.9048567 14.0013053,11.428286 14,11.9758325 Z M10.048309,28 L10.048309,15.4644889 L13.9130321,15.4644889 L13.9130321,28 L10.048309,28 Z" id="Shape" fill="#FFFFFF"></path>
                <path d="M17.0986031,19.2680034 C17.0986031,17.6966418 17.0493016,16.3739134 17,15.2898728 L20.3820871,15.2898728 L20.5595727,17.0501956 L20.6384552,17.0501956 C21.4914287,15.7367175 22.9573232,14.9617103 24.5135579,15.0014584 C27.0772391,15.0014584 29,16.7319452 29,20.4614426 L29,27.940328 L25.1051767,27.940328 L25.1051767,20.9785996 C25.1051767,19.347566 24.5431389,18.2336895 23.1331142,18.2336895 C22.2324737,18.2518953 21.441592,18.8421937 21.1610518,19.7055978 C21.057464,20.0262038 21.0139945,20.3634672 21.0328677,20.7001304 L21.0328677,28 L17.0887428,28 L17.0986031,19.2680034 Z" id="Path" fill="#FFFFFF"></path>
            </g>
        </g>
    </g>
</svg>