<?xml version="1.0" encoding="utf-8"?>
<!-- Generator: Adobe Illustrator 23.0.4, SVG Export Plug-In . SVG Version: 6.00 Build 0)  -->
<svg version="1.1" id="Layer_1" xmlns="http://www.w3.org/2000/svg" xmlns:xlink="http://www.w3.org/1999/xlink" x="0px" y="0px"
	 viewBox="0 0 240 349" style="enable-background:new 0 0 240 349;" xml:space="preserve">
<style type="text/css">
	.st0{fill:#FFFFFF;}
	.st1{fill:#231F20;}
	.st2{fill:#21409A;}
	.st3{fill:none;stroke:#231F20;stroke-width:0.3902;stroke-miterlimit:10;}
	.st4{fill:none;stroke:#231F20;stroke-width:2.3413;stroke-linecap:round;stroke-miterlimit:10;}
	.st5{opacity:0.64;fill:none;stroke:#006838;stroke-width:2.3413;stroke-linecap:round;stroke-miterlimit:10;}
	.st6{fill:none;stroke:#FFFFFF;stroke-width:2.3413;stroke-miterlimit:10;}
	.st7{opacity:0.61;fill:none;stroke:#2B3990;stroke-width:2.3413;stroke-linecap:round;stroke-miterlimit:10;}
	.st8{fill:none;stroke:#2B3990;stroke-width:2.3413;stroke-linecap:round;stroke-miterlimit:10;}
	.st9{fill:none;stroke:#009444;stroke-width:2.3413;stroke-linecap:round;stroke-miterlimit:10;}
	.st10{fill:#2B3990;}
	.st11{fill:#27AAE1;}
	.st12{fill:#00A79D;}
	.st13{fill:#006838;}
	.st14{fill:#1B75BC;}
	.st15{fill:url(#SVGID_1_);}
	.st16{opacity:0.75;}
	.st17{fill:url(#SVGID_2_);}
	.st18{opacity:0.56;}
	.st19{fill:#2BB673;}
	.st20{fill:url(#SVGID_3_);}
	.st21{fill:url(#SVGID_4_);}
	.st22{fill:url(#SVGID_5_);}
	.st23{fill:url(#SVGID_6_);}
	.st24{fill:url(#SVGID_7_);}
	.st25{fill:none;stroke:#00A651;stroke-width:0.3902;stroke-miterlimit:10;}
	.st26{fill:#6D6E71;}
	.st27{fill:url(#SVGID_8_);}
	.st28{fill:url(#SVGID_9_);}
	.st29{fill:url(#SVGID_10_);}
	.st30{fill:url(#SVGID_11_);}
	.st31{fill:#FFFFFF;stroke:#231F20;stroke-width:0.3902;stroke-miterlimit:10;}
	.st32{fill:none;stroke:#FFFFFF;stroke-width:1.4138;stroke-miterlimit:10;}
	.st33{fill:none;stroke:#FFFFFF;stroke-width:0.7804;stroke-miterlimit:10;}
	.st34{fill:none;stroke:#FFFFFF;stroke-width:0.6594;stroke-miterlimit:10;}
	.st35{fill:none;stroke:#00A651;stroke-width:0.7804;stroke-linecap:round;stroke-linejoin:round;stroke-miterlimit:10;}
	.st36{fill:none;stroke:#00A651;stroke-width:0.7514;stroke-linecap:round;stroke-linejoin:round;stroke-miterlimit:10;}
	.st37{fill:none;stroke:#00A651;stroke-width:0.7133;stroke-linecap:round;stroke-linejoin:round;stroke-miterlimit:10;}
	.st38{fill:none;stroke:#231F20;stroke-miterlimit:10;}
	.st39{fill:none;stroke:#231F20;stroke-width:6;stroke-linecap:round;stroke-miterlimit:10;}
	.st40{opacity:0.64;fill:none;stroke:#006838;stroke-width:6;stroke-linecap:round;stroke-miterlimit:10;}
	.st41{fill:none;stroke:#FFFFFF;stroke-width:6;stroke-miterlimit:10;}
	.st42{opacity:0.61;fill:none;stroke:#2B3990;stroke-width:6;stroke-linecap:round;stroke-miterlimit:10;}
	.st43{fill:none;stroke:#2B3990;stroke-width:6;stroke-linecap:round;stroke-miterlimit:10;}
	.st44{fill:none;stroke:#009444;stroke-width:6;stroke-linecap:round;stroke-miterlimit:10;}
	.st45{fill:url(#SVGID_12_);}
	.st46{fill:url(#SVGID_13_);}
	.st47{fill:url(#SVGID_14_);}
	.st48{fill:url(#SVGID_15_);}
	.st49{fill:url(#SVGID_16_);}
	.st50{fill:url(#SVGID_17_);}
	.st51{fill:url(#SVGID_18_);}
	.st52{fill:none;stroke:#00A651;stroke-miterlimit:10;}
	.st53{fill:url(#SVGID_19_);}
	.st54{fill:url(#SVGID_20_);}
	.st55{fill:url(#SVGID_21_);}
	.st56{fill:url(#SVGID_22_);}
	.st57{fill:#FFFFFF;stroke:#231F20;stroke-miterlimit:10;}
	.st58{fill:none;stroke:#FFFFFF;stroke-width:3.6231;stroke-miterlimit:10;}
	.st59{fill:none;stroke:#FFFFFF;stroke-width:2;stroke-miterlimit:10;}
	.st60{fill:none;stroke:#FFFFFF;stroke-width:1.6898;stroke-miterlimit:10;}
	.st61{fill:none;stroke:#00A651;stroke-width:2;stroke-linecap:round;stroke-linejoin:round;stroke-miterlimit:10;}
	.st62{fill:none;stroke:#00A651;stroke-width:1.9257;stroke-linecap:round;stroke-linejoin:round;stroke-miterlimit:10;}
	.st63{fill:none;stroke:#00A651;stroke-width:1.8279;stroke-linecap:round;stroke-linejoin:round;stroke-miterlimit:10;}
	.st64{fill:none;stroke:#231F20;stroke-width:1.688;stroke-linecap:round;stroke-linejoin:round;stroke-miterlimit:10;}
	.st65{fill:none;}
	.st66{font-family:'Oxygen-Regular';}
	.st67{font-size:16.2758px;}
	.st68{font-family:'Duepuntozero';}
	.st69{font-family:'Anton-Regular';}
	.st70{font-family:'Aleo-Bold';}
	.st71{font-size:19.9379px;}
	.st72{fill:none;stroke:#231F20;stroke-width:0.4069;stroke-miterlimit:10;}
	.st73{fill:#FFFFFF;stroke:#231F20;stroke-width:0.4069;stroke-miterlimit:10;}
	.st74{fill:none;stroke:#231F20;stroke-width:0.6868;stroke-linecap:round;stroke-linejoin:round;stroke-miterlimit:10;}
	.st75{font-family:'Raleway-Bold';}
	.st76{font-size:13.1875px;}
	.st77{font-size:19.7645px;}
	.st78{fill:none;stroke:#4B4B4B;stroke-miterlimit:10;}
	.st79{fill:#7878B9;}
	.st80{fill:#0997A6;}
</style>
<rect x="0.1" y="0.1" class="st0" width="240" height="348.8"/>
<g>
	
		<rect x="166.8" y="82.4" transform="matrix(4.042593e-03 -1 1 4.042593e-03 53.6766 298.795)" class="st65" width="20" height="80"/>
	<text transform="matrix(1 0 0 1 136.8598 124.4489)" class="st1 st66 st67">Healthlog</text>
	<g>
		<rect x="124.1" y="112.7" class="st1" width="2.8" height="2.7"/>
		<rect x="133.7" y="112.7" class="st1" width="2.8" height="2.7"/>
		<rect x="124.1" y="121.9" class="st1" width="2.8" height="2.7"/>
		<rect x="133.7" y="121.9" class="st1" width="2.8" height="2.7"/>
		<g>
			<rect x="124.1" y="116.2" class="st1" width="5.6" height="2.1"/>
			
				<rect x="125.9" y="114.5" transform="matrix(-1.836970e-16 1 -1 -1.836970e-16 244.1537 -13.1176)" class="st1" width="5.6" height="2.1"/>
		</g>
		<g>
			
				<rect x="130.9" y="116.2" transform="matrix(-1 -4.476831e-11 4.476831e-11 -1 267.3214 234.5396)" class="st1" width="5.6" height="2.1"/>
			
				<rect x="129.1" y="114.5" transform="matrix(-4.574848e-11 1 -1 -4.574848e-11 247.4346 -16.3985)" class="st1" width="5.6" height="2.1"/>
		</g>
		<g>
			<rect x="124.1" y="119" class="st1" width="5.6" height="2.1"/>
			
				<rect x="125.9" y="120.8" transform="matrix(6.123234e-17 -1 1 6.123234e-17 6.8014 250.47)" class="st1" width="5.6" height="2.1"/>
		</g>
		<g>
			
				<rect x="130.9" y="119" transform="matrix(-1 4.476807e-11 -4.476807e-11 -1 267.3214 240.1652)" class="st1" width="5.6" height="2.1"/>
			
				<rect x="129.1" y="120.8" transform="matrix(-4.574823e-11 -1 1 -4.574823e-11 10.0822 253.7508)" class="st1" width="5.6" height="2.1"/>
		</g>
	</g>
	<g>
		<g>
			<g>
				<circle class="st1" cx="78.2" cy="180.7" r="1.1"/>
				<rect x="78.2" y="179.6" class="st1" width="1.1" height="2.2"/>
			</g>
			<g>
				<circle class="st1" cx="80.4" cy="178.6" r="1.1"/>
				
					<rect x="79.8" y="178" transform="matrix(-1.836970e-16 1 -1 -1.836970e-16 259.4999 98.7166)" class="st1" width="1.1" height="2.2"/>
			</g>
			<g>
				<circle class="st1" cx="80.4" cy="182.9" r="1.1"/>
				
					<rect x="79.8" y="181.3" transform="matrix(6.123234e-17 -1 1 6.123234e-17 -101.9682 262.7516)" class="st1" width="1.1" height="2.2"/>
			</g>
			<g>
				<circle class="st1" cx="82.6" cy="180.7" r="1.1"/>
				
					<rect x="81.5" y="179.6" transform="matrix(-1 -1.224647e-16 1.224647e-16 -1 164.042 361.4611)" class="st1" width="1.1" height="2.2"/>
			</g>
		</g>
		<rect x="79.3" y="179.6" class="st1" width="2.2" height="2.2"/>
	</g>
	<rect x="14.7" y="176.7" class="st65" width="62.9" height="14.9"/>
	<text transform="matrix(1 0 0 1 14.7445 187.6188)" class="st1 st68 st67">Healthplus</text>
	<rect x="27.6" y="208.4" class="st65" width="73.4" height="20"/>
	<text transform="matrix(1 0 0 1 27.6088 222.4743)" class="st1 st69 st67">Healthplus</text>
	<rect x="29.2" y="241.7" class="st65" width="73.4" height="20"/>
	<text transform="matrix(1 0 0 1 29.2387 255.7721)" class="st1 st69 st67">Healthplus</text>
	<g>
		<rect x="10.7" y="208.5" class="st1" width="3.2" height="3.1"/>
		<rect x="21.7" y="208.5" class="st1" width="3.2" height="3.1"/>
		<rect x="10.7" y="219.1" class="st1" width="3.2" height="3.1"/>
		<rect x="21.7" y="219.1" class="st1" width="3.2" height="3.1"/>
		<g>
			<rect x="10.7" y="212.5" class="st1" width="6.4" height="2.4"/>
			
				<rect x="12.7" y="210.5" transform="matrix(-1.836970e-16 1 -1 -1.836970e-16 227.6342 195.8033)" class="st1" width="6.4" height="2.4"/>
		</g>
		<g>
			
				<rect x="18.5" y="212.5" transform="matrix(-1 -4.464574e-11 4.464574e-11 -1 43.4164 427.4762)" class="st1" width="6.4" height="2.4"/>
			
				<rect x="16.5" y="210.5" transform="matrix(-4.478747e-11 1 -1 -4.478747e-11 231.4163 192.0212)" class="st1" width="6.4" height="2.4"/>
		</g>
		<g>
			<rect x="10.7" y="215.8" class="st1" width="6.4" height="2.4"/>
			
				<rect x="12.7" y="217.8" transform="matrix(6.123234e-17 -1 1 6.123234e-17 -203.0846 234.9155)" class="st1" width="6.4" height="2.4"/>
		</g>
		<g>
			
				<rect x="18.5" y="215.8" transform="matrix(-1 4.478716e-11 -4.478716e-11 -1 43.4164 433.9613)" class="st1" width="6.4" height="2.4"/>
			
				<rect x="16.5" y="217.8" transform="matrix(-4.478722e-11 -1 1 -4.478722e-11 -199.3025 238.6976)" class="st1" width="6.4" height="2.4"/>
		</g>
	</g>
	<g>
		<rect x="25.3" y="145" class="st65" width="75.2" height="16.1"/>
		<text transform="matrix(1 0 0 1 25.3373 157.1217)" class="st1 st70 st67">Healthlog</text>
		<g>
			<rect x="11.1" y="145.3" class="st1" width="2.8" height="2.7"/>
			<rect x="20.7" y="145.3" class="st1" width="2.8" height="2.7"/>
			<rect x="11.1" y="154.5" class="st1" width="2.8" height="2.7"/>
			<rect x="20.7" y="154.5" class="st1" width="2.8" height="2.7"/>
			<g>
				<rect x="11.1" y="148.8" class="st1" width="5.6" height="2.1"/>
				
					<rect x="12.9" y="147.1" transform="matrix(-1.836970e-16 1 -1 -1.836970e-16 163.7583 132.48)" class="st1" width="5.6" height="2.1"/>
			</g>
			<g>
				
					<rect x="17.9" y="148.8" transform="matrix(-1 -4.493174e-11 4.493174e-11 -1 41.3283 299.7418)" class="st1" width="5.6" height="2.1"/>
				
					<rect x="16.1" y="147.1" transform="matrix(-4.476793e-11 1 -1 -4.476793e-11 167.0392 129.1992)" class="st1" width="5.6" height="2.1"/>
			</g>
			<g>
				<rect x="11.1" y="151.6" class="st1" width="5.6" height="2.1"/>
				
					<rect x="12.9" y="153.4" transform="matrix(6.123234e-17 -1 1 6.123234e-17 -138.7963 170.0746)" class="st1" width="5.6" height="2.1"/>
			</g>
			<g>
				
					<rect x="17.9" y="151.6" transform="matrix(-1 4.509447e-11 -4.509447e-11 -1 41.3283 305.3674)" class="st1" width="5.6" height="2.1"/>
				
					<rect x="16.1" y="153.4" transform="matrix(-4.476768e-11 -1 1 -4.476768e-11 -135.5154 173.3554)" class="st1" width="5.6" height="2.1"/>
			</g>
		</g>
	</g>
	<g>
		<rect x="25.9" y="13.3" class="st65" width="76.9" height="18.2"/>
		<text transform="matrix(1 0 0 1 25.8793 27.3561)" class="st1 st69 st67">Healthplus</text>
		<g>
			<g>
				<rect x="11.1" y="17.4" class="st1" width="6.5" height="2.4"/>
				
					<rect x="13.2" y="15.4" transform="matrix(-1.836970e-16 1 -1 -1.836970e-16 33.0282 0.1748)" class="st1" width="6.5" height="2.4"/>
			</g>
			<g>
				
					<rect x="19.1" y="17.4" transform="matrix(-1 -4.508761e-11 4.508761e-11 -1 44.6531 37.3164)" class="st1" width="6.5" height="2.4"/>
				
					<rect x="17" y="15.4" transform="matrix(-4.508767e-11 1 -1 -4.508767e-11 36.8802 -3.6772)" class="st1" width="6.5" height="2.4"/>
			</g>
			<g>
				<rect x="11.1" y="20.7" class="st1" width="6.5" height="2.4"/>
				
					<rect x="13.2" y="22.8" transform="matrix(6.123234e-17 -1 1 6.123234e-17 -7.5908 40.4441)" class="st1" width="6.5" height="2.4"/>
			</g>
			<g>
				
					<rect x="19.1" y="20.7" transform="matrix(-1 4.453092e-11 -4.453092e-11 -1 44.6531 43.9215)" class="st1" width="6.5" height="2.4"/>
				
					<rect x="17" y="22.8" transform="matrix(-4.508743e-11 -1 1 -4.508743e-11 -3.7387 44.2962)" class="st1" width="6.5" height="2.4"/>
			</g>
		</g>
	</g>
	<g>
		<rect x="23.9" y="112.4" class="st65" width="75.2" height="16.1"/>
		<text transform="matrix(1 0 0 1 23.8666 124.4518)" class="st1 st70 st67">Healthlog</text>
		<g>
			<g>
				<rect x="11.1" y="115.9" class="st1" width="5.7" height="2.1"/>
				
					<rect x="12.9" y="114.1" transform="matrix(-1.836970e-16 1 -1 -1.836970e-16 130.9019 99.4742)" class="st1" width="5.7" height="2.1"/>
			</g>
			<g>
				
					<rect x="18" y="115.9" transform="matrix(-1 -4.483803e-11 4.483803e-11 -1 41.6451 233.9378)" class="st1" width="5.7" height="2.1"/>
				
					<rect x="16.2" y="114.1" transform="matrix(-4.532038e-11 1 -1 -4.532038e-11 134.2374 96.1387)" class="st1" width="5.7" height="2.1"/>
			</g>
			<g>
				<rect x="11.1" y="118.8" class="st1" width="5.7" height="2.1"/>
				
					<rect x="12.9" y="120.6" transform="matrix(6.123234e-17 -1 1 6.123234e-17 -105.8956 137.3233)" class="st1" width="5.7" height="2.1"/>
			</g>
			<g>
				
					<rect x="18" y="118.8" transform="matrix(-1 4.467703e-11 -4.467703e-11 -1 41.6451 239.6572)" class="st1" width="5.7" height="2.1"/>
				
					<rect x="16.2" y="120.6" transform="matrix(-4.532013e-11 -1 1 -4.532013e-11 -102.5601 140.6588)" class="st1" width="5.7" height="2.1"/>
			</g>
		</g>
	</g>
	<g>
		<rect x="17.9" y="46" class="st65" width="76.9" height="18.2"/>
		<text transform="matrix(1 0 0 1 17.932 60.027)" class="st1 st69 st67">Healthplus</text>
		<g>
			<rect x="11.1" y="50.2" class="st1" width="6.5" height="2.4"/>
			
				<rect x="13.2" y="48.1" transform="matrix(-1.836970e-16 1 -1 -1.836970e-16 65.7451 32.8918)" class="st1" width="6.5" height="2.4"/>
		</g>
		<g>
			<rect x="11.1" y="53.5" class="st1" width="6.5" height="2.4"/>
			
				<rect x="13.2" y="55.5" transform="matrix(6.123234e-17 -1 1 6.123234e-17 -40.3077 73.1611)" class="st1" width="6.5" height="2.4"/>
		</g>
	</g>
	<g>
		<rect x="17.9" y="78.6" class="st65" width="76.9" height="18.2"/>
		<text transform="matrix(1 0 0 1 17.932 92.6979)" class="st1 st69 st67">Healthlog</text>
		<g>
			<rect x="11.1" y="82.8" class="st1" width="6.5" height="2.4"/>
			
				<rect x="13.2" y="80.8" transform="matrix(-1.836970e-16 1 -1 -1.836970e-16 98.4159 65.5626)" class="st1" width="6.5" height="2.4"/>
		</g>
		<g>
			<rect x="11.1" y="86.1" class="st1" width="6.5" height="2.4"/>
			
				<rect x="13.2" y="88.2" transform="matrix(6.123234e-17 -1 1 6.123234e-17 -72.9785 105.8318)" class="st1" width="6.5" height="2.4"/>
		</g>
	</g>
	<rect x="145.6" y="15.9" class="st65" width="62.9" height="14.9"/>
	<text transform="matrix(1 0 0 1 145.5629 26.8132)" class="st1 st68 st67">Healthplus</text>
	<rect x="145.3" y="51.4" class="st65" width="62.9" height="14.9"/>
	<text transform="matrix(1 0 0 1 145.2992 62.318)" class="st1 st68 st67">Healthplus</text>
	<rect x="146.6" y="82.8" class="st65" width="62.9" height="14.9"/>
	<text transform="matrix(1 0 0 1 146.6498 93.6891)" class="st1 st68 st67">Healthplus</text>
	<rect x="149.2" y="209.5" class="st65" width="79.9" height="18.3"/>
	<text transform="matrix(1 0 0 1 149.2211 222.8957)" class="st1 st68 st71">Healthlog</text>
	<rect x="141.3" y="145" class="st65" width="75.2" height="16.1"/>
	<text transform="matrix(1 0 0 1 141.3383 157.1217)" class="st1 st70 st67">Healthlog</text>
	<g>
		<g>
			<path class="st0" d="M137.5,157.5c0,0.8-0.7,1.5-1.5,1.5h-7.7c-0.8,0-1.5-0.7-1.5-1.5v-12.7c0-0.8,0.7-1.5,1.5-1.5h7.7
				c0.8,0,1.5,0.7,1.5,1.5V157.5z"/>
			<path class="st72" d="M137.5,157.5c0,0.8-0.7,1.5-1.5,1.5h-7.7c-0.8,0-1.5-0.7-1.5-1.5v-12.7c0-0.8,0.7-1.5,1.5-1.5h7.7
				c0.8,0,1.5,0.7,1.5,1.5V157.5z"/>
		</g>
		<rect x="125.8" y="143.3" class="st73" width="2.3" height="15.6"/>
		<path class="st1" d="M132.3,153.5c1-0.5,2-1.7,2-1.7s0.8-0.9,0.6-1.8c-0.2-1.1-1.2-1.1-1.2-1.1h0c-0.9,0-1.3,0.8-1.3,0.8l0,0
			c0,0-0.4-0.8-1.3-0.8h0c0,0-0.9-0.1-1.2,1.1c-0.2,0.9,0.6,1.8,0.6,1.8S131.3,152.9,132.3,153.5L132.3,153.5z"/>
	</g>
	<rect x="141.3" y="177.3" class="st65" width="75.2" height="16.1"/>
	<text transform="matrix(1 0 0 1 141.3383 189.4108)" class="st1 st70 st67">Healthlog</text>
	<g>
		<circle class="st1" cx="134.5" cy="22.3" r="9.6"/>
		<g>
			<circle class="st0" cx="128.1" cy="22.3" r="3.2"/>
			<rect x="128.1" y="19.1" class="st0" width="3.2" height="6.4"/>
		</g>
		<g>
			<circle class="st0" cx="134.5" cy="15.9" r="3.2"/>
			
				<rect x="132.9" y="14.3" transform="matrix(-1.836970e-16 1 -1 -1.836970e-16 151.9775 -116.944)" class="st0" width="3.2" height="6.4"/>
		</g>
		<g>
			<circle class="st0" cx="134.5" cy="28.7" r="3.2"/>
			
				<rect x="132.9" y="23.9" transform="matrix(6.123234e-17 -1 1 6.123234e-17 107.3746 161.5469)" class="st0" width="3.2" height="6.4"/>
		</g>
		<g>
			<circle class="st0" cx="140.9" cy="22.3" r="3.2"/>
			
				<rect x="137.7" y="19.1" transform="matrix(-1 -1.224647e-16 1.224647e-16 -1 278.5117 44.5821)" class="st0" width="3.2" height="6.4"/>
		</g>
		<path class="st0" d="M134.5,24.1c0.7-0.4,1.5-1.3,1.5-1.3s0.6-0.7,0.4-1.4c-0.2-0.9-0.9-0.8-0.9-0.8h0c-0.7,0-1,0.6-1,0.6l0,0
			c0,0-0.3-0.6-1-0.6h0c0,0-0.7-0.1-0.9,0.8c-0.1,0.7,0.4,1.4,0.4,1.4S133.7,23.7,134.5,24.1L134.5,24.1z"/>
	</g>
	<g>
		<circle class="st1" cx="136.7" cy="56.8" r="7.1"/>
		<g>
			<circle class="st0" cx="132" cy="56.8" r="2.4"/>
			<rect x="132" y="54.4" class="st0" width="2.4" height="4.7"/>
		</g>
		<g>
			<circle class="st0" cx="136.7" cy="52.1" r="2.4"/>
			
				<rect x="135.6" y="50.9" transform="matrix(-1.836970e-16 1 -1 -1.836970e-16 189.977 -83.5042)" class="st0" width="2.4" height="4.7"/>
		</g>
		<g>
			<circle class="st0" cx="136.7" cy="61.5" r="2.4"/>
			
				<rect x="135.6" y="57.9" transform="matrix(6.123234e-17 -1 1 6.123234e-17 76.4502 197.031)" class="st0" width="2.4" height="4.7"/>
		</g>
		<g>
			<circle class="st0" cx="141.5" cy="56.8" r="2.4"/>
			
				<rect x="139.1" y="54.4" transform="matrix(-1 -1.224647e-16 1.224647e-16 -1 280.5505 113.5114)" class="st0" width="2.4" height="4.7"/>
		</g>
	</g>
	<g>
		<g>
			<path class="st0" d="M137.2,189.4c0,0.8-0.7,1.5-1.5,1.5h-7.7c-0.8,0-1.5-0.7-1.5-1.5v-12.7c0-0.8,0.7-1.5,1.5-1.5h7.7
				c0.8,0,1.5,0.7,1.5,1.5V189.4z"/>
			<path class="st72" d="M137.2,189.4c0,0.8-0.7,1.5-1.5,1.5h-7.7c-0.8,0-1.5-0.7-1.5-1.5v-12.7c0-0.8,0.7-1.5,1.5-1.5h7.7
				c0.8,0,1.5,0.7,1.5,1.5V189.4z"/>
		</g>
		<rect x="125.5" y="175.3" class="st73" width="2.3" height="15.6"/>
		<g>
			<circle class="st1" cx="129.8" cy="183.1" r="1.3"/>
			<rect x="129.8" y="181.8" class="st1" width="1.3" height="2.5"/>
		</g>
		<g>
			<circle class="st1" cx="132.3" cy="180.5" r="1.3"/>
			
				<rect x="131.7" y="179.9" transform="matrix(-1.836970e-16 1 -1 -1.836970e-16 313.4834 48.8615)" class="st1" width="1.3" height="2.5"/>
		</g>
		<g>
			<circle class="st1" cx="132.3" cy="185.6" r="1.3"/>
			
				<rect x="131.7" y="183.7" transform="matrix(6.123234e-17 -1 1 6.123234e-17 -52.6708 317.2927)" class="st1" width="1.3" height="2.5"/>
		</g>
		<g>
			<circle class="st1" cx="134.9" cy="183.1" r="1.3"/>
			
				<rect x="133.6" y="181.8" transform="matrix(-1 -1.224647e-16 1.224647e-16 -1 268.4395 366.1458)" class="st1" width="1.3" height="2.5"/>
		</g>
	</g>
	<g>
		<circle class="st1" cx="136.6" cy="88.5" r="7"/>
		<g>
			<circle class="st0" cx="132" cy="88.5" r="2.3"/>
			<rect x="132" y="86.2" class="st0" width="2.3" height="4.6"/>
		</g>
		<g>
			<circle class="st0" cx="136.6" cy="83.9" r="2.3"/>
			
				<rect x="135.5" y="82.7" transform="matrix(-1.836970e-16 1 -1 -1.836970e-16 221.6828 -51.5521)" class="st0" width="2.3" height="4.6"/>
		</g>
		<g>
			<circle class="st0" cx="136.6" cy="93.2" r="2.3"/>
			
				<rect x="135.5" y="89.7" transform="matrix(6.123234e-17 -1 1 6.123234e-17 44.6154 228.6195)" class="st0" width="2.3" height="4.6"/>
		</g>
		<g>
			<circle class="st0" cx="141.3" cy="88.5" r="2.3"/>
			
				<rect x="138.9" y="86.2" transform="matrix(-1 -1.224647e-16 1.224647e-16 -1 280.1867 177.0524)" class="st0" width="2.3" height="4.6"/>
		</g>
		<rect x="134.3" y="86.2" class="st0" width="4.6" height="4.6"/>
		<path class="st1" d="M136.6,90.2c0.7-0.4,1.4-1.2,1.4-1.2s0.6-0.7,0.4-1.3c-0.2-0.8-0.8-0.8-0.8-0.8h0c-0.7,0-1,0.6-1,0.6l0,0
			c0,0-0.3-0.6-1-0.6h0c0,0-0.7-0.1-0.8,0.8c-0.1,0.7,0.4,1.3,0.4,1.3S135.9,89.8,136.6,90.2L136.6,90.2z"/>
	</g>
	<g>
		<path class="st74" d="M137,213.7v-0.9c0-0.9-0.8-1.7-1.7-1.7c-0.9,0-1.7,0.8-1.7,1.4v1.5v0.1h-1.5c-0.9,0-1.7,0.8-1.7,1.7
			c0,0.9,0.8,1.7,1.7,1.7h1.5v0.3v1.1c0,0.9,0.8,1.7,1.7,1.7c0.9,0,1.7-0.8,1.7-1.7V218v-0.4h1.5c0.9,0,1.7-0.8,1.7-1.7
			c0-0.9-0.8-1.7-1.7-1.7H137V213.7z"/>
		<g>
			<path class="st74" d="M146.3,222.1c0,1.1-0.9,2-2,2h-18c-1.1,0-2-0.9-2-2v-12c0-1.1,0.9-2,2-2h18c1.1,0,2,0.9,2,2V222.1z"/>
		</g>
		<g>
			<path class="st74" d="M124.4,209.6c0,0,0.1-0.3,0.2-0.7s0.3-1.2,0.5-1.8l0.3-0.9c0.2-0.6,0.8-1,1.4-1h6.2c0.6,0,1.3,0.5,1.5,1
				l0.7,2"/>
		</g>
	</g>
	<rect x="12.5" y="241.3" width="14.6" height="14.6"/>
	<g>
		<rect x="13.6" y="242.6" class="st0" width="2.8" height="2.7"/>
		<rect x="23.2" y="242.6" class="st0" width="2.8" height="2.7"/>
		<rect x="13.6" y="251.8" class="st0" width="2.8" height="2.7"/>
		<rect x="23.2" y="251.8" class="st0" width="2.8" height="2.7"/>
		<g>
			<rect x="13.6" y="246.1" class="st0" width="5.6" height="2.1"/>
			
				<rect x="15.4" y="244.4" transform="matrix(-1.836970e-16 1 -1 -1.836970e-16 263.5857 227.2462)" class="st0" width="5.6" height="2.1"/>
		</g>
		<g>
			
				<rect x="20.4" y="246.1" transform="matrix(-1 -4.509472e-11 4.509472e-11 -1 46.3895 494.3353)" class="st0" width="5.6" height="2.1"/>
			
				<rect x="18.7" y="244.4" transform="matrix(-4.444108e-11 1 -1 -4.444108e-11 266.8665 223.9653)" class="st0" width="5.6" height="2.1"/>
		</g>
		<g>
			<rect x="13.6" y="248.9" class="st0" width="5.6" height="2.1"/>
			
				<rect x="15.4" y="250.7" transform="matrix(6.123234e-17 -1 1 6.123234e-17 -233.5624 269.9019)" class="st0" width="5.6" height="2.1"/>
		</g>
		<g>
			
				<rect x="20.4" y="248.9" transform="matrix(-1 4.525790e-11 -4.525790e-11 -1 46.3895 499.9609)" class="st0" width="5.6" height="2.1"/>
			
				<rect x="18.7" y="250.7" transform="matrix(-4.444083e-11 -1 1 -4.444083e-11 -230.2816 273.1828)" class="st0" width="5.6" height="2.1"/>
		</g>
	</g>
</g>
<g>
	<rect x="193.5" y="230.7" class="st1" width="1.6" height="23.8"/>
	
		<rect x="198.6" y="230.5" transform="matrix(6.123234e-17 -1 1 6.123234e-17 -34.0201 432.8584)" class="st1" width="1.6" height="5.9"/>
	
		<rect x="200.2" y="232" transform="matrix(6.123234e-17 -1 1 6.123234e-17 -35.4922 437.4311)" class="st1" width="1.6" height="9"/>
	
		<rect x="199.4" y="235.8" transform="matrix(6.123234e-17 -1 1 6.123234e-17 -39.3169 439.6512)" class="st1" width="1.6" height="7.3"/>
	
		<rect x="200.7" y="237.5" transform="matrix(6.123234e-17 -1 1 6.123234e-17 -40.9689 444.044)" class="st1" width="1.6" height="10.1"/>
	
		<rect x="201.5" y="239.7" transform="matrix(6.123234e-17 -1 1 6.123234e-17 -43.1828 447.8748)" class="st1" width="1.6" height="11.7"/>
	
		<rect x="198.8" y="245.4" transform="matrix(6.123234e-17 -1 1 6.123234e-17 -48.9191 448.1834)" class="st1" width="1.6" height="6.3"/>
	
		<rect x="199.5" y="247.7" transform="matrix(6.123234e-17 -1 1 6.123234e-17 -51.2209 451.9264)" class="st1" width="1.6" height="7.7"/>
	<text transform="matrix(1 0 0 1 132.3106 249.3571)" class="st1 st75 st76">healthlog</text>
</g>
<g>
	<g>
		<rect x="147.9" y="294.6" class="st1" width="2.4" height="35.7"/>
		
			<rect x="155.6" y="294.3" transform="matrix(6.123234e-17 -1 1 6.123234e-17 -141.8418 455.5004)" class="st1" width="2.4" height="8.8"/>
		
			<rect x="157.9" y="296.5" transform="matrix(6.123234e-17 -1 1 6.123234e-17 -144.048 462.3537)" class="st1" width="2.4" height="13.4"/>
		
			<rect x="156.7" y="302.2" transform="matrix(6.123234e-17 -1 1 6.123234e-17 -149.7803 465.681)" class="st1" width="2.4" height="11"/>
		
			<rect x="158.8" y="304.7" transform="matrix(6.123234e-17 -1 1 6.123234e-17 -152.2561 472.2647)" class="st1" width="2.4" height="15.1"/>
		
			<rect x="160" y="308" transform="matrix(6.123234e-17 -1 1 6.123234e-17 -155.5742 478.0061)" class="st1" width="2.4" height="17.5"/>
		
			<rect x="155.9" y="316.6" transform="matrix(6.123234e-17 -1 1 6.123234e-17 -164.1713 478.4685)" class="st1" width="2.4" height="9.4"/>
		
			<rect x="157" y="320.1" transform="matrix(6.123234e-17 -1 1 6.123234e-17 -167.6211 484.0782)" class="st1" width="2.4" height="11.6"/>
	</g>
	<text transform="matrix(1 0 0 1 56.3632 327.0576)" class="st1 st75 st77">healthlog</text>
</g>
<g>
	<rect x="193.1" y="260.8" class="st1" width="1.6" height="23.8"/>
	
		<rect x="198.2" y="260.6" transform="matrix(6.123234e-17 -1 1 6.123234e-17 -64.4844 462.5338)" class="st1" width="1.6" height="5.9"/>
	
		<rect x="199.8" y="262.1" transform="matrix(6.123234e-17 -1 1 6.123234e-17 -65.9565 467.1064)" class="st1" width="1.6" height="9"/>
	
		<rect x="199" y="265.9" transform="matrix(6.123234e-17 -1 1 6.123234e-17 -69.7812 469.3266)" class="st1" width="1.6" height="7.3"/>
	
		<rect x="200.3" y="267.5" transform="matrix(6.123234e-17 -1 1 6.123234e-17 -71.4332 473.7194)" class="st1" width="1.6" height="10.1"/>
	
		<rect x="201.1" y="269.7" transform="matrix(6.123234e-17 -1 1 6.123234e-17 -73.6471 477.5503)" class="st1" width="1.6" height="11.7"/>
	
		<rect x="198.4" y="275.5" transform="matrix(6.123234e-17 -1 1 6.123234e-17 -79.3833 477.8588)" class="st1" width="1.6" height="6.3"/>
	
		<rect x="199.2" y="277.8" transform="matrix(6.123234e-17 -1 1 6.123234e-17 -81.6852 481.6018)" class="st1" width="1.6" height="7.7"/>
	<text transform="matrix(1 0 0 1 131.9162 276.4047)" class="st1 st75 st76">healthlog</text>
</g>
</svg>
