<?xml version="1.0" encoding="UTF-8"?>
<svg width="241px" height="349px" viewBox="0 0 241 349" version="1.1" xmlns="http://www.w3.org/2000/svg" xmlns:xlink="http://www.w3.org/1999/xlink">
    <!-- Generator: Sketch 56.3 (81716) - https://sketch.com -->
    <title>logos2-04</title>
    <desc>Created with Sketch.</desc>
    <g id="Page-1" stroke="none" stroke-width="1" fill="none" fill-rule="evenodd">
        <g id="Case-Study-Hi-Res-Desktop" transform="translate(-870.000000, -7159.000000)">
            <g id="logos2-04" transform="translate(870.000000, 7159.000000)">
                <rect id="Rectangle" fill="#FFFFFF" fill-rule="nonzero" x="0.1" y="0.1" width="240" height="348.8"></rect>
                <g id="Group" transform="translate(10.000000, 10.000000)">
                    <rect id="Rectangle" transform="translate(166.791330, 112.489813) rotate(-89.768378) translate(-166.791330, -112.489813) " x="156.791249" y="72.4894865" width="20.0001634" height="80.0006537"></rect>
                    <text id="Healthlog" fill="#231F20" font-family="Helvetica" font-size="16.2758" font-weight="normal">
                        <tspan x="126.8598" y="114.4489">Healthlog</tspan>
                    </text>
                    <g transform="translate(114.000000, 102.000000)" fill="#231F20" fill-rule="nonzero" id="Rectangle">
                        <rect x="0.1" y="0.7" width="2.8" height="2.7"></rect>
                        <rect x="9.7" y="0.7" width="2.8" height="2.7"></rect>
                        <rect x="0.1" y="9.9" width="2.8" height="2.7"></rect>
                        <rect x="9.7" y="9.9" width="2.8" height="2.7"></rect>
                        <g>
                            <rect x="0.1" y="4.2" width="5.6" height="2.1"></rect>
                            <rect transform="translate(4.603700, 3.582400) rotate(90.000000) translate(-4.603700, -3.582400) " x="1.8037" y="2.5324" width="5.6" height="2.1"></rect>
                        </g>
                        <g transform="translate(6.000000, 0.000000)">
                            <rect transform="translate(3.621400, 5.289600) rotate(-180.000000) translate(-3.621400, -5.289600) " x="0.821400005" y="4.23959999" width="5.6" height="2.1"></rect>
                            <rect transform="translate(1.884600, 3.501500) rotate(90.000000) translate(-1.884600, -3.501500) " x="-0.915400006" y="2.45149999" width="5.6" height="2.1"></rect>
                        </g>
                        <g transform="translate(0.000000, 6.000000)">
                            <rect x="0.1" y="1" width="5.6" height="2.1"></rect>
                            <rect transform="translate(4.651400, 3.770000) rotate(-90.000000) translate(-4.651400, -3.770000) " x="1.8514" y="2.72" width="5.6" height="2.1"></rect>
                        </g>
                        <g transform="translate(6.000000, 7.000000)">
                            <rect transform="translate(3.621400, 1.115200) rotate(180.000000) translate(-3.621400, -1.115200) " x="0.821399995" y="0.065200006" width="5.6" height="2.1"></rect>
                            <rect transform="translate(1.932200, 2.850800) rotate(-90.000000) translate(-1.932200, -2.850800) " x="-0.867800006" y="1.80079999" width="5.6" height="2.1"></rect>
                        </g>
                    </g>
                    <g transform="translate(67.000000, 167.000000)" fill="#231F20" fill-rule="nonzero">
                        <g>
                            <g transform="translate(0.000000, 2.000000)">
                                <circle id="Oval" cx="1.2" cy="1.7" r="1.1"></circle>
                                <rect id="Rectangle" x="1.2" y="0.6" width="1.1" height="2.2"></rect>
                            </g>
                            <g transform="translate(2.000000, 0.000000)">
                                <circle id="Oval" cx="1.4" cy="1.6" r="1.1"></circle>
                                <rect id="Rectangle" transform="translate(1.399900, 2.066600) rotate(90.000000) translate(-1.399900, -2.066600) " x="0.8499" y="0.9666" width="1.1" height="2.2"></rect>
                            </g>
                            <g transform="translate(2.000000, 4.000000)">
                                <circle id="Oval" cx="1.4" cy="1.9" r="1.1"></circle>
                                <rect id="Rectangle" transform="translate(1.431800, 1.401600) rotate(-90.000000) translate(-1.431800, -1.401600) " x="0.8818" y="0.3016" width="1.1" height="2.2"></rect>
                            </g>
                            <g transform="translate(4.000000, 2.000000)">
                                <circle id="Oval" cx="1.6" cy="1.7" r="1.1"></circle>
                                <rect id="Rectangle" transform="translate(0.992000, 1.761100) rotate(-180.000000) translate(-0.992000, -1.761100) " x="0.442" y="0.6611" width="1.1" height="2.2"></rect>
                            </g>
                        </g>
                        <rect id="Rectangle" x="2.3" y="2.6" width="2.2" height="2.2"></rect>
                    </g>
                    <rect id="Rectangle" x="4.7" y="166.7" width="62.9" height="14.9"></rect>
                    <text id="Healthplus" fill="#231F20" font-family="Helvetica" font-size="16.2758" font-weight="normal">
                        <tspan x="4.7445" y="177.6188">Healthplus</tspan>
                    </text>
                    <rect id="Rectangle" x="17.6" y="198.4" width="73.4" height="20"></rect>
                    <text id="Healthplus" fill="#231F20" font-family="Helvetica" font-size="16.2758" font-weight="normal">
                        <tspan x="17.6088" y="212.4743">Healthplus</tspan>
                    </text>
                    <rect id="Rectangle" x="19.2" y="231.7" width="73.4" height="20"></rect>
                    <text id="Healthplus" fill="#231F20" font-family="Helvetica" font-size="16.2758" font-weight="normal">
                        <tspan x="19.2387" y="245.7721">Healthplus</tspan>
                    </text>
                    <g transform="translate(0.000000, 198.000000)" fill="#231F20" fill-rule="nonzero" id="Rectangle">
                        <rect x="0.7" y="0.5" width="3.2" height="3.1"></rect>
                        <rect x="11.7" y="0.5" width="3.2" height="3.1"></rect>
                        <rect x="0.7" y="11.1" width="3.2" height="3.1"></rect>
                        <rect x="11.7" y="11.1" width="3.2" height="3.1"></rect>
                        <g>
                            <rect x="0.7" y="4.5" width="6.4" height="2.4"></rect>
                            <rect transform="translate(5.934200, 3.703300) rotate(90.000000) translate(-5.934200, -3.703300) " x="2.7342" y="2.5033" width="6.4" height="2.4"></rect>
                        </g>
                        <g transform="translate(8.000000, 0.000000)">
                            <rect transform="translate(3.716400, 5.776200) rotate(-180.000000) translate(-3.716400, -5.776200) " x="0.51640001" y="4.5762" width="6.4" height="2.4"></rect>
                            <rect transform="translate(1.716300, 3.721200) rotate(90.000000) translate(-1.716300, -3.721200) " x="-1.4837" y="2.52119999" width="6.4" height="2.4"></rect>
                        </g>
                        <g transform="translate(0.000000, 7.000000)">
                            <rect x="0.7" y="0.8" width="6.4" height="2.4"></rect>
                            <rect transform="translate(5.915400, 4.015500) rotate(-90.000000) translate(-5.915400, -4.015500) " x="2.7154" y="2.8155" width="6.4" height="2.4"></rect>
                        </g>
                        <g transform="translate(8.000000, 7.000000)">
                            <rect transform="translate(3.716400, 1.961300) rotate(180.000000) translate(-3.716400, -1.961300) " x="0.51639999" y="0.761300001" width="6.4" height="2.4"></rect>
                            <rect transform="translate(1.697500, 3.997600) rotate(-90.000000) translate(-1.697500, -3.997600) " x="-1.5025" y="2.79759999" width="6.4" height="2.4"></rect>
                        </g>
                    </g>
                    <g transform="translate(1.000000, 131.000000)">
                        <rect id="Rectangle" x="14.3" y="4" width="75.2" height="16.1"></rect>
                        <text id="Healthlog" fill="#231F20" font-family="Helvetica" font-size="16.2758" font-weight="normal">
                            <tspan x="14.3373" y="16.1217">Healthlog</tspan>
                        </text>
                        <g transform="translate(0.000000, 4.000000)" fill="#231F20" fill-rule="nonzero" id="Rectangle">
                            <rect x="0.1" y="0.3" width="2.8" height="2.7"></rect>
                            <rect x="9.7" y="0.3" width="2.8" height="2.7"></rect>
                            <rect x="0.1" y="9.5" width="2.8" height="2.7"></rect>
                            <rect x="9.7" y="9.5" width="2.8" height="2.7"></rect>
                            <g>
                                <rect x="0.1" y="3.8" width="5.6" height="2.1"></rect>
                                <rect transform="translate(4.608300, 3.180000) rotate(90.000000) translate(-4.608300, -3.180000) " x="1.8083" y="2.13" width="5.6" height="2.1"></rect>
                            </g>
                            <g transform="translate(6.000000, 0.000000)">
                                <rect transform="translate(3.628300, 4.891800) rotate(-180.000000) translate(-3.628300, -4.891800) " x="0.828300007" y="3.8418" width="5.6" height="2.1"></rect>
                                <rect transform="translate(1.889200, 3.099200) rotate(90.000000) translate(-1.889200, -3.099200) " x="-0.910800001" y="2.04919999" width="5.6" height="2.1"></rect>
                            </g>
                            <g transform="translate(0.000000, 6.000000)">
                                <rect x="0.1" y="0.6" width="5.6" height="2.1"></rect>
                                <rect transform="translate(4.653700, 3.374600) rotate(-90.000000) translate(-4.653700, -3.374600) " x="1.8537" y="2.3246" width="5.6" height="2.1"></rect>
                            </g>
                            <g transform="translate(6.000000, 6.000000)">
                                <rect transform="translate(3.628300, 1.717400) rotate(180.000000) translate(-3.628300, -1.717400) " x="0.828299993" y="0.667400001" width="5.6" height="2.1"></rect>
                                <rect transform="translate(1.934600, 3.455400) rotate(-90.000000) translate(-1.934600, -3.455400) " x="-0.865400001" y="2.40539999" width="5.6" height="2.1"></rect>
                            </g>
                        </g>
                    </g>
                    <g transform="translate(1.000000, 1.000000)">
                        <rect id="Rectangle" x="14.9" y="2.3" width="76.9" height="18.2"></rect>
                        <text id="Healthplus" fill="#231F20" font-family="Helvetica" font-size="16.2758" font-weight="normal">
                            <tspan x="14.8793" y="16.3561">Healthplus</tspan>
                        </text>
                        <g transform="translate(0.000000, 2.000000)" fill="#231F20" fill-rule="nonzero" id="Rectangle">
                            <g>
                                <rect x="0.1" y="4.4" width="6.5" height="2.4"></rect>
                                <rect transform="translate(5.428200, 3.624800) rotate(90.000000) translate(-5.428200, -3.624800) " x="2.1782" y="2.4248" width="6.5" height="2.4"></rect>
                            </g>
                            <g transform="translate(8.000000, 0.000000)">
                                <rect transform="translate(3.303100, 5.716400) rotate(-180.000000) translate(-3.303100, -5.716400) " x="0.0531000008" y="4.5164" width="6.5" height="2.4"></rect>
                                <rect transform="translate(1.280200, 3.572800) rotate(90.000000) translate(-1.280200, -3.572800) " x="-1.9698" y="2.3728" width="6.5" height="2.4"></rect>
                            </g>
                            <g transform="translate(0.000000, 7.000000)">
                                <rect x="0.1" y="0.7" width="6.5" height="2.4"></rect>
                                <rect transform="translate(5.409200, 3.994100) rotate(-90.000000) translate(-5.409200, -3.994100) " x="2.1592" y="2.7941" width="6.5" height="2.4"></rect>
                            </g>
                            <g transform="translate(8.000000, 7.000000)">
                                <rect transform="translate(3.303100, 2.021500) rotate(180.000000) translate(-3.303100, -2.021500) " x="0.053099999" y="0.821500001" width="6.5" height="2.4"></rect>
                                <rect transform="translate(1.261300, 4.046200) rotate(-90.000000) translate(-1.261300, -4.046200) " x="-1.9887" y="2.8462" width="6.5" height="2.4"></rect>
                            </g>
                        </g>
                    </g>
                    <g transform="translate(1.000000, 98.000000)">
                        <rect id="Rectangle" x="12.9" y="4.4" width="75.2" height="16.1"></rect>
                        <text id="Healthlog" fill="#231F20" font-family="Helvetica" font-size="16.2758" font-weight="normal">
                            <tspan x="12.8666" y="16.4518">Healthlog</tspan>
                        </text>
                        <g transform="translate(0.000000, 4.000000)" fill="#231F20" fill-rule="nonzero" id="Rectangle">
                            <g>
                                <rect x="0.1" y="3.9" width="5.7" height="2.1"></rect>
                                <rect transform="translate(4.751900, 3.224200) rotate(90.000000) translate(-4.751900, -3.224200) " x="1.9019" y="2.1742" width="5.7" height="2.1"></rect>
                            </g>
                            <g transform="translate(6.000000, 0.000000)">
                                <rect transform="translate(3.795100, 4.987800) rotate(-180.000000) translate(-3.795100, -4.987800) " x="0.945100005" y="3.9378" width="5.7" height="2.1"></rect>
                                <rect transform="translate(2.087400, 3.188700) rotate(90.000000) translate(-2.087400, -3.188700) " x="-0.762600001" y="2.13869999" width="5.7" height="2.1"></rect>
                            </g>
                            <g transform="translate(0.000000, 6.000000)">
                                <rect x="0.1" y="0.8" width="5.7" height="2.1"></rect>
                                <rect transform="translate(4.754400, 3.573300) rotate(-90.000000) translate(-4.754400, -3.573300) " x="1.9044" y="2.5233" width="5.7" height="2.1"></rect>
                            </g>
                            <g transform="translate(6.000000, 6.000000)">
                                <rect transform="translate(3.795100, 1.807200) rotate(180.000000) translate(-3.795100, -1.807200) " x="0.945099995" y="0.757200001" width="5.7" height="2.1"></rect>
                                <rect transform="translate(2.089900, 3.608800) rotate(-90.000000) translate(-2.089900, -3.608800) " x="-0.760100001" y="2.55879999" width="5.7" height="2.1"></rect>
                            </g>
                        </g>
                    </g>
                    <g transform="translate(1.000000, 34.000000)">
                        <rect id="Rectangle" x="6.9" y="2" width="76.9" height="18.2"></rect>
                        <text id="Healthplus" fill="#231F20" font-family="Helvetica" font-size="16.2758" font-weight="normal">
                            <tspan x="6.932" y="16.027">Healthplus</tspan>
                        </text>
                        <g transform="translate(0.000000, 2.000000)" fill="#231F20" fill-rule="nonzero" id="Rectangle">
                            <rect x="0.1" y="4.2" width="6.5" height="2.4"></rect>
                            <rect transform="translate(5.445100, 3.341800) rotate(90.000000) translate(-5.445100, -3.341800) " x="2.1951" y="2.1418" width="6.5" height="2.4"></rect>
                        </g>
                        <g transform="translate(0.000000, 9.000000)" fill="#231F20" fill-rule="nonzero" id="Rectangle">
                            <rect x="0.1" y="0.5" width="6.5" height="2.4"></rect>
                            <rect transform="translate(5.392300, 3.711100) rotate(-90.000000) translate(-5.392300, -3.711100) " x="2.1423" y="2.5111" width="6.5" height="2.4"></rect>
                        </g>
                    </g>
                    <g transform="translate(1.000000, 66.000000)">
                        <rect id="Rectangle" x="6.9" y="2.6" width="76.9" height="18.2"></rect>
                        <text id="Healthlog" fill="#231F20" font-family="Helvetica" font-size="16.2758" font-weight="normal">
                            <tspan x="6.932" y="16.6979">Healthlog</tspan>
                        </text>
                        <g transform="translate(0.000000, 2.000000)" fill="#231F20" fill-rule="nonzero" id="Rectangle">
                            <rect x="0.1" y="4.8" width="6.5" height="2.4"></rect>
                            <rect transform="translate(5.415900, 4.012600) rotate(90.000000) translate(-5.415900, -4.012600) " x="2.1659" y="2.8126" width="6.5" height="2.4"></rect>
                        </g>
                        <g transform="translate(0.000000, 10.000000)" fill="#231F20" fill-rule="nonzero" id="Rectangle">
                            <rect x="0.1" y="0.1" width="6.5" height="2.4"></rect>
                            <rect transform="translate(5.421500, 3.381800) rotate(-90.000000) translate(-5.421500, -3.381800) " x="2.1715" y="2.1818" width="6.5" height="2.4"></rect>
                        </g>
                    </g>
                    <rect id="Rectangle" x="135.6" y="5.9" width="62.9" height="14.9"></rect>
                    <text id="Healthplus" fill="#231F20" font-family="Helvetica" font-size="16.2758" font-weight="normal">
                        <tspan x="135.5629" y="16.8132">Healthplus</tspan>
                    </text>
                    <rect id="Rectangle" x="135.3" y="41.4" width="62.9" height="14.9"></rect>
                    <text id="Healthplus" fill="#231F20" font-family="Helvetica" font-size="16.2758" font-weight="normal">
                        <tspan x="135.2992" y="52.318">Healthplus</tspan>
                    </text>
                    <rect id="Rectangle" x="136.6" y="72.8" width="62.9" height="14.9"></rect>
                    <text id="Healthplus" fill="#231F20" font-family="Helvetica" font-size="16.2758" font-weight="normal">
                        <tspan x="136.6498" y="83.6891">Healthplus</tspan>
                    </text>
                    <rect id="Rectangle" x="139.2" y="199.5" width="79.9" height="18.3"></rect>
                    <text id="Healthlog" fill="#231F20" font-family="Helvetica" font-size="19.9379" font-weight="normal">
                        <tspan x="139.2211" y="212.8957">Healthlog</tspan>
                    </text>
                    <rect id="Rectangle" x="131.3" y="135" width="75.2" height="16.1"></rect>
                    <text id="Healthlog" fill="#231F20" font-family="Helvetica" font-size="16.2758" font-weight="normal">
                        <tspan x="131.3383" y="147.1217">Healthlog</tspan>
                    </text>
                    <g transform="translate(115.000000, 133.000000)">
                        <g transform="translate(1.000000, 0.000000)" id="Path">
                            <path d="M11.5,14.5 C11.5,15.3 10.8,16 10,16 L2.3,16 C1.5,16 0.8,15.3 0.8,14.5 L0.8,1.8 C0.8,1 1.5,0.3 2.3,0.3 L10,0.3 C10.8,0.3 11.5,1 11.5,1.8 L11.5,14.5 Z" fill="#FFFFFF" fill-rule="nonzero"></path>
                            <path d="M11.5,14.5 C11.5,15.3 10.8,16 10,16 L2.3,16 C1.5,16 0.8,15.3 0.8,14.5 L0.8,1.8 C0.8,1 1.5,0.3 2.3,0.3 L10,0.3 C10.8,0.3 11.5,1 11.5,1.8 L11.5,14.5 Z" stroke="#231F20" stroke-width="0.4069"></path>
                        </g>
                        <rect id="Rectangle" stroke="#231F20" stroke-width="0.4069" fill="#FFFFFF" fill-rule="nonzero" x="0.8" y="0.3" width="2.3" height="15.6"></rect>
                        <path d="M7.3,10.5 C8.3,10 9.3,8.8 9.3,8.8 C9.3,8.8 10.1,7.9 9.9,7 C9.7,5.9 8.7,5.9 8.7,5.9 L8.7,5.9 C7.8,5.9 7.4,6.7 7.4,6.7 L7.4,6.7 C7.4,6.7 7,5.9 6.1,5.9 L6.1,5.9 C6.1,5.9 5.2,5.8 4.9,7 C4.7,7.9 5.5,8.8 5.5,8.8 C5.5,8.8 6.3,9.9 7.3,10.5 L7.3,10.5 Z" id="Path" fill="#231F20" fill-rule="nonzero"></path>
                    </g>
                    <rect id="Rectangle" x="131.3" y="167.3" width="75.2" height="16.1"></rect>
                    <text id="Healthlog" fill="#231F20" font-family="Helvetica" font-size="16.2758" font-weight="normal">
                        <tspan x="131.3383" y="179.4108">Healthlog</tspan>
                    </text>
                    <g transform="translate(114.000000, 2.000000)" fill-rule="nonzero">
                        <circle id="Oval" fill="#231F20" cx="10.5" cy="10.3" r="9.6"></circle>
                        <g transform="translate(0.000000, 7.000000)" fill="#FFFFFF">
                            <circle id="Oval" cx="4.1" cy="3.3" r="3.2"></circle>
                            <rect id="Rectangle" x="4.1" y="0.1" width="3.2" height="6.4"></rect>
                        </g>
                        <g transform="translate(7.000000, 0.000000)" fill="#FFFFFF">
                            <circle id="Oval" cx="3.5" cy="3.9" r="3.2"></circle>
                            <rect id="Rectangle" transform="translate(3.477500, 5.556000) rotate(90.000000) translate(-3.477500, -5.556000) " x="1.8775" y="2.356" width="3.2" height="6.4"></rect>
                        </g>
                        <g transform="translate(7.000000, 13.000000)" fill="#FFFFFF">
                            <circle id="Oval" cx="3.5" cy="3.7" r="3.2"></circle>
                            <rect id="Rectangle" transform="translate(3.474600, 2.046900) rotate(-90.000000) translate(-3.474600, -2.046900) " x="1.8746" y="-1.1531" width="3.2" height="6.4"></rect>
                        </g>
                        <g transform="translate(13.000000, 7.000000)" fill="#FFFFFF">
                            <circle id="Oval" cx="3.9" cy="3.3" r="3.2"></circle>
                            <rect id="Rectangle" transform="translate(2.211700, 3.282100) rotate(-180.000000) translate(-2.211700, -3.282100) " x="0.6117" y="0.0821" width="3.2" height="6.4"></rect>
                        </g>
                        <path d="M10.5,12.1 C11.2,11.7 12,10.8 12,10.8 C12,10.8 12.6,10.1 12.4,9.4 C12.2,8.5 11.5,8.6 11.5,8.6 L11.5,8.6 C10.8,8.6 10.5,9.2 10.5,9.2 L10.5,9.2 C10.5,9.2 10.2,8.6 9.5,8.6 L9.5,8.6 C9.5,8.6 8.8,8.5 8.6,9.4 C8.5,10.1 9,10.8 9,10.8 C9,10.8 9.7,11.7 10.5,12.1 L10.5,12.1 Z" id="Path" fill="#FFFFFF"></path>
                    </g>
                    <g transform="translate(119.000000, 39.000000)" fill-rule="nonzero">
                        <circle id="Oval" fill="#231F20" cx="7.7" cy="7.8" r="7.1"></circle>
                        <g transform="translate(0.000000, 5.000000)" fill="#FFFFFF">
                            <circle id="Oval" cx="3" cy="2.8" r="2.4"></circle>
                            <rect id="Rectangle" x="3" y="0.4" width="2.4" height="4.7"></rect>
                        </g>
                        <g transform="translate(5.000000, 0.000000)" fill="#FFFFFF">
                            <circle id="Oval" cx="2.7" cy="3.1" r="2.4"></circle>
                            <rect id="Rectangle" transform="translate(2.727000, 4.295800) rotate(90.000000) translate(-2.727000, -4.295800) " x="1.527" y="1.9458" width="2.4" height="4.7"></rect>
                        </g>
                        <g transform="translate(5.000000, 10.000000)" fill="#FFFFFF">
                            <circle id="Oval" cx="2.7" cy="2.5" r="2.4"></circle>
                            <rect id="Rectangle" transform="translate(2.700200, 1.231000) rotate(-90.000000) translate(-2.700200, -1.231000) " x="1.5002" y="-1.119" width="2.4" height="4.7"></rect>
                        </g>
                        <g transform="translate(10.000000, 5.000000)" fill="#FFFFFF">
                            <circle id="Oval" cx="2.5" cy="2.8" r="2.4"></circle>
                            <rect id="Rectangle" transform="translate(1.250500, 2.761400) rotate(-180.000000) translate(-1.250500, -2.761400) " x="0.0505" y="0.4114" width="2.4" height="4.7"></rect>
                        </g>
                    </g>
                    <g transform="translate(115.000000, 165.000000)">
                        <g transform="translate(1.000000, 0.000000)" id="Path">
                            <path d="M11.2,14.4 C11.2,15.2 10.5,15.9 9.7,15.9 L2,15.9 C1.2,15.9 0.5,15.2 0.5,14.4 L0.5,1.7 C0.5,0.9 1.2,0.2 2,0.2 L9.7,0.2 C10.5,0.2 11.2,0.9 11.2,1.7 L11.2,14.4 Z" fill="#FFFFFF" fill-rule="nonzero"></path>
                            <path d="M11.2,14.4 C11.2,15.2 10.5,15.9 9.7,15.9 L2,15.9 C1.2,15.9 0.5,15.2 0.5,14.4 L0.5,1.7 C0.5,0.9 1.2,0.2 2,0.2 L9.7,0.2 C10.5,0.2 11.2,0.9 11.2,1.7 L11.2,14.4 Z" stroke="#231F20" stroke-width="0.4069"></path>
                        </g>
                        <rect id="Rectangle" stroke="#231F20" stroke-width="0.4069" fill="#FFFFFF" fill-rule="nonzero" x="0.5" y="0.3" width="2.3" height="15.6"></rect>
                        <g transform="translate(3.000000, 6.000000)" fill="#231F20" fill-rule="nonzero">
                            <circle id="Oval" cx="1.8" cy="2.1" r="1.3"></circle>
                            <rect id="Rectangle" x="1.8" y="0.8" width="1.3" height="2.5"></rect>
                        </g>
                        <g transform="translate(6.000000, 4.000000)" fill="#231F20" fill-rule="nonzero">
                            <circle id="Oval" cx="1.3" cy="1.5" r="1.3"></circle>
                            <rect id="Rectangle" transform="translate(1.333400, 2.211500) rotate(90.000000) translate(-1.333400, -2.211500) " x="0.6834" y="0.9615" width="1.3" height="2.5"></rect>
                        </g>
                        <g transform="translate(6.000000, 9.000000)" fill="#231F20" fill-rule="nonzero">
                            <circle id="Oval" cx="1.3" cy="1.6" r="1.3"></circle>
                            <rect id="Rectangle" transform="translate(1.279200, 0.942700) rotate(-90.000000) translate(-1.279200, -0.942700) " x="0.6292" y="-0.3073" width="1.3" height="2.5"></rect>
                        </g>
                        <g transform="translate(8.000000, 6.000000)" fill="#231F20" fill-rule="nonzero">
                            <circle id="Oval" cx="1.9" cy="2.1" r="1.3"></circle>
                            <rect id="Rectangle" transform="translate(1.189500, 2.095800) rotate(-180.000000) translate(-1.189500, -2.095800) " x="0.5395" y="0.8458" width="1.3" height="2.5"></rect>
                        </g>
                    </g>
                    <g transform="translate(119.000000, 71.000000)" fill-rule="nonzero">
                        <circle id="Oval" fill="#231F20" cx="7.6" cy="7.5" r="7"></circle>
                        <g transform="translate(0.000000, 5.000000)" fill="#FFFFFF">
                            <circle id="Oval" cx="3" cy="2.5" r="2.3"></circle>
                            <rect id="Rectangle" x="3" y="0.2" width="2.3" height="4.6"></rect>
                        </g>
                        <g transform="translate(5.000000, 0.000000)" fill="#FFFFFF">
                            <circle id="Oval" cx="2.6" cy="2.9" r="2.3"></circle>
                            <rect id="Rectangle" transform="translate(2.682800, 4.097900) rotate(90.000000) translate(-2.682800, -4.097900) " x="1.5328" y="1.7979" width="2.3" height="4.6"></rect>
                        </g>
                        <g transform="translate(5.000000, 9.000000)" fill="#FFFFFF">
                            <circle id="Oval" cx="2.6" cy="3.2" r="2.3"></circle>
                            <rect id="Rectangle" transform="translate(2.615400, 1.969500) rotate(-90.000000) translate(-2.615400, -1.969500) " x="1.4654" y="-0.3305" width="2.3" height="4.6"></rect>
                        </g>
                        <g transform="translate(9.000000, 5.000000)" fill="#FFFFFF">
                            <circle id="Oval" cx="3.3" cy="2.5" r="2.3"></circle>
                            <rect id="Rectangle" transform="translate(2.136700, 2.552400) rotate(-180.000000) translate(-2.136700, -2.552400) " x="0.9867" y="0.2524" width="2.3" height="4.6"></rect>
                        </g>
                        <rect id="Rectangle" fill="#FFFFFF" x="5.3" y="5.2" width="4.6" height="4.6"></rect>
                        <path d="M7.6,9.2 C8.3,8.8 9,8 9,8 C9,8 9.6,7.3 9.4,6.7 C9.2,5.9 8.6,5.9 8.6,5.9 L8.6,5.9 C7.9,5.9 7.6,6.5 7.6,6.5 L7.6,6.5 C7.6,6.5 7.3,5.9 6.6,5.9 L6.6,5.9 C6.6,5.9 5.9,5.8 5.8,6.7 C5.7,7.4 6.2,8 6.2,8 C6.2,8 6.9,8.8 7.6,9.2 L7.6,9.2 Z" id="Path" fill="#231F20"></path>
                    </g>
                    <g transform="translate(114.000000, 195.000000)" id="Path" stroke="#231F20" stroke-linecap="round" stroke-linejoin="round" stroke-width="0.6868">
                        <path d="M13,8.7 L13,7.8 C13,6.9 12.2,6.1 11.3,6.1 C10.4,6.1 9.6,6.9 9.6,7.5 L9.6,9 L9.6,9.1 L8.1,9.1 C7.2,9.1 6.4,9.9 6.4,10.8 C6.4,11.7 7.2,12.5 8.1,12.5 L9.6,12.5 L9.6,12.8 L9.6,13.9 C9.6,14.8 10.4,15.6 11.3,15.6 C12.2,15.6 13,14.8 13,13.9 L13,13 L13,12.6 L14.5,12.6 C15.4,12.6 16.2,11.8 16.2,10.9 C16.2,10 15.4,9.2 14.5,9.2 L13,9.2 L13,8.7 Z"></path>
                        <path d="M22.3,17.1 C22.3,18.2 21.4,19.1 20.3,19.1 L2.3,19.1 C1.2,19.1 0.3,18.2 0.3,17.1 L0.3,5.1 C0.3,4 1.2,3.1 2.3,3.1 L20.3,3.1 C21.4,3.1 22.3,4 22.3,5.1 L22.3,17.1 Z"></path>
                        <path d="M0.4,4.6 C0.4,4.6 0.5,4.3 0.6,3.9 C0.7,3.5 0.9,2.7 1.1,2.1 L1.4,1.2 C1.6,0.6 2.2,0.2 2.8,0.2 L9,0.2 C9.6,0.2 10.3,0.7 10.5,1.2 L11.2,3.2"></path>
                    </g>
                    <rect id="Rectangle" fill="#000000" fill-rule="nonzero" x="2.5" y="231.3" width="14.6" height="14.6"></rect>
                    <g transform="translate(3.000000, 232.000000)" fill="#FFFFFF" fill-rule="nonzero" id="Rectangle">
                        <rect x="0.6" y="0.6" width="2.8" height="2.7"></rect>
                        <rect x="10.2" y="0.6" width="2.8" height="2.7"></rect>
                        <rect x="0.6" y="9.8" width="2.8" height="2.7"></rect>
                        <rect x="10.2" y="9.8" width="2.8" height="2.7"></rect>
                        <g>
                            <rect x="0.6" y="4.1" width="5.6" height="2.1"></rect>
                            <rect transform="translate(5.135700, 3.446200) rotate(90.000000) translate(-5.135700, -3.446200) " x="2.3357" y="2.3962" width="5.6" height="2.1"></rect>
                        </g>
                        <g transform="translate(7.000000, 0.000000)">
                            <rect transform="translate(3.189500, 5.185300) rotate(-180.000000) translate(-3.189500, -5.185300) " x="0.389500011" y="4.1353" width="5.6" height="2.1"></rect>
                            <rect transform="translate(1.416500, 3.465300) rotate(90.000000) translate(-1.416500, -3.465300) " x="-1.3835" y="2.41529999" width="5.6" height="2.1"></rect>
                        </g>
                        <g transform="translate(0.000000, 6.000000)">
                            <rect x="0.6" y="0.9" width="5.6" height="2.1"></rect>
                            <rect transform="translate(5.187600, 3.701900) rotate(-90.000000) translate(-5.187600, -3.701900) " x="2.3876" y="2.6519" width="5.6" height="2.1"></rect>
                        </g>
                        <g transform="translate(7.000000, 6.000000)">
                            <rect transform="translate(3.189500, 2.010900) rotate(180.000000) translate(-3.189500, -2.010900) " x="0.389499989" y="0.960900001" width="5.6" height="2.1"></rect>
                            <rect transform="translate(1.468400, 3.682800) rotate(-90.000000) translate(-1.468400, -3.682800) " x="-1.3316" y="2.63279999" width="5.6" height="2.1"></rect>
                        </g>
                    </g>
                </g>
                <g id="Group" transform="translate(132.000000, 230.000000)" fill="#231F20">
                    <rect id="Rectangle" fill-rule="nonzero" x="61.5" y="0.7" width="1.6" height="23.8"></rect>
                    <rect id="Rectangle" fill-rule="nonzero" transform="translate(67.429900, 3.458400) rotate(-90.000000) translate(-67.429900, -3.458400) " x="66.6299" y="0.5084" width="1.6" height="5.9"></rect>
                    <rect id="Rectangle" fill-rule="nonzero" transform="translate(69.007800, 6.431100) rotate(-90.000000) translate(-69.007800, -6.431100) " x="68.2078" y="1.9311" width="1.6" height="9"></rect>
                    <rect id="Rectangle" fill-rule="nonzero" transform="translate(68.133100, 9.451200) rotate(-90.000000) translate(-68.133100, -9.451200) " x="67.3331" y="5.8012" width="1.6" height="7.3"></rect>
                    <rect id="Rectangle" fill-rule="nonzero" transform="translate(69.581100, 12.544000) rotate(-90.000000) translate(-69.581100, -12.544000) " x="68.7811" y="7.494" width="1.6" height="10.1"></rect>
                    <rect id="Rectangle" fill-rule="nonzero" transform="translate(70.367200, 15.574800) rotate(-90.000000) translate(-70.367200, -15.574800) " x="69.5672" y="9.7248" width="1.6" height="11.7"></rect>
                    <rect id="Rectangle" fill-rule="nonzero" transform="translate(67.630900, 18.583400) rotate(-90.000000) translate(-67.630900, -18.583400) " x="66.8309" y="15.4334" width="1.6" height="6.3"></rect>
                    <rect id="Rectangle" fill-rule="nonzero" transform="translate(68.329100, 21.626400) rotate(-90.000000) translate(-68.329100, -21.626400) " x="67.5291" y="17.7764" width="1.6" height="7.7"></rect>
                    <text id="healthlog" font-family="Helvetica" font-size="13.1875" font-weight="normal">
                        <tspan x="0.3106" y="19.3571">healthlog</tspan>
                    </text>
                </g>
                <g id="Group" transform="translate(56.000000, 294.000000)" fill="#231F20">
                    <g transform="translate(91.000000, 0.000000)" fill-rule="nonzero" id="Rectangle">
                        <rect x="0.9" y="0.6" width="2.4" height="35.7"></rect>
                        <rect transform="translate(9.858200, 4.700400) rotate(-90.000000) translate(-9.858200, -4.700400) " x="8.6582" y="0.3004" width="2.4" height="8.8"></rect>
                        <rect transform="translate(12.152000, 9.253700) rotate(-90.000000) translate(-12.152000, -9.253700) " x="10.952" y="2.5537" width="2.4" height="13.4"></rect>
                        <rect transform="translate(10.919700, 13.781000) rotate(-90.000000) translate(-10.919700, -13.781000) " x="9.7197" y="8.281" width="2.4" height="11"></rect>
                        <rect transform="translate(12.993900, 18.264700) rotate(-90.000000) translate(-12.993900, -18.264700) " x="11.7939" y="10.7147" width="2.4" height="15.1"></rect>
                        <rect transform="translate(14.175800, 22.806100) rotate(-90.000000) translate(-14.175800, -22.806100) " x="12.9758" y="14.0561" width="2.4" height="17.5"></rect>
                        <rect transform="translate(10.128700, 27.368500) rotate(-90.000000) translate(-10.128700, -27.368500) " x="8.9287" y="22.6685" width="2.4" height="9.4"></rect>
                        <rect transform="translate(11.278900, 31.878200) rotate(-90.000000) translate(-11.278900, -31.878200) " x="10.0789" y="26.0782" width="2.4" height="11.6"></rect>
                    </g>
                    <text id="healthlog" font-family="Helvetica" font-size="19.7645" font-weight="normal">
                        <tspan x="0.3632" y="33.0576">healthlog</tspan>
                    </text>
                </g>
                <g id="Group" transform="translate(131.000000, 260.000000)" fill="#231F20">
                    <rect id="Rectangle" fill-rule="nonzero" x="62.1" y="0.8" width="1.6" height="23.8"></rect>
                    <rect id="Rectangle" fill-rule="nonzero" transform="translate(68.065600, 3.533800) rotate(-90.000000) translate(-68.065600, -3.533800) " x="67.2656" y="0.5838" width="1.6" height="5.9"></rect>
                    <rect id="Rectangle" fill-rule="nonzero" transform="translate(69.643500, 6.506400) rotate(-90.000000) translate(-69.643500, -6.506400) " x="68.8435" y="2.0064" width="1.6" height="9"></rect>
                    <rect id="Rectangle" fill-rule="nonzero" transform="translate(68.768800, 9.526600) rotate(-90.000000) translate(-68.768800, -9.526600) " x="67.9688" y="5.8766" width="1.6" height="7.3"></rect>
                    <rect id="Rectangle" fill-rule="nonzero" transform="translate(70.116800, 12.619400) rotate(-90.000000) translate(-70.116800, -12.619400) " x="69.3168" y="7.5694" width="1.6" height="10.1"></rect>
                    <rect id="Rectangle" fill-rule="nonzero" transform="translate(70.902900, 15.650300) rotate(-90.000000) translate(-70.902900, -15.650300) " x="70.1029" y="9.8003" width="1.6" height="11.7"></rect>
                    <rect id="Rectangle" fill-rule="nonzero" transform="translate(68.266700, 18.658800) rotate(-90.000000) translate(-68.266700, -18.658800) " x="67.4667" y="15.5088" width="1.6" height="6.3"></rect>
                    <rect id="Rectangle" fill-rule="nonzero" transform="translate(68.964800, 21.601800) rotate(-90.000000) translate(-68.964800, -21.601800) " x="68.1648" y="17.7518" width="1.6" height="7.7"></rect>
                    <text id="healthlog" font-family="Helvetica" font-size="13.1875" font-weight="normal">
                        <tspan x="0.9162" y="16.4047">healthlog</tspan>
                    </text>
                </g>
            </g>
        </g>
    </g>
</svg>