<?xml version="1.0" encoding="UTF-8"?>
<svg width="240px" height="349px" viewBox="0 0 240 349" version="1.1" xmlns="http://www.w3.org/2000/svg" xmlns:xlink="http://www.w3.org/1999/xlink">
    <!-- Generator: Sketch 56.3 (81716) - https://sketch.com -->
    <title>logos1-01</title>
    <desc>Created with Sketch.</desc>
    <defs>
        <linearGradient x1="-0.415217391%" y1="49.5043478%" x2="100.58913%" y2="49.5043478%" id="linearGradient-1">
            <stop stop-color="#27AAE1" offset="5.220734%"></stop>
            <stop stop-color="#1B75BC" offset="100%"></stop>
        </linearGradient>
        <linearGradient x1="0.243478261%" y1="49.5043478%" x2="101.25%" y2="49.5043478%" id="linearGradient-2">
            <stop stop-color="#27AAE1" offset="5.220734%"></stop>
            <stop stop-color="#1B75BC" offset="100%"></stop>
        </linearGradient>
        <linearGradient x1="49.3173913%" y1="0.293617021%" x2="49.3173913%" y2="99.1510638%" id="linearGradient-3">
            <stop stop-color="#2BB673" offset="5.220734%"></stop>
            <stop stop-color="#006838" offset="100%"></stop>
        </linearGradient>
        <linearGradient x1="0.218390805%" y1="49.4395349%" x2="99.8804598%" y2="49.4395349%" id="linearGradient-4">
            <stop stop-color="#27AAE1" offset="5.220734%"></stop>
            <stop stop-color="#1B75BC" offset="100%"></stop>
        </linearGradient>
        <linearGradient x1="50.1%" y1="-0.301162791%" x2="50.1%" y2="100.52093%" id="linearGradient-5">
            <stop stop-color="#2BB673" offset="5.220734%"></stop>
            <stop stop-color="#006838" offset="100%"></stop>
        </linearGradient>
        <linearGradient x1="0.302298851%" y1="51.3790698%" x2="99.9643678%" y2="51.3790698%" id="linearGradient-6">
            <stop stop-color="#27AAE1" offset="5.220734%"></stop>
            <stop stop-color="#1B75BC" offset="100%"></stop>
        </linearGradient>
        <linearGradient x1="50.2674419%" y1="-0.494186047%" x2="50.2674419%" y2="100.326744%" id="linearGradient-7">
            <stop stop-color="#2BB673" offset="5.220734%"></stop>
            <stop stop-color="#006838" offset="100%"></stop>
        </linearGradient>
        <linearGradient x1="0.445652174%" y1="49.5782609%" x2="101.45%" y2="49.5782609%" id="linearGradient-8">
            <stop stop-color="#27AAE1" offset="5.220734%"></stop>
            <stop stop-color="#1B75BC" offset="100%"></stop>
        </linearGradient>
        <linearGradient x1="49.7217391%" y1="0.329787234%" x2="49.7217391%" y2="99.1851064%" id="linearGradient-9">
            <stop stop-color="#2BB673" offset="5.220734%"></stop>
            <stop stop-color="#006838" offset="100%"></stop>
        </linearGradient>
        <linearGradient x1="-0.0566666667%" y1="49.61%" x2="99.965%" y2="49.61%" id="linearGradient-10">
            <stop stop-color="#27AAE1" offset="5.220734%"></stop>
            <stop stop-color="#1B75BC" offset="100%"></stop>
        </linearGradient>
        <linearGradient x1="49.9066667%" y1="0.243333333%" x2="49.9066667%" y2="100.266667%" id="linearGradient-11">
            <stop stop-color="#2BB673" offset="5.220734%"></stop>
            <stop stop-color="#006838" offset="100%"></stop>
        </linearGradient>
    </defs>
    <g id="Page-1" stroke="none" stroke-width="1" fill="none" fill-rule="evenodd">
        <g id="Case-Study-Hi-Res-Desktop" transform="translate(-601.000000, -7159.000000)">
            <g id="logos1-01" transform="translate(601.000000, 7159.000000)">
                <rect id="Rectangle" fill="#FFFFFF" fill-rule="nonzero" x="0" y="0.1" width="240" height="348.8"></rect>
                <g id="Group" transform="translate(3.000000, 9.000000)">
                    <circle id="Oval" fill="#231F20" fill-rule="nonzero" cx="61.8" cy="210.3" r="9.2"></circle>
                    <rect id="Rectangle" fill="#21409A" fill-rule="nonzero" x="96.7" y="81.9" width="18.1" height="17.4"></rect>
                    <g transform="translate(177.000000, 77.000000)" id="Path">
                        <path d="M10.8,14 C10.8,14.8 10.2,15.4 9.4,15.4 L2.1,15.4 C1.3,15.4 0.7,14.8 0.7,14 L0.7,1.8 C0.7,1 1.3,0.4 2.1,0.4 L9.4,0.4 C10.2,0.4 10.8,1 10.8,1.8 L10.8,14 Z" fill="#FFFFFF" fill-rule="nonzero"></path>
                        <path d="M10.8,14 C10.8,14.8 10.2,15.4 9.4,15.4 L2.1,15.4 C1.3,15.4 0.7,14.8 0.7,14 L0.7,1.8 C0.7,1 1.3,0.4 2.1,0.4 L9.4,0.4 C10.2,0.4 10.8,1 10.8,1.8 L10.8,14 Z" stroke="#231F20" stroke-width="0.3902"></path>
                    </g>
                    <rect id="Rectangle" fill="#231F20" fill-rule="nonzero" x="58.9" y="72.7" width="9.4" height="9.4"></rect>
                    <rect id="Rectangle" x="3.7" y="28.8" width="48.8" height="19.2"></rect>
                    <text id="Health" fill="#231F20" font-family="Helvetica" font-size="18.7301" font-weight="normal">
                        <tspan x="3.7212" y="42.0446">Health</tspan>
                    </text>
                    <rect id="Rectangle" x="87.8" y="36.7" width="51.5" height="19.2"></rect>
                    <text id="HEALT" fill="#231F20" font-family="Helvetica" font-size="15.6084" font-weight="normal">
                        <tspan x="87.7886" y="47.7286">HEALT</tspan>
                    </text>
                    <rect id="Rectangle" x="104.3" y="60.3" width="29.2" height="19.2"></rect>
                    <text id="HEALTH" fill="#231F20" font-family="Helvetica" font-size="15.6084" font-weight="normal">
                        <tspan x="104.2896" y="72.3683">HEALTH</tspan>
                    </text>
                    <rect id="Rectangle" x="143" y="54.1" width="62.4" height="19.2"></rect>
                    <g transform="translate(142.995600, 51.714500)" fill="#231F20" font-family="Helvetica" font-size="15.6084" font-weight="normal">
                        <text id="HEALTH">
                            <tspan x="0" y="15">HEALTH</tspan>
                        </text>
                        <text id="log">
                            <tspan x="42.6" y="15">log</tspan>
                        </text>
                    </g>
                    <rect id="Rectangle" x="132.1" y="11.6" width="54.6" height="19.2"></rect>
                    <text id="HEALTH" fill="#231F20" font-family="Helvetica" font-size="13.6574" font-weight="normal">
                        <tspan x="132.0523" y="21.5836">HEALTH</tspan>
                    </text>
                    <rect id="Rectangle" x="203.2" y="2.1" width="19.2" height="11.4"></rect>
                    <text id="log" fill="#231F20" font-family="Helvetica" font-size="9.3651" font-weight="normal">
                        <tspan x="203.2193" y="9.714">log</tspan>
                    </text>
                    <rect id="Rectangle" x="4.9" y="10.3" width="48.7" height="19.2"></rect>
                    <text id="Health" fill="#231F20" font-family="Helvetica" font-size="18.7301" font-weight="normal">
                        <tspan x="4.9185" y="23.4479">Health</tspan>
                    </text>
                    <rect id="Rectangle" fill="#231F20" fill-rule="nonzero" x="52.5" y="32.6" width="9.4" height="9.4"></rect>
                    <g transform="translate(52.000000, 32.000000)" fill="#FFFFFF" fill-rule="nonzero" id="Rectangle">
                        <rect x="4.8" y="0.5" width="1" height="9.7"></rect>
                        <rect transform="translate(5.121800, 5.257200) rotate(90.000000) translate(-5.121800, -5.257200) " x="4.7718" y="0.4072" width="1" height="9.7"></rect>
                    </g>
                    <g transform="translate(73.000000, 19.000000)" fill="#000000" fill-rule="nonzero" id="Rectangle">
                        <rect x="5.4" y="0.9" width="1" height="9.7"></rect>
                        <rect transform="translate(5.660100, 5.732000) rotate(90.000000) translate(-5.660100, -5.732000) " x="5.3101" y="0.882" width="1" height="9.7"></rect>
                    </g>
                    <g transform="translate(50.000000, 15.000000)" id="Path" stroke="#231F20" stroke-linecap="round" stroke-width="2.3413">
                        <path d="M0,3.8 L7.1,3.8"></path>
                        <path d="M3.5,7.2 L3.5,0.1"></path>
                    </g>
                    <rect id="Rectangle" x="4.9" y="46.3" width="58.7" height="19.2"></rect>
                    <text id="Health" stroke="#231F20" stroke-width="0.3902" font-family="Helvetica" font-size="18.7301" font-weight="normal" fill="#000000">
                        <tspan x="4.9185" y="59.7716">Health</tspan>
                    </text>
                    <g transform="translate(60.000000, 51.000000)" id="Path" stroke="#231F20" stroke-linecap="round" stroke-width="2.3413">
                        <path d="M0.1,3.9 L7.1,3.9"></path>
                        <path d="M3.6,7.3 L3.6,0.2"></path>
                    </g>
                    <path d="M144.1,45.5 L144.1,38.4" id="Path" stroke="#006838" stroke-width="2.3413" opacity="0.64" stroke-linecap="round"></path>
                    <g transform="translate(60.000000, 73.000000)" id="Path" stroke="#FFFFFF" stroke-width="2.3413">
                        <path d="M0.1,4.5 L7.1,4.5"></path>
                        <path d="M3.6,7.9 L3.6,0.8"></path>
                    </g>
                    <path d="M140.6,42.1 L147.7,42.1" id="Path" stroke="#2B3990" stroke-width="2.3413" opacity="0.61" stroke-linecap="round"></path>
                    <g transform="translate(130.000000, 28.000000)">
                        <path d="M0.7,1.6 L2.2,1.6" id="Path" stroke="#2B3990" stroke-width="2.3413" stroke-linecap="round"></path>
                        <path d="M2.8,1.6 L4.3,1.6" id="Path" stroke="#009444" stroke-width="2.3413" stroke-linecap="round"></path>
                        <rect id="Rectangle" fill="#2B3990" fill-rule="nonzero" x="1.5" y="0.4" width="1.2" height="2.3"></rect>
                    </g>
                    <g transform="translate(131.000000, 27.000000)">
                        <path d="M1.5,4.2 L1.5,2.7" id="Path" stroke="#2B3990" stroke-width="2.3413" stroke-linecap="round"></path>
                        <path d="M1.5,2.2 L1.5,0.6" id="Path" stroke="#009444" stroke-width="2.3413" stroke-linecap="round"></path>
                        <rect id="Rectangle" fill="#2B3990" fill-rule="nonzero" transform="translate(1.456500, 2.887200) rotate(-90.000000) translate(-1.456500, -2.887200) " x="0.856500006" y="1.7372" width="1.2" height="2.3"></rect>
                    </g>
                    <g transform="translate(144.000000, 78.000000)" fill="#27AAE1" fill-rule="nonzero">
                        <circle id="Oval" cx="3.2" cy="3.9" r="3.1"></circle>
                        <rect id="Rectangle" x="3.2" y="0.8" width="3.1" height="6.1"></rect>
                    </g>
                    <g transform="translate(150.000000, 72.000000)" fill="#27AAE1" fill-rule="nonzero">
                        <circle id="Oval" cx="3.4" cy="3.8" r="3.1"></circle>
                        <rect id="Rectangle" transform="translate(3.415400, 5.277600) rotate(90.000000) translate(-3.415400, -5.277600) " x="1.8654" y="2.2276" width="3.1" height="6.1"></rect>
                    </g>
                    <g transform="translate(150.000000, 84.000000)" fill="#27AAE1" fill-rule="nonzero">
                        <circle id="Oval" cx="3.4" cy="4" r="3.1"></circle>
                        <rect id="Rectangle" transform="translate(3.345500, 2.492400) rotate(-90.000000) translate(-3.345500, -2.492400) " x="1.7955" y="-0.5576" width="3.1" height="6.1"></rect>
                    </g>
                    <g transform="translate(156.000000, 78.000000)" fill="#27AAE1" fill-rule="nonzero">
                        <circle id="Oval" cx="3.5" cy="3.9" r="3.1"></circle>
                        <rect id="Rectangle" transform="translate(1.984800, 3.900000) rotate(-180.000000) translate(-1.984800, -3.900000) " x="0.4348" y="0.85" width="3.1" height="6.1"></rect>
                    </g>
                    <g transform="translate(188.000000, 36.000000)" fill="#27AAE1" fill-rule="nonzero">
                        <circle id="Oval" cx="1.5" cy="1.4" r="1.2"></circle>
                        <rect id="Rectangle" x="1.5" y="0.2" width="1.2" height="2.3"></rect>
                    </g>
                    <g transform="translate(190.000000, 33.000000)" fill="#00A79D" fill-rule="nonzero">
                        <circle id="Oval" cx="1.9" cy="2.1" r="1.2"></circle>
                        <rect id="Rectangle" transform="translate(1.833600, 2.683100) rotate(90.000000) translate(-1.833600, -2.683100) " x="1.2336" y="1.5331" width="1.2" height="2.3"></rect>
                    </g>
                    <g transform="translate(190.000000, 38.000000)" fill="#006838" fill-rule="nonzero">
                        <circle id="Oval" cx="1.9" cy="1.7" r="1.2"></circle>
                        <rect id="Rectangle" transform="translate(1.789800, 1.060700) rotate(-90.000000) translate(-1.789800, -1.060700) " x="1.1898" y="-0.0893" width="1.2" height="2.3"></rect>
                    </g>
                    <g transform="translate(192.000000, 36.000000)" fill="#1B75BC" fill-rule="nonzero">
                        <circle id="Oval" cx="2.2" cy="1.4" r="1.2"></circle>
                        <rect id="Rectangle" transform="translate(1.585100, 1.386300) rotate(-180.000000) translate(-1.585100, -1.386300) " x="0.9851" y="0.2363" width="1.2" height="2.3"></rect>
                    </g>
                    <circle id="Oval" fill="#27AAE1" fill-rule="nonzero" cx="184.9" cy="46.3" r="1.2"></circle>
                    <g transform="translate(186.000000, 42.000000)" fill="#00A79D" fill-rule="nonzero">
                        <circle id="Oval" cx="1.2" cy="2" r="1.2"></circle>
                        <rect id="Rectangle" transform="translate(1.257800, 2.599800) rotate(90.000000) translate(-1.257800, -2.599800) " x="0.6578" y="1.4498" width="1.2" height="2.3"></rect>
                    </g>
                    <g transform="translate(186.000000, 47.000000)" fill="#006838" fill-rule="nonzero">
                        <circle id="Oval" cx="1.2" cy="1.7" r="1.2"></circle>
                        <rect id="Rectangle" transform="translate(1.173100, 1.084900) rotate(-90.000000) translate(-1.173100, -1.084900) " x="0.5731" y="-0.0651" width="1.2" height="2.3"></rect>
                    </g>
                    <circle id="Oval" fill="#1B75BC" fill-rule="nonzero" cx="189.5" cy="46.3" r="1.2"></circle>
                    <rect id="Rectangle" fill="url(#linearGradient-1)" fill-rule="nonzero" x="184.9" y="45.2" width="4.6" height="2.3"></rect>
                    <g transform="translate(171.000000, 42.000000)" fill-rule="nonzero">
                        <g opacity="0.75" transform="translate(0.000000, 3.000000)">
                            <circle id="Oval" fill="#27AAE1" cx="2" cy="1.3" r="1.2"></circle>
                            <g transform="translate(5.000000, 0.000000)" fill="#1B75BC" id="Oval">
                                <circle cx="1.7" cy="1.3" r="1.2"></circle>
                            </g>
                            <rect id="Rectangle" fill="url(#linearGradient-2)" x="2" y="0.2" width="4.6" height="2.3"></rect>
                        </g>
                        <g opacity="0.56" transform="translate(3.000000, 0.000000)">
                            <circle id="Oval" fill="#2BB673" cx="1.3" cy="2.1" r="1.2"></circle>
                            <g transform="translate(0.000000, 5.000000)" fill="#006838" id="Oval">
                                <circle cx="1.3" cy="1.8" r="1.2"></circle>
                            </g>
                            <polygon id="Path" fill="url(#linearGradient-3)" points="0.2 6.8 0.2 2.1 2.5 2.1 2.5 6.8"></polygon>
                        </g>
                    </g>
                    <g transform="translate(4.000000, 92.000000)" fill-rule="nonzero">
                        <g opacity="0.75" transform="translate(0.000000, 4.000000)">
                            <circle id="Oval" fill="#27AAE1" cx="2.2" cy="3.1" r="2.2"></circle>
                            <g transform="translate(8.000000, 0.000000)" fill="#1B75BC" id="Oval">
                                <circle cx="2.9" cy="3.1" r="2.2"></circle>
                            </g>
                            <rect id="Rectangle" fill="url(#linearGradient-4)" x="2.2" y="1" width="8.7" height="4.3"></rect>
                        </g>
                        <g opacity="0.56" transform="translate(4.000000, 0.000000)">
                            <circle id="Oval" fill="#2BB673" cx="2.6" cy="3" r="2.2"></circle>
                            <g transform="translate(0.000000, 9.000000)" fill="#006838" id="Oval">
                                <circle cx="2.6" cy="2.6" r="2.2"></circle>
                            </g>
                            <polygon id="Path" fill="url(#linearGradient-5)" points="0.4 11.6 0.4 3 4.7 3 4.7 11.6"></polygon>
                        </g>
                    </g>
                    <g transform="translate(20.000000, 93.000000)" fill-rule="nonzero">
                        <g opacity="0.75" transform="translate(0.000000, 4.000000)">
                            <circle id="Oval" fill="#27AAE1" cx="3" cy="2.3" r="2.2"></circle>
                            <g transform="translate(9.000000, 0.000000)" fill="#1B75BC" id="Oval">
                                <circle cx="2.7" cy="2.3" r="2.2"></circle>
                            </g>
                            <rect id="Rectangle" fill="url(#linearGradient-6)" x="3" y="0.1" width="8.7" height="4.3"></rect>
                        </g>
                        <g opacity="0.56" transform="translate(5.000000, 0.000000)">
                            <circle id="Oval" fill="#2BB673" cx="2.4" cy="2.2" r="2.2"></circle>
                            <g transform="translate(0.000000, 8.000000)" fill="#006838" id="Oval">
                                <circle cx="2.4" cy="2.8" r="2.2"></circle>
                            </g>
                            <polygon id="Path" fill="url(#linearGradient-7)" points="0.2 10.8 0.2 2.2 4.5 2.2 4.5 10.8"></polygon>
                        </g>
                    </g>
                    <g transform="translate(16.000000, 267.000000)" stroke="#00A651" stroke-width="0.3902">
                        <circle id="Oval" cx="3" cy="3.7" r="2.9"></circle>
                        <circle id="Oval" cx="14.5" cy="3.7" r="2.9"></circle>
                        <rect id="Rectangle" x="3" y="0.9" width="11.5" height="5.7"></rect>
                    </g>
                    <g transform="translate(21.000000, 262.000000)" stroke="#00A651" stroke-width="0.3902">
                        <circle id="Oval" cx="3.7" cy="3.2" r="2.9"></circle>
                        <circle id="Oval" cx="3.7" cy="14.7" r="2.9"></circle>
                        <rect id="Rectangle" transform="translate(3.757600, 8.992500) rotate(90.000000) translate(-3.757600, -8.992500) " x="-1.9924" y="6.1425" width="11.5" height="5.7"></rect>
                    </g>
                    <rect id="Rectangle" x="155.5" y="314.6" width="70.4" height="19.2"></rect>
                    <text id="Healthplus" fill="#231F20" font-family="Helvetica" font-size="15.6084" font-weight="normal">
                        <tspan x="155.4673" y="328.0831">Healthplus</tspan>
                    </text>
                    <g transform="translate(4.000000, 133.000000)" fill="#6D6E71" fill-rule="nonzero">
                        <path d="M0.8,12.6 C0.7,12.6 0.6,12.6 0.5,12.5 C0.4,12.4 0.4,12.3 0.4,12.2 L0.4,0.9 C0.4,0.8 0.4,0.7 0.5,0.6 C0.6,0.5 0.7,0.5 0.8,0.5 C0.9,0.5 1,0.5 1.1,0.6 C1.2,0.7 1.2,0.8 1.2,0.9 L1.2,6.1 L9.1,6.1 L9.1,0.9 C9.1,0.8 9.1,0.7 9.2,0.6 C9.3,0.5 9.4,0.5 9.5,0.5 C9.6,0.5 9.7,0.5 9.8,0.6 C9.9,0.7 9.9,0.8 9.9,0.9 L9.9,12.2 C9.9,12.3 9.9,12.4 9.8,12.5 C9.7,12.6 9.6,12.6 9.5,12.6 C9.4,12.6 9.3,12.6 9.2,12.5 C9.1,12.4 9.1,12.3 9.1,12.2 L9.1,6.9 L1.3,6.9 L1.3,12.2 C1.3,12.3 1.3,12.4 1.2,12.5 C1.1,12.5 1,12.6 0.8,12.6 Z" id="Path"></path>
                        <path d="M15.6,12.7 C14.8,12.7 14,12.5 13.4,12.1 C12.8,11.7 12.3,11.2 11.9,10.6 C11.5,9.9 11.4,9.2 11.4,8.4 C11.4,7.5 11.6,6.8 11.9,6.1 C12.2,5.5 12.7,4.9 13.3,4.6 C13.9,4.2 14.6,4 15.4,4 C16.2,4 16.9,4.2 17.4,4.5 C18,4.9 18.5,5.4 18.8,6 C19.1,6.6 19.3,7.4 19.3,8.2 C19.3,8.3 19.3,8.4 19.2,8.5 C19.1,8.6 19,8.6 18.9,8.6 L12,8.6 L12,7.8 L19.1,7.8 L18.4,8.3 C18.4,7.6 18.3,7 18.1,6.5 C17.9,6 17.5,5.6 17,5.3 C16.5,5 16,4.9 15.4,4.9 C14.8,4.9 14.3,5 13.8,5.3 C13.3,5.6 13,6 12.7,6.5 C12.4,7 12.3,7.6 12.3,8.3 C12.3,9 12.4,9.6 12.7,10.1 C13,10.6 13.4,11 13.9,11.3 C14.4,11.6 15,11.7 15.6,11.7 C16,11.7 16.4,11.6 16.8,11.5 C17.2,11.4 17.5,11.2 17.8,10.9 C17.9,10.8 18,10.8 18.1,10.8 C18.2,10.8 18.3,10.8 18.4,10.9 C18.5,11 18.6,11.1 18.6,11.2 C18.6,11.3 18.6,11.4 18.5,11.5 C18.2,11.8 17.7,12.1 17.2,12.2 C16.6,12.6 16.1,12.7 15.6,12.7 Z" id="Path"></path>
                        <path d="M24.6,12.7 C23.8,12.7 23,12.5 22.4,12.1 C21.8,11.7 21.2,11.2 20.8,10.5 C20.4,9.8 20.2,9.1 20.2,8.3 C20.2,7.5 20.4,6.7 20.8,6.1 C21.2,5.4 21.7,4.9 22.4,4.5 C23.1,4.1 23.8,3.9 24.6,3.9 C25.4,3.9 26.2,4.1 26.8,4.5 C27.5,4.9 28,5.4 28.4,6.1 C28.8,6.8 29,7.5 29,8.3 L28.6,8.9 C28.6,9.6 28.4,10.2 28.1,10.8 C27.8,11.4 27.3,11.8 26.7,12.1 C26.1,12.4 25.4,12.7 24.6,12.7 Z M24.6,11.8 C25.3,11.8 25.8,11.6 26.4,11.3 C27,11 27.3,10.6 27.6,10.1 C27.9,9.6 28,9 28,8.3 C28,7.6 27.9,7 27.6,6.5 C27.3,6 26.9,5.6 26.4,5.3 C25.9,5 25.3,4.8 24.6,4.8 C24,4.8 23.4,5 22.9,5.3 C22.4,5.6 22,6 21.7,6.5 C21.4,7 21.2,7.6 21.2,8.3 C21.2,9 21.4,9.5 21.7,10.1 C22,10.6 22.4,11 22.9,11.3 C23.4,11.6 24,11.8 24.6,11.8 Z M28.5,12.6 C28.4,12.6 28.3,12.6 28.2,12.5 C28.1,12.4 28.1,12.3 28.1,12.2 L28.1,9.3 L28.4,8.4 L29,8.4 L29,12.2 C29,12.3 29,12.4 28.9,12.5 C28.7,12.5 28.6,12.6 28.5,12.6 Z" id="Shape"></path>
                        <path d="M32.6,12.6 C32.2,12.6 31.9,12.5 31.5,12.3 C31.2,12.1 31,11.8 30.8,11.4 C30.6,11 30.5,10.6 30.5,10.1 L30.5,1 C30.5,0.9 30.5,0.7 30.6,0.7 C30.7,0.6 30.8,0.6 30.9,0.6 C31,0.6 31.2,0.6 31.2,0.7 C31.3,0.8 31.3,0.9 31.3,1 L31.3,10.1 C31.3,10.6 31.4,11 31.6,11.3 C31.8,11.6 32.1,11.8 32.4,11.8 L33,11.8 C33.1,11.8 33.2,11.8 33.3,11.9 C33.4,12 33.4,12.1 33.4,12.2 C33.4,12.3 33.4,12.4 33.3,12.5 C33.2,12.6 33.1,12.6 33,12.6 L32.6,12.6 L32.6,12.6 Z" id="Path"></path>
                        <path d="M33.3,5.2 C33.2,5.2 33.1,5.2 33,5.1 C32.9,5 32.9,4.9 32.9,4.8 C32.9,4.7 32.9,4.6 33,4.5 C33.1,4.4 33.2,4.4 33.3,4.4 L37.5,4.4 C37.6,4.4 37.7,4.4 37.8,4.5 C37.9,4.6 37.9,4.7 37.9,4.8 C37.9,4.9 37.9,5 37.8,5.1 C37.7,5.2 37.6,5.2 37.5,5.2 L33.3,5.2 Z M37.4,12.6 C36.8,12.6 36.3,12.5 35.9,12.2 C35.5,11.9 35.1,11.6 34.9,11.1 C34.7,10.6 34.5,10.1 34.5,9.6 L34.5,1.8 C34.5,1.7 34.5,1.5 34.6,1.4 C34.7,1.3 34.8,1.3 34.9,1.3 C35,1.3 35.2,1.3 35.3,1.4 C35.4,1.5 35.4,1.6 35.4,1.8 L35.4,9.6 C35.4,10.2 35.6,10.7 36,11.1 C36.4,11.5 36.9,11.7 37.5,11.7 L37.8,11.7 C37.9,11.7 38.1,11.7 38.2,11.8 C38.3,11.9 38.3,12 38.3,12.2 C38.3,12.3 38.3,12.4 38.2,12.5 C38.1,12.6 38,12.6 37.8,12.6 L37.4,12.6 Z" id="Shape"></path>
                        <path d="M40.1,8.8 C40,8.8 39.9,8.8 39.8,8.7 C39.7,8.6 39.7,8.5 39.7,8.4 L39.7,0.9 C39.7,0.8 39.7,0.6 39.8,0.6 C39.9,0.5 40,0.5 40.1,0.5 C40.2,0.5 40.4,0.5 40.4,0.6 C40.5,0.7 40.5,0.8 40.5,0.9 L40.5,8.4 C40.5,8.5 40.5,8.6 40.4,8.7 C40.3,8.8 40.2,8.8 40.1,8.8 Z M40.1,12.6 C40,12.6 39.9,12.6 39.8,12.5 C39.7,12.4 39.7,12.3 39.7,12.2 L39.7,4.6 C39.7,4.5 39.7,4.3 39.8,4.3 C39.9,4.2 40,4.2 40.1,4.2 C40.2,4.2 40.4,4.2 40.4,4.3 C40.5,4.4 40.5,4.5 40.5,4.6 L40.5,12.2 C40.5,12.3 40.5,12.4 40.4,12.5 C40.3,12.5 40.2,12.6 40.1,12.6 Z M47,12.6 C46.9,12.6 46.8,12.6 46.7,12.5 C46.6,12.4 46.6,12.3 46.6,12.2 L46.6,8 C46.6,7.3 46.5,6.7 46.2,6.3 C45.9,5.9 45.6,5.5 45.1,5.3 C44.6,5.1 44.1,5 43.6,5 C43,5 42.5,5.1 42.1,5.3 C41.7,5.5 41.3,5.8 41,6.2 C40.7,6.6 40.6,7 40.6,7.5 L39.8,7.5 C39.8,6.9 40,6.3 40.4,5.8 C40.7,5.3 41.2,4.9 41.7,4.6 C42.3,4.3 42.9,4.2 43.5,4.2 C44.2,4.2 44.9,4.4 45.5,4.7 C46.1,5 46.6,5.5 46.9,6 C47.2,6.5 47.4,7.3 47.4,8.2 L47.4,12.4 C47.4,12.5 47.4,12.6 47.3,12.7 C47.2,12.5 47.1,12.6 47,12.6 Z" id="Shape"></path>
                    </g>
                    <g transform="translate(53.000000, 133.000000)" fill="#6D6E71" fill-rule="nonzero">
                        <path d="M1,16.2 C0.8,16.2 0.6,16.1 0.4,16 C0.2,15.9 0.2,15.7 0.2,15.4 L0.2,8.2 C0.2,7.4 0.4,6.6 0.8,6 C1.2,5.4 1.7,4.8 2.3,4.4 C2.9,4 3.7,3.8 4.5,3.8 C5.3,3.8 6.1,4 6.7,4.4 C7.3,4.8 7.9,5.3 8.2,6 C8.6,6.7 8.8,7.4 8.8,8.2 C8.8,9 8.6,9.8 8.3,10.4 C7.9,11.1 7.5,11.6 6.9,12 C6.3,12.4 5.6,12.6 4.8,12.6 C4.2,12.6 3.6,12.5 3.1,12.2 C2.6,11.9 2.1,11.6 1.8,11.2 L1.8,15.4 C1.8,15.6 1.7,15.8 1.6,16 C1.4,16.1 1.2,16.2 1,16.2 Z M4.5,11.2 C5,11.2 5.5,11.1 5.9,10.8 C6.3,10.5 6.7,10.2 6.9,9.7 C7.1,9.3 7.3,8.8 7.3,8.2 C7.3,7.6 7.2,7.1 6.9,6.7 C6.6,6.3 6.3,5.9 5.9,5.6 C5.5,5.3 5,5.2 4.5,5.2 C4,5.2 3.5,5.3 3.1,5.6 C2.7,5.9 2.3,6.2 2.1,6.7 C1.9,7.1 1.7,7.7 1.7,8.2 C1.7,8.8 1.8,9.3 2.1,9.7 C2.3,10.1 2.7,10.5 3.1,10.8 C3.5,11 4,11.2 4.5,11.2 Z" id="Shape"></path>
                        <path d="M12.4,12.5 C11.9,12.5 11.5,12.4 11.2,12.1 C10.8,11.8 10.6,11.5 10.4,11.1 C10.2,10.7 10.1,10.2 10.1,9.6 L10.1,1 C10.1,0.8 10.2,0.6 10.3,0.4 C10.4,0.3 10.6,0.2 10.9,0.2 C11.1,0.2 11.3,0.3 11.5,0.4 C11.6,0.5 11.7,0.7 11.7,1 L11.7,9.6 C11.7,10 11.8,10.3 11.9,10.6 C12,10.9 12.2,11 12.5,11 L12.9,11 C13.1,11 13.3,11.1 13.4,11.2 C13.5,11.3 13.6,11.5 13.6,11.8 C13.6,12.1 13.5,12.2 13.3,12.4 C13,12.4 12.7,12.5 12.4,12.5 L12.4,12.5 Z" id="Path"></path>
                        <path d="M17.8,12.6 C17.1,12.6 16.4,12.4 15.9,12.1 C15.3,11.8 14.9,11.3 14.5,10.7 C14.2,10.1 14,9.4 14,8.5 L14,4.6 C14,4.4 14.1,4.2 14.2,4 C14.4,3.8 14.5,3.8 14.8,3.8 C15,3.8 15.2,3.9 15.4,4 C15.6,4.2 15.6,4.3 15.6,4.6 L15.6,8.5 C15.6,9.1 15.7,9.6 15.9,10 C16.1,10.4 16.4,10.7 16.8,10.8 C17.2,10.9 17.6,11.1 18.1,11.1 C18.6,11.1 19,11 19.3,10.8 C19.7,10.6 19.9,10.4 20.1,10.1 C20.3,9.8 20.4,9.5 20.4,9.1 L21.4,9.1 C21.4,9.7 21.2,10.3 20.9,10.9 C20.6,11.4 20.1,11.8 19.6,12.1 C19.1,12.4 18.5,12.6 17.8,12.6 Z M21.3,12.5 C21.1,12.5 20.9,12.4 20.7,12.3 C20.5,12.1 20.5,12 20.5,11.7 L20.5,4.7 C20.5,4.5 20.6,4.3 20.7,4.1 C20.9,4 21,3.9 21.3,3.9 C21.5,3.9 21.7,4 21.9,4.1 C22,4.2 22.1,4.4 22.1,4.7 L22.1,11.7 C22.1,11.9 22,12.1 21.9,12.3 C21.7,12.4 21.5,12.5 21.3,12.5 Z" id="Shape"></path>
                        <path d="M26.9,12.6 C26.2,12.6 25.5,12.5 24.9,12.3 C24.3,12.1 23.8,11.8 23.4,11.4 C23.2,11.2 23.2,11 23.2,10.8 C23.2,10.6 23.3,10.4 23.5,10.3 C23.7,10.1 23.9,10.1 24.1,10.1 C24.3,10.1 24.5,10.2 24.6,10.4 C24.8,10.6 25.1,10.8 25.5,11 C25.9,11.2 26.3,11.3 26.8,11.3 C27.4,11.3 27.9,11.2 28.2,11 C28.5,10.8 28.7,10.5 28.7,10.2 C28.7,9.9 28.6,9.6 28.3,9.4 C28,9.2 27.4,9 26.6,8.8 C25.5,8.6 24.8,8.3 24.3,7.9 C23.8,7.5 23.6,7 23.6,6.4 C23.6,5.9 23.8,5.4 24.1,5.1 C24.4,4.7 24.8,4.5 25.3,4.3 C25.8,4.1 26.3,4 26.8,4 C27.5,4 28.1,4.1 28.6,4.3 C29.1,4.5 29.6,4.8 29.9,5.2 C30,5.4 30.1,5.5 30.1,5.7 C30.1,5.9 30,6 29.8,6.2 C29.6,6.3 29.4,6.4 29.2,6.3 C29,6.3 28.8,6.2 28.6,6 C28.3,5.7 28.1,5.6 27.8,5.5 C27.5,5.4 27.1,5.4 26.7,5.4 C26.2,5.4 25.8,5.5 25.5,5.6 C25.2,5.7 25,6 25,6.3 C25,6.5 25,6.7 25.1,6.8 C25.2,7 25.4,7.1 25.7,7.2 C26,7.3 26.4,7.4 27,7.6 C27.8,7.8 28.4,8 28.9,8.2 C29.4,8.4 29.7,8.7 29.9,9 C30.1,9.3 30.2,9.7 30.2,10.1 C30.2,10.6 30.1,11 29.8,11.4 C29.5,11.8 29.2,12.1 28.7,12.3 C28.3,12.5 27.7,12.6 26.9,12.6 Z" id="Path"></path>
                    </g>
                    <g transform="translate(212.000000, 42.000000)" fill-rule="nonzero">
                        <g opacity="0.75" transform="translate(0.000000, 3.000000)">
                            <circle id="Oval" fill="#27AAE1" cx="1.5" cy="1.2" r="1.2"></circle>
                            <g transform="translate(5.000000, 0.000000)" fill="#1B75BC" id="Oval">
                                <circle cx="1.2" cy="1.2" r="1.2"></circle>
                            </g>
                            <rect id="Rectangle" fill="url(#linearGradient-8)" x="1.5" y="0.1" width="4.6" height="2.3"></rect>
                        </g>
                        <g opacity="0.56" transform="translate(2.000000, 0.000000)">
                            <circle id="Oval" fill="#2BB673" cx="1.8" cy="2" r="1.2"></circle>
                            <g transform="translate(0.000000, 5.000000)" fill="#006838" id="Oval">
                                <circle cx="1.8" cy="1.7" r="1.2"></circle>
                            </g>
                            <polygon id="Path" fill="url(#linearGradient-9)" points="0.7 6.7 0.7 2 3 2 3 6.7"></polygon>
                        </g>
                    </g>
                    <g transform="translate(181.000000, 11.000000)" fill-rule="nonzero">
                        <g opacity="0.75" transform="translate(0.000000, 3.000000)">
                            <circle id="Oval" fill="#27AAE1" cx="1.9" cy="2" r="1.5"></circle>
                            <g transform="translate(6.000000, 0.000000)" fill="#1B75BC" id="Oval">
                                <circle cx="1.9" cy="2" r="1.5"></circle>
                            </g>
                            <rect id="Rectangle" fill="url(#linearGradient-10)" x="1.9" y="0.5" width="6" height="3"></rect>
                        </g>
                        <g opacity="0.56" transform="translate(3.000000, 0.000000)">
                            <circle id="Oval" fill="#2BB673" cx="1.9" cy="2.1" r="1.5"></circle>
                            <g transform="translate(0.000000, 6.000000)" fill="#006838" id="Oval">
                                <circle cx="1.9" cy="2.1" r="1.5"></circle>
                            </g>
                            <polygon id="Path" fill="url(#linearGradient-11)" points="0.4 8.1 0.4 2.1 3.4 2.1 3.4 8.1"></polygon>
                        </g>
                    </g>
                    <rect id="Rectangle" stroke="#231F20" stroke-width="0.3902" fill="#FFFFFF" fill-rule="nonzero" x="176.6" y="77.4" width="2.2" height="15"></rect>
                    <path d="M182.7,87.1 C183.6,86.6 184.6,85.5 184.6,85.5 C184.6,85.5 185.3,84.6 185.2,83.7 C185,82.6 184.1,82.7 184.1,82.7 L184.1,82.7 C183.2,82.7 182.8,83.5 182.8,83.5 L182.8,83.5 C182.8,83.5 182.4,82.7 181.5,82.7 L181.5,82.7 C181.5,82.7 180.6,82.6 180.4,83.7 C180.2,84.6 181,85.5 181,85.5 C181,85.5 181.8,86.6 182.7,87.1 L182.7,87.1 Z" id="Path" fill="#231F20" fill-rule="nonzero"></path>
                    <g transform="translate(7.000000, 72.000000)" id="Path">
                        <path d="M10.3,13.6 C10.3,14.4 9.7,15 8.9,15 L1.6,15 C0.8,15 0.2,14.4 0.2,13.6 L0.2,1.5 C0.2,0.7 0.8,0.1 1.6,0.1 L8.9,0.1 C9.7,0.1 10.3,0.7 10.3,1.5 L10.3,13.6 Z" fill="#FFFFFF" fill-rule="nonzero"></path>
                        <path d="M10.3,13.6 C10.3,14.4 9.7,15 8.9,15 L1.6,15 C0.8,15 0.2,14.4 0.2,13.6 L0.2,1.5 C0.2,0.7 0.8,0.1 1.6,0.1 L8.9,0.1 C9.7,0.1 10.3,0.7 10.3,1.5 L10.3,13.6 Z" stroke="#231F20" stroke-width="0.3902"></path>
                    </g>
                    <rect id="Rectangle" stroke="#231F20" stroke-width="0.3902" fill="#FFFFFF" fill-rule="nonzero" x="6" y="72" width="2.2" height="15"></rect>
                    <path d="M12.2,81.8 C13.1,81.3 14.1,80.2 14.1,80.2 C14.1,80.2 14.8,79.3 14.7,78.4 C14.5,77.3 13.6,77.4 13.6,77.4 L13.6,77.4 C12.7,77.4 12.3,78.2 12.3,78.2 L12.3,78.2 C12.3,78.2 11.9,77.4 11,77.4 L11,77.4 C11,77.4 10.1,77.3 9.9,78.4 C9.7,79.3 10.5,80.2 10.5,80.2 C10.5,80.2 11.2,81.3 12.2,81.8 L12.2,81.8 Z" id="Path" fill="#231F20" fill-rule="nonzero"></path>
                    <path d="M153.4,83.6 C154.1,83.2 154.8,82.4 154.8,82.4 C154.8,82.4 155.4,81.7 155.2,81.1 C155,80.3 154.4,80.3 154.4,80.3 L154.4,80.3 C153.7,80.3 153.4,80.9 153.4,80.9 L153.4,80.9 C153.4,80.9 153.1,80.3 152.4,80.3 L152.4,80.3 C152.4,80.3 151.7,80.2 151.6,81.1 C151.5,81.8 152,82.4 152,82.4 C152,82.4 152.7,83.3 153.4,83.6 L153.4,83.6 Z" id="Path" fill="#27AAE1" fill-rule="nonzero"></path>
                    <g transform="translate(36.000000, 205.000000)" id="Path">
                        <path d="M11,14.4 C11,15.2 10.4,15.8 9.6,15.8 L2.3,15.8 C1.5,15.8 0.9,15.2 0.9,14.4 L0.9,2.2 C0.9,1.4 1.5,0.8 2.3,0.8 L9.6,0.8 C10.4,0.8 11,1.4 11,2.2 L11,14.4 Z" fill="#FFFFFF" fill-rule="nonzero"></path>
                        <path d="M11,14.4 C11,15.2 10.4,15.8 9.6,15.8 L2.3,15.8 C1.5,15.8 0.9,15.2 0.9,14.4 L0.9,2.2 C0.9,1.4 1.5,0.8 2.3,0.8 L9.6,0.8 C10.4,0.8 11,1.4 11,2.2 L11,14.4 Z" stroke="#231F20" stroke-width="0.3902"></path>
                    </g>
                    <g transform="translate(3.000000, 207.000000)" fill="#231F20" fill-rule="nonzero">
                        <circle id="Oval" cx="3.4" cy="3.3" r="3.1"></circle>
                        <rect id="Rectangle" x="3.4" y="0.3" width="3.1" height="6.1"></rect>
                    </g>
                    <g transform="translate(9.000000, 201.000000)" fill="#231F20" fill-rule="nonzero">
                        <circle id="Oval" cx="3.6" cy="3.2" r="3.1"></circle>
                        <rect id="Rectangle" transform="translate(3.565800, 4.716400) rotate(90.000000) translate(-3.565800, -4.716400) " x="2.0158" y="1.6664" width="3.1" height="6.1"></rect>
                    </g>
                    <g transform="translate(9.000000, 213.000000)" fill="#231F20" fill-rule="nonzero">
                        <circle id="Oval" cx="3.6" cy="3.5" r="3.1"></circle>
                        <rect id="Rectangle" transform="translate(3.606600, 1.942800) rotate(-90.000000) translate(-3.606600, -1.942800) " x="2.0566" y="-1.1072" width="3.1" height="6.1"></rect>
                    </g>
                    <g transform="translate(15.000000, 207.000000)" fill="#231F20" fill-rule="nonzero">
                        <circle id="Oval" cx="3.7" cy="3.3" r="3.1"></circle>
                        <rect id="Rectangle" transform="translate(2.196400, 3.289200) rotate(-180.000000) translate(-2.196400, -3.289200) " x="0.6464" y="0.2392" width="3.1" height="6.1"></rect>
                    </g>
                    <rect id="Rectangle" stroke="#231F20" stroke-width="0.3902" fill="#FFFFFF" fill-rule="nonzero" x="35.8" y="205.8" width="2.2" height="15"></rect>
                    <g transform="translate(85.000000, 205.000000)" id="Path">
                        <path d="M10.1,14.4 C10.1,15.2 9.5,15.8 8.7,15.8 L1.4,15.8 C0.6,15.8 -1.42108547e-14,15.2 -1.42108547e-14,14.4 L-1.42108547e-14,2.2 C-1.42108547e-14,1.4 0.6,0.8 1.4,0.8 L8.7,0.8 C9.5,0.8 10.1,1.4 10.1,2.2 L10.1,14.4 Z" fill="#FFFFFF" fill-rule="nonzero"></path>
                        <path d="M10.1,14.4 C10.1,15.2 9.5,15.8 8.7,15.8 L1.4,15.8 C0.6,15.8 -1.42108547e-14,15.2 -1.42108547e-14,14.4 L-1.42108547e-14,2.2 C-1.42108547e-14,1.4 0.6,0.8 1.4,0.8 L8.7,0.8 C9.5,0.8 10.1,1.4 10.1,2.2 L10.1,14.4 Z" stroke="#231F20" stroke-width="0.3902"></path>
                    </g>
                    <rect id="Rectangle" stroke="#231F20" stroke-width="0.3902" fill="#FFFFFF" fill-rule="nonzero" x="83.8" y="205.8" width="2.2" height="15"></rect>
                    <path d="M41.9,215.5 C42.8,215 43.8,213.9 43.8,213.9 C43.8,213.9 44.5,213 44.4,212.1 C44.2,211 43.3,211.1 43.3,211.1 L43.3,211.1 C42.4,211.1 42,211.9 42,211.9 L42,211.9 C42,211.9 41.6,211.1 40.7,211.1 L40.7,211.1 C40.7,211.1 39.8,211 39.6,212.1 C39.4,213 40.2,213.9 40.2,213.9 C40.2,213.9 41,215 41.9,215.5 L41.9,215.5 Z" id="Path" fill="#231F20" fill-rule="nonzero"></path>
                    <path d="M12.6,212.1 C13.3,211.7 14,210.9 14,210.9 C14,210.9 14.6,210.2 14.4,209.6 C14.2,208.8 13.6,208.8 13.6,208.8 L13.6,208.8 C12.9,208.8 12.6,209.4 12.6,209.4 L12.6,209.4 C12.6,209.4 12.3,208.8 11.6,208.8 L11.6,208.8 C11.6,208.8 10.9,208.7 10.8,209.6 C10.7,210.3 11.2,210.9 11.2,210.9 C11.2,210.9 11.9,211.7 12.6,212.1 L12.6,212.1 Z" id="Path" fill="#231F20" fill-rule="nonzero"></path>
                    <g transform="translate(52.000000, 207.000000)" fill="#FFFFFF" fill-rule="nonzero">
                        <circle id="Oval" cx="3.6" cy="3.3" r="3.1"></circle>
                        <rect id="Rectangle" x="3.6" y="0.3" width="3.1" height="6.1"></rect>
                    </g>
                    <g transform="translate(58.000000, 201.000000)" fill="#FFFFFF" fill-rule="nonzero">
                        <circle id="Oval" cx="3.8" cy="3.2" r="3.1"></circle>
                        <rect id="Rectangle" transform="translate(3.771400, 4.710800) rotate(90.000000) translate(-3.771400, -4.710800) " x="2.2214" y="1.6608" width="3.1" height="6.1"></rect>
                    </g>
                    <g transform="translate(58.000000, 213.000000)" fill="#FFFFFF" fill-rule="nonzero">
                        <circle id="Oval" cx="3.8" cy="3.5" r="3.1"></circle>
                        <rect id="Rectangle" transform="translate(3.812200, 1.948300) rotate(-90.000000) translate(-3.812200, -1.948300) " x="2.2622" y="-1.1017" width="3.1" height="6.1"></rect>
                    </g>
                    <g transform="translate(64.000000, 207.000000)" fill="#FFFFFF" fill-rule="nonzero">
                        <circle id="Oval" cx="3.9" cy="3.3" r="3.1"></circle>
                        <rect id="Rectangle" transform="translate(2.407500, 3.289200) rotate(-180.000000) translate(-2.407500, -3.289200) " x="0.8575" y="0.2392" width="3.1" height="6.1"></rect>
                    </g>
                    <path d="M61.8,212.1 C62.5,211.7 63.2,210.9 63.2,210.9 C63.2,210.9 63.8,210.2 63.6,209.6 C63.4,208.8 62.8,208.8 62.8,208.8 L62.8,208.8 C62.1,208.8 61.8,209.4 61.8,209.4 L61.8,209.4 C61.8,209.4 61.5,208.8 60.8,208.8 L60.8,208.8 C60.8,208.8 60.1,208.7 60,209.6 C59.9,210.3 60.4,210.9 60.4,210.9 C60.4,210.9 61.1,211.7 61.8,212.1 L61.8,212.1 Z" id="Path" fill="#FFFFFF" fill-rule="nonzero"></path>
                    <circle id="Oval" fill="#231F20" fill-rule="nonzero" cx="61.8" cy="234.8" r="9.2"></circle>
                    <g transform="translate(52.000000, 231.000000)" fill="#FFFFFF" fill-rule="nonzero">
                        <circle id="Oval" cx="3.6" cy="3.8" r="3.1"></circle>
                        <rect id="Rectangle" x="3.6" y="0.8" width="3.1" height="6.1"></rect>
                    </g>
                    <g transform="translate(58.000000, 225.000000)" fill="#FFFFFF" fill-rule="nonzero">
                        <circle id="Oval" cx="3.8" cy="3.7" r="3.1"></circle>
                        <rect id="Rectangle" transform="translate(3.776600, 5.216100) rotate(90.000000) translate(-3.776600, -5.216100) " x="2.2266" y="2.1661" width="3.1" height="6.1"></rect>
                    </g>
                    <g transform="translate(58.000000, 237.000000)" fill="#FFFFFF" fill-rule="nonzero">
                        <circle id="Oval" cx="3.8" cy="4" r="3.1"></circle>
                        <rect id="Rectangle" transform="translate(3.806900, 2.453600) rotate(-90.000000) translate(-3.806900, -2.453600) " x="2.2569" y="-0.5964" width="3.1" height="6.1"></rect>
                    </g>
                    <g transform="translate(64.000000, 231.000000)" fill="#FFFFFF" fill-rule="nonzero">
                        <circle id="Oval" cx="3.9" cy="3.8" r="3.1"></circle>
                        <rect id="Rectangle" transform="translate(2.407500, 3.799700) rotate(-180.000000) translate(-2.407500, -3.799700) " x="0.8575" y="0.7497" width="3.1" height="6.1"></rect>
                    </g>
                    <circle id="Oval" fill="#231F20" fill-rule="nonzero" cx="83.8" cy="234.8" r="9.2"></circle>
                    <g transform="translate(74.000000, 231.000000)" fill="#FFFFFF" fill-rule="nonzero">
                        <circle id="Oval" cx="3.7" cy="3.8" r="3.1"></circle>
                        <rect id="Rectangle" x="3.7" y="0.8" width="3.1" height="6.1"></rect>
                    </g>
                    <g transform="translate(80.000000, 225.000000)" fill="#FFFFFF" fill-rule="nonzero">
                        <circle id="Oval" cx="3.8" cy="3.7" r="3.1"></circle>
                        <rect id="Rectangle" transform="translate(3.814100, 5.278500) rotate(90.000000) translate(-3.814100, -5.278500) " x="2.2641" y="2.2285" width="3.1" height="6.1"></rect>
                    </g>
                    <g transform="translate(80.000000, 237.000000)" fill="#FFFFFF" fill-rule="nonzero">
                        <circle id="Oval" cx="3.8" cy="4" r="3.1"></circle>
                        <rect id="Rectangle" transform="translate(3.844500, 2.391100) rotate(-90.000000) translate(-3.844500, -2.391100) " x="2.2945" y="-0.6589" width="3.1" height="6.1"></rect>
                    </g>
                    <g transform="translate(86.000000, 231.000000)" fill="#FFFFFF" fill-rule="nonzero">
                        <circle id="Oval" cx="3.9" cy="3.8" r="3.1"></circle>
                        <rect id="Rectangle" transform="translate(2.382600, 3.799700) rotate(-180.000000) translate(-2.382600, -3.799700) " x="0.8326" y="0.7497" width="3.1" height="6.1"></rect>
                    </g>
                    <g transform="translate(86.000000, 212.000000)" fill="#231F20" fill-rule="nonzero">
                        <circle id="Oval" cx="1.9" cy="1.3" r="1.2"></circle>
                        <rect id="Rectangle" x="1.9" y="0.1" width="1.2" height="2.4"></rect>
                    </g>
                    <g transform="translate(89.000000, 209.000000)" fill="#231F20" fill-rule="nonzero">
                        <circle id="Oval" cx="1.4" cy="1.9" r="1.2"></circle>
                        <rect id="Rectangle" transform="translate(1.386400, 2.515800) rotate(90.000000) translate(-1.386400, -2.515800) " x="0.7864" y="1.3158" width="1.2" height="2.4"></rect>
                    </g>
                    <g transform="translate(89.000000, 214.000000)" fill="#231F20" fill-rule="nonzero">
                        <circle id="Oval" cx="1.4" cy="1.8" r="1.2"></circle>
                        <rect id="Rectangle" transform="translate(1.331100, 1.139500) rotate(-90.000000) translate(-1.331100, -1.139500) " x="0.7311" y="-0.0605" width="1.2" height="2.4"></rect>
                    </g>
                    <g transform="translate(91.000000, 212.000000)" fill="#231F20" fill-rule="nonzero">
                        <circle id="Oval" cx="1.8" cy="1.3" r="1.2"></circle>
                        <rect id="Rectangle" transform="translate(1.231700, 1.347300) rotate(-180.000000) translate(-1.231700, -1.347300) " x="0.6317" y="0.1473" width="1.2" height="2.4"></rect>
                    </g>
                    <path d="M217.9,94.9 C223.5,92 229,85.3 229,85.3 C229,85.3 233.4,80.2 232.3,75 C231,68.6 225.8,69 225.8,69 L225.5,69 C220.3,69 218,73.6 218,73.6 L218,73.6 C218,73.6 215.7,69 210.5,69 L210.2,69 C210.2,69 205,68.6 203.7,75 C202.6,80.3 207,85.3 207,85.3 C207,85.3 212.4,92 217.9,94.9 L217.9,94.9 Z" id="Path" fill="#231F20" fill-rule="nonzero"></path>
                    <g transform="translate(96.000000, 81.000000)" fill="#00A79D" fill-rule="nonzero" id="Rectangle">
                        <rect x="0.7" y="6" width="8.2" height="3"></rect>
                        <rect transform="translate(7.412800, 5.004400) rotate(90.000000) translate(-7.412800, -5.004400) " x="3.3128" y="3.5044" width="8.2" height="3"></rect>
                    </g>
                    <g transform="translate(106.000000, 81.000000)" fill="#00A79D" fill-rule="nonzero" id="Rectangle">
                        <rect transform="translate(4.753800, 7.557400) rotate(-180.000000) translate(-4.753800, -7.557400) " x="0.653800004" y="6.05739999" width="8.2" height="3"></rect>
                        <rect transform="translate(2.226400, 4.990800) rotate(90.000000) translate(-2.226400, -4.990800) " x="-1.8736" y="3.4908" width="8.2" height="3"></rect>
                    </g>
                    <g transform="translate(96.000000, 91.000000)" fill="#00A79D" fill-rule="nonzero" id="Rectangle">
                        <rect x="0.7" y="0.1" width="8.2" height="3"></rect>
                        <rect transform="translate(7.328400, 4.180000) rotate(-90.000000) translate(-7.328400, -4.180000) " x="3.2284" y="2.68" width="8.2" height="3"></rect>
                    </g>
                    <g transform="translate(106.000000, 91.000000)" fill="#00A79D" fill-rule="nonzero" id="Rectangle">
                        <rect transform="translate(4.753800, 1.711400) rotate(180.000000) translate(-4.753800, -1.711400) " x="0.653799995" y="0.211400005" width="8.2" height="3"></rect>
                        <rect transform="translate(2.142000, 4.193600) rotate(-90.000000) translate(-2.142000, -4.193600) " x="-1.958" y="2.6936" width="8.2" height="3"></rect>
                    </g>
                    <rect id="Rectangle" fill="#00A79D" fill-rule="nonzero" x="172.9" y="104.8" width="4.1" height="3.9"></rect>
                    <rect id="Rectangle" fill="#00A79D" fill-rule="nonzero" x="186.9" y="104.8" width="4.1" height="3.9"></rect>
                    <rect id="Rectangle" fill="#00A79D" fill-rule="nonzero" x="172.9" y="118.3" width="4.1" height="3.9"></rect>
                    <rect id="Rectangle" fill="#00A79D" fill-rule="nonzero" x="186.9" y="118.3" width="4.1" height="3.9"></rect>
                    <g transform="translate(172.000000, 104.000000)" fill="#00A79D" fill-rule="nonzero" id="Rectangle">
                        <rect x="0.9" y="6" width="8.2" height="3"></rect>
                        <rect transform="translate(7.601600, 4.952900) rotate(90.000000) translate(-7.601600, -4.952900) " x="3.5016" y="3.4529" width="8.2" height="3"></rect>
                    </g>
                    <g transform="translate(182.000000, 104.000000)" fill="#00A79D" fill-rule="nonzero" id="Rectangle">
                        <rect transform="translate(4.894100, 7.494800) rotate(-180.000000) translate(-4.894100, -7.494800) " x="0.794100005" y="5.99479999" width="8.2" height="3"></rect>
                        <rect transform="translate(2.415200, 4.939300) rotate(90.000000) translate(-2.415200, -4.939300) " x="-1.68480001" y="3.43929999" width="8.2" height="3"></rect>
                    </g>
                    <g transform="translate(172.000000, 114.000000)" fill="#00A79D" fill-rule="nonzero" id="Rectangle">
                        <rect x="0.9" y="0.1" width="8.2" height="3"></rect>
                        <rect transform="translate(7.579900, 4.168800) rotate(-90.000000) translate(-7.579900, -4.168800) " x="3.4799" y="2.6688" width="8.2" height="3"></rect>
                    </g>
                    <g transform="translate(182.000000, 114.000000)" fill="#00A79D" fill-rule="nonzero" id="Rectangle">
                        <rect transform="translate(4.894100, 1.648700) rotate(180.000000) translate(-4.894100, -1.648700) " x="0.794099994" y="0.148700009" width="8.2" height="3"></rect>
                        <rect transform="translate(2.393500, 4.182500) rotate(-90.000000) translate(-2.393500, -4.182500) " x="-1.70650001" y="2.68249999" width="8.2" height="3"></rect>
                    </g>
                    <g transform="translate(140.000000, 314.000000)" fill="#231F20" fill-rule="nonzero" id="Rectangle">
                        <rect x="0" y="0.7" width="3.1" height="3"></rect>
                        <rect x="10.6" y="0.7" width="3.1" height="3"></rect>
                        <rect x="0" y="10.9" width="3.1" height="3"></rect>
                        <rect x="10.6" y="10.9" width="3.1" height="3"></rect>
                        <g>
                            <rect x="0" y="4.6" width="6.2" height="2.3"></rect>
                            <rect transform="translate(5.042200, 3.745300) rotate(90.000000) translate(-5.042200, -3.745300) " x="1.9422" y="2.5953" width="6.2" height="2.3"></rect>
                        </g>
                        <g transform="translate(7.000000, 0.000000)">
                            <rect transform="translate(3.557400, 5.660600) rotate(-180.000000) translate(-3.557400, -5.660600) " x="0.457400015" y="4.51059999" width="6.2" height="2.3"></rect>
                            <rect transform="translate(1.669200, 3.818300) rotate(90.000000) translate(-1.669200, -3.818300) " x="-1.43080001" y="2.66829999" width="6.2" height="2.3"></rect>
                        </g>
                        <g transform="translate(0.000000, 7.000000)">
                            <rect x="0" y="0.7" width="6.2" height="2.3"></rect>
                            <rect transform="translate(5.022000, 3.774900) rotate(-90.000000) translate(-5.022000, -3.774900) " x="1.922" y="2.6249" width="6.2" height="2.3"></rect>
                        </g>
                        <g transform="translate(7.000000, 7.000000)">
                            <rect transform="translate(3.557400, 1.779800) rotate(180.000000) translate(-3.557400, -1.779800) " x="0.457399985" y="0.629800007" width="6.2" height="2.3"></rect>
                            <rect transform="translate(1.649000, 3.701900) rotate(-90.000000) translate(-1.649000, -3.701900) " x="-1.45100001" y="2.55189999" width="6.2" height="2.3"></rect>
                        </g>
                    </g>
                    <rect id="Rectangle" x="145.2" y="169.5" width="73.7" height="17.5"></rect>
                    <text id="Healthplus" fill="#231F20" font-family="Helvetica" font-size="15.6084" font-weight="normal">
                        <tspan x="145.1978" y="182.9679">Healthplus</tspan>
                    </text>
                    <rect id="Rectangle" x="148.4" y="271.2" width="72.1" height="15.5"></rect>
                    <text id="Healthlog" fill="#231F20" font-family="Helvetica" font-size="15.6084" font-weight="normal">
                        <tspan x="148.4283" y="282.8341">Healthlog</tspan>
                    </text>
                    <rect id="Rectangle" x="143" y="250.9" width="72.1" height="15.5"></rect>
                    <text id="Healthlog" fill="#231F20" font-family="Helvetica" font-size="15.6084" font-weight="normal">
                        <tspan x="142.9956" y="262.4581">Healthlog</tspan>
                    </text>
                    <g transform="translate(134.000000, 271.000000)" fill="#231F20" fill-rule="nonzero" id="Rectangle">
                        <rect x="0.8" y="0.5" width="2.7" height="2.6"></rect>
                        <rect x="9.9" y="0.5" width="2.7" height="2.6"></rect>
                        <rect x="0.8" y="9.4" width="2.7" height="2.6"></rect>
                        <rect x="9.9" y="9.4" width="2.7" height="2.6"></rect>
                        <g>
                            <rect x="0.8" y="3.9" width="5.3" height="2"></rect>
                            <rect transform="translate(5.128000, 3.222900) rotate(90.000000) translate(-5.128000, -3.222900) " x="2.478" y="2.2229" width="5.3" height="2"></rect>
                        </g>
                        <g transform="translate(7.000000, 0.000000)">
                            <rect transform="translate(2.943100, 4.860600) rotate(-180.000000) translate(-2.943100, -4.860600) " x="0.293100013" y="3.86059999" width="5.3" height="2"></rect>
                            <rect transform="translate(1.274300, 3.176600) rotate(90.000000) translate(-1.274300, -3.176600) " x="-1.37570001" y="2.17659999" width="5.3" height="2"></rect>
                        </g>
                        <g transform="translate(0.000000, 6.000000)">
                            <rect x="0.8" y="0.6" width="5.3" height="2"></rect>
                            <rect transform="translate(5.169900, 3.235300) rotate(-90.000000) translate(-5.169900, -3.235300) " x="2.5199" y="2.2353" width="5.3" height="2"></rect>
                        </g>
                        <g transform="translate(7.000000, 6.000000)">
                            <rect transform="translate(2.943100, 1.555600) rotate(180.000000) translate(-2.943100, -1.555600) " x="0.293099987" y="0.555600007" width="5.3" height="2"></rect>
                            <rect transform="translate(1.316200, 3.281600) rotate(-90.000000) translate(-1.316200, -3.281600) " x="-1.33380001" y="2.28159999" width="5.3" height="2"></rect>
                        </g>
                    </g>
                    <rect id="Rectangle" transform="translate(57.268064, 301.365921) rotate(-89.768378) translate(-57.268064, -301.365921) " x="47.6679857" y="262.965607" width="19.2001569" height="76.8006276"></rect>
                    <text id="Healthlog" fill="#6D6E71" font-family="Helvetica" font-size="15.6084" font-weight="normal">
                        <tspan x="18.8745" y="303.2667">Healthlog</tspan>
                    </text>
                    <g transform="translate(5.000000, 292.000000)" fill="#6D6E71" fill-rule="nonzero" id="Rectangle">
                        <rect x="0.6" y="0" width="2.7" height="2.6"></rect>
                        <rect x="9.7" y="0" width="2.7" height="2.6"></rect>
                        <rect x="0.6" y="8.9" width="2.7" height="2.6"></rect>
                        <rect x="9.7" y="8.9" width="2.7" height="2.6"></rect>
                        <g>
                            <rect x="0.6" y="3.4" width="5.3" height="2"></rect>
                            <rect transform="translate(4.896000, 2.658300) rotate(90.000000) translate(-4.896000, -2.658300) " x="2.246" y="1.6583" width="5.3" height="2"></rect>
                        </g>
                        <g transform="translate(7.000000, 0.000000)">
                            <rect transform="translate(2.775600, 4.364000) rotate(-180.000000) translate(-2.775600, -4.364000) " x="0.125600014" y="3.364" width="5.3" height="2"></rect>
                            <rect transform="translate(1.042300, 2.712000) rotate(90.000000) translate(-1.042300, -2.712000) " x="-1.6077" y="1.71199999" width="5.3" height="2"></rect>
                        </g>
                        <g transform="translate(0.000000, 6.000000)">
                            <rect x="0.6" y="0.1" width="5.3" height="2"></rect>
                            <rect transform="translate(4.934500, 2.803200) rotate(-90.000000) translate(-4.934500, -2.803200) " x="2.2845" y="1.8032" width="5.3" height="2"></rect>
                        </g>
                        <g transform="translate(7.000000, 6.000000)">
                            <rect transform="translate(2.775600, 1.059000) rotate(180.000000) translate(-2.775600, -1.059000) " x="0.125599986" y="0.0590000008" width="5.3" height="2"></rect>
                            <rect transform="translate(1.080800, 2.749500) rotate(-90.000000) translate(-1.080800, -2.749500) " x="-1.5692" y="1.74949999" width="5.3" height="2"></rect>
                        </g>
                    </g>
                    <rect id="Rectangle" x="14.2" y="177.6" width="76.8" height="16.2"></rect>
                    <text id="Healthlog" fill="#6D6E71" font-family="Helvetica" font-size="15.6084" font-weight="normal">
                        <tspan x="14.2076" y="189.2638">Healthlog</tspan>
                    </text>
                    <g transform="translate(0.000000, 177.000000)" fill="#6D6E71" fill-rule="nonzero" id="Rectangle">
                        <rect x="0.6" y="0.9" width="2.7" height="2.6"></rect>
                        <rect x="9.7" y="0.9" width="2.7" height="2.6"></rect>
                        <rect x="0.6" y="9.7" width="2.7" height="2.6"></rect>
                        <rect x="9.7" y="9.7" width="2.7" height="2.6"></rect>
                        <g>
                            <rect x="0.6" y="4.2" width="5.3" height="2"></rect>
                            <rect transform="translate(4.927000, 3.463000) rotate(90.000000) translate(-4.927000, -3.463000) " x="2.277" y="2.463" width="5.3" height="2"></rect>
                        </g>
                        <g transform="translate(7.000000, 0.000000)">
                            <rect transform="translate(2.701900, 5.199700) rotate(-180.000000) translate(-2.701900, -5.199700) " x="0.0519000086" y="4.1997" width="5.3" height="2"></rect>
                            <rect transform="translate(1.073300, 3.516700) rotate(90.000000) translate(-1.073300, -3.516700) " x="-1.5767" y="2.51669999" width="5.3" height="2"></rect>
                        </g>
                        <g transform="translate(0.000000, 6.000000)">
                            <rect x="0.6" y="0.9" width="5.3" height="2"></rect>
                            <rect transform="translate(4.929800, 3.634200) rotate(-90.000000) translate(-4.929800, -3.634200) " x="2.2798" y="2.6342" width="5.3" height="2"></rect>
                        </g>
                        <g transform="translate(7.000000, 6.000000)">
                            <rect transform="translate(2.701900, 1.894700) rotate(180.000000) translate(-2.701900, -1.894700) " x="0.0518999913" y="0.894700001" width="5.3" height="2"></rect>
                            <rect transform="translate(1.076100, 3.580500) rotate(-90.000000) translate(-1.076100, -3.580500) " x="-1.5739" y="2.58049999" width="5.3" height="2"></rect>
                        </g>
                    </g>
                    <rect id="Rectangle" x="124.3" y="136.2" width="65.5" height="16"></rect>
                    <text id="Healthplus" fill="#231F20" font-family="Helvetica" font-size="15.6084" font-weight="normal">
                        <tspan x="124.2622" y="146.6827">Healthplus</tspan>
                    </text>
                    <rect id="Rectangle" fill="#00A79D" fill-rule="nonzero" x="194.4" y="129.7" width="3.4" height="3.3"></rect>
                    <rect id="Rectangle" fill="#00A79D" fill-rule="nonzero" x="209" y="129.7" width="3.4" height="3.3"></rect>
                    <rect id="Rectangle" fill="#00A79D" fill-rule="nonzero" x="194.4" y="143.8" width="3.4" height="3.3"></rect>
                    <rect id="Rectangle" fill="#00A79D" fill-rule="nonzero" x="209" y="143.8" width="3.4" height="3.3"></rect>
                    <g transform="translate(194.000000, 129.000000)" fill="#2B3990" fill-rule="nonzero" id="Rectangle">
                        <rect x="0.4" y="5.8" width="8.2" height="3"></rect>
                        <rect transform="translate(7.066300, 4.744700) rotate(90.000000) translate(-7.066300, -4.744700) " x="2.9663" y="3.2447" width="8.2" height="3"></rect>
                    </g>
                    <g transform="translate(204.000000, 129.000000)" fill="#2B3990" fill-rule="nonzero" id="Rectangle">
                        <rect transform="translate(4.367000, 7.351300) rotate(-180.000000) translate(-4.367000, -7.351300) " x="0.267000007" y="5.85129999" width="8.2" height="3"></rect>
                        <rect transform="translate(1.880000, 4.731100) rotate(90.000000) translate(-1.880000, -4.731100) " x="-2.22000001" y="3.23109999" width="8.2" height="3"></rect>
                    </g>
                    <g transform="translate(194.000000, 138.000000)" fill="#2B3990" fill-rule="nonzero" id="Rectangle">
                        <rect x="0.4" y="0.9" width="8.2" height="3"></rect>
                        <rect transform="translate(6.988100, 5.033500) rotate(-90.000000) translate(-6.988100, -5.033500) " x="2.8881" y="3.5335" width="8.2" height="3"></rect>
                    </g>
                    <g transform="translate(204.000000, 138.000000)" fill="#2B3990" fill-rule="nonzero" id="Rectangle">
                        <rect transform="translate(4.367000, 2.505200) rotate(180.000000) translate(-4.367000, -2.505200) " x="0.266999993" y="1.00520001" width="8.2" height="3"></rect>
                        <rect transform="translate(1.801700, 5.047200) rotate(-90.000000) translate(-1.801700, -5.047200) " x="-2.29830001" y="3.54719999" width="8.2" height="3"></rect>
                    </g>
                    <rect id="Rectangle" fill="#00A79D" fill-rule="nonzero" x="199.8" y="104.8" width="4.1" height="3.9"></rect>
                    <rect id="Rectangle" fill="#00A79D" fill-rule="nonzero" x="213.8" y="104.8" width="4.1" height="3.9"></rect>
                    <rect id="Rectangle" fill="#00A79D" fill-rule="nonzero" x="199.8" y="118.3" width="4.1" height="3.9"></rect>
                    <rect id="Rectangle" fill="#00A79D" fill-rule="nonzero" x="213.8" y="118.3" width="4.1" height="3.9"></rect>
                    <g transform="translate(199.000000, 104.000000)" fill="#2B3990" fill-rule="nonzero" id="Rectangle">
                        <rect x="0.8" y="6" width="8.2" height="3"></rect>
                        <rect transform="translate(7.483600, 4.970900) rotate(90.000000) translate(-7.483600, -4.970900) " x="3.3836" y="3.4709" width="8.2" height="3"></rect>
                    </g>
                    <g transform="translate(209.000000, 104.000000)" fill="#2B3990" fill-rule="nonzero" id="Rectangle">
                        <rect transform="translate(4.858100, 7.494800) rotate(-180.000000) translate(-4.858100, -7.494800) " x="0.758100005" y="5.99479999" width="8.2" height="3"></rect>
                        <rect transform="translate(2.297200, 4.957300) rotate(90.000000) translate(-2.297200, -4.957300) " x="-1.80280001" y="3.45729999" width="8.2" height="3"></rect>
                    </g>
                    <g transform="translate(199.000000, 114.000000)" fill="#2B3990" fill-rule="nonzero" id="Rectangle">
                        <rect x="0.8" y="0.1" width="8.2" height="3"></rect>
                        <rect transform="translate(7.461900, 4.150800) rotate(-90.000000) translate(-7.461900, -4.150800) " x="3.3619" y="2.6508" width="8.2" height="3"></rect>
                    </g>
                    <g transform="translate(209.000000, 114.000000)" fill="#2B3990" fill-rule="nonzero" id="Rectangle">
                        <rect transform="translate(4.858100, 1.648700) rotate(180.000000) translate(-4.858100, -1.648700) " x="0.758099994" y="0.14870001" width="8.2" height="3"></rect>
                        <rect transform="translate(2.275500, 4.164400) rotate(-90.000000) translate(-2.275500, -4.164400) " x="-1.82450001" y="2.66439999" width="8.2" height="3"></rect>
                    </g>
                    <g transform="translate(118.000000, 81.000000)" fill="#00A79D" fill-rule="nonzero" id="Rectangle">
                        <g>
                            <rect x="0.5" y="6" width="8.2" height="3"></rect>
                            <rect transform="translate(7.242800, 4.974400) rotate(90.000000) translate(-7.242800, -4.974400) " x="3.1428" y="3.4744" width="8.2" height="3"></rect>
                        </g>
                        <g transform="translate(10.000000, 0.000000)">
                            <rect transform="translate(4.513800, 7.557400) rotate(-180.000000) translate(-4.513800, -7.557400) " x="0.413800004" y="6.05739999" width="8.2" height="3"></rect>
                            <rect transform="translate(2.056400, 4.960800) rotate(90.000000) translate(-2.056400, -4.960800) " x="-2.04360001" y="3.4608" width="8.2" height="3"></rect>
                        </g>
                        <g transform="translate(0.000000, 10.000000)">
                            <rect x="0.5" y="0.1" width="8.2" height="3"></rect>
                            <rect transform="translate(7.158400, 4.210000) rotate(-90.000000) translate(-7.158400, -4.210000) " x="3.0584" y="2.71" width="8.2" height="3"></rect>
                        </g>
                        <g transform="translate(10.000000, 10.000000)">
                            <rect transform="translate(4.513800, 1.711400) rotate(180.000000) translate(-4.513800, -1.711400) " x="0.413799995" y="0.211400006" width="8.2" height="3"></rect>
                            <rect transform="translate(1.972000, 4.223600) rotate(-90.000000) translate(-1.972000, -4.223600) " x="-2.12800001" y="2.7236" width="8.2" height="3"></rect>
                        </g>
                    </g>
                    <g transform="translate(21.000000, 111.000000)" fill="#231F20" fill-rule="nonzero" id="Rectangle">
                        <g>
                            <rect x="0.3" y="4.1" width="5.5" height="2.1"></rect>
                            <rect transform="translate(4.708800, 3.430600) rotate(90.000000) translate(-4.708800, -3.430600) " x="1.9588" y="2.3806" width="5.5" height="2.1"></rect>
                        </g>
                        <g transform="translate(6.000000, 0.000000)">
                            <rect transform="translate(3.668500, 5.154600) rotate(-180.000000) translate(-3.668500, -5.154600) " x="0.918500006" y="4.1046" width="5.5" height="2.1"></rect>
                            <rect transform="translate(1.953800, 3.385600) rotate(90.000000) translate(-1.953800, -3.385600) " x="-0.796200001" y="2.33559999" width="5.5" height="2.1"></rect>
                        </g>
                        <g transform="translate(0.000000, 6.000000)">
                            <rect x="0.3" y="0.9" width="5.5" height="2.1"></rect>
                            <rect transform="translate(4.722000, 3.656100) rotate(-90.000000) translate(-4.722000, -3.656100) " x="1.972" y="2.6061" width="5.5" height="2.1"></rect>
                        </g>
                        <g transform="translate(6.000000, 6.000000)">
                            <rect transform="translate(3.668500, 1.918900) rotate(180.000000) translate(-3.668500, -1.918900) " x="0.918499994" y="0.868900002" width="5.5" height="2.1"></rect>
                            <rect transform="translate(1.967100, 3.701200) rotate(-90.000000) translate(-1.967100, -3.701200) " x="-0.782900001" y="2.65119999" width="5.5" height="2.1"></rect>
                        </g>
                    </g>
                    <g transform="translate(131.000000, 169.000000)" fill="#231F20" fill-rule="nonzero" id="Rectangle">
                        <g>
                            <rect x="0" y="4.5" width="6.3" height="2.3"></rect>
                            <rect transform="translate(5.137200, 3.671300) rotate(90.000000) translate(-5.137200, -3.671300) " x="1.9872" y="2.5213" width="6.3" height="2.3"></rect>
                        </g>
                        <g transform="translate(7.000000, 0.000000)">
                            <rect transform="translate(3.731800, 5.603200) rotate(-180.000000) translate(-3.731800, -5.603200) " x="0.581800008" y="4.45319999" width="6.3" height="2.3"></rect>
                            <rect transform="translate(1.831300, 3.677200) rotate(90.000000) translate(-1.831300, -3.677200) " x="-1.31870001" y="2.52719999" width="6.3" height="2.3"></rect>
                        </g>
                        <g transform="translate(0.000000, 7.000000)">
                            <rect x="0" y="0.6" width="6.3" height="2.3"></rect>
                            <rect transform="translate(5.116900, 3.749000) rotate(-90.000000) translate(-5.116900, -3.749000) " x="1.9669" y="2.599" width="6.3" height="2.3"></rect>
                        </g>
                        <g transform="translate(7.000000, 7.000000)">
                            <rect transform="translate(3.731800, 1.837400) rotate(180.000000) translate(-3.731800, -1.837400) " x="0.581799992" y="0.687400006" width="6.3" height="2.3"></rect>
                            <rect transform="translate(1.811000, 3.743100) rotate(-90.000000) translate(-1.811000, -3.743100) " x="-1.33900001" y="2.59309999" width="6.3" height="2.3"></rect>
                        </g>
                    </g>
                    <g transform="translate(130.000000, 250.000000)" fill="#231F20" fill-rule="nonzero" id="Rectangle">
                        <g>
                            <rect x="0.8" y="4.3" width="5.4" height="2"></rect>
                            <rect transform="translate(5.152000, 3.597100) rotate(90.000000) translate(-5.152000, -3.597100) " x="2.452" y="2.5971" width="5.4" height="2"></rect>
                        </g>
                        <g transform="translate(7.000000, 0.000000)">
                            <rect transform="translate(3.053300, 5.264800) rotate(-180.000000) translate(-3.053300, -5.264800) " x="0.353300012" y="4.26479999" width="5.4" height="2"></rect>
                            <rect transform="translate(1.350700, 3.598400) rotate(90.000000) translate(-1.350700, -3.598400) " x="-1.34930001" y="2.59839999" width="5.4" height="2"></rect>
                        </g>
                        <g transform="translate(0.000000, 7.000000)">
                            <rect x="0.8" y="0" width="5.4" height="2"></rect>
                            <rect transform="translate(5.144700, 2.710100) rotate(-90.000000) translate(-5.144700, -2.710100) " x="2.4447" y="1.7101" width="5.4" height="2"></rect>
                        </g>
                        <g transform="translate(7.000000, 7.000000)">
                            <rect transform="translate(3.053300, 1.049600) rotate(180.000000) translate(-3.053300, -1.049600) " x="0.353299988" y="0.0496000064" width="5.4" height="2"></rect>
                            <rect transform="translate(1.343500, 2.708800) rotate(-90.000000) translate(-1.343500, -2.708800) " x="-1.35650001" y="1.70879999" width="5.4" height="2"></rect>
                        </g>
                    </g>
                    <g transform="translate(138.000000, 191.000000)">
                        <rect id="Rectangle" x="7.2" y="2.1" width="73.7" height="17.5"></rect>
                        <text id="Healthplus" fill="#231F20" font-family="Helvetica" font-size="15.6084" font-weight="normal">
                            <tspan x="7.2339" y="15.5363">Healthplus</tspan>
                        </text>
                        <g transform="translate(0.000000, 2.000000)" fill="#231F20" fill-rule="nonzero" id="Rectangle">
                            <rect x="0.7" y="4.1" width="6.3" height="2.3"></rect>
                            <rect transform="translate(5.807200, 3.326300) rotate(90.000000) translate(-5.807200, -3.326300) " x="2.6572" y="2.1763" width="6.3" height="2.3"></rect>
                        </g>
                        <g transform="translate(0.000000, 9.000000)" fill="#231F20" fill-rule="nonzero" id="Rectangle">
                            <rect x="0.7" y="0.2" width="6.3" height="2.3"></rect>
                            <rect transform="translate(5.761800, 3.319000) rotate(-90.000000) translate(-5.761800, -3.319000) " x="2.6118" y="2.169" width="6.3" height="2.3"></rect>
                        </g>
                    </g>
                    <g transform="translate(138.000000, 220.000000)">
                        <rect id="Rectangle" x="7.2" y="2" width="73.7" height="17.5"></rect>
                        <text id="Healthlog" fill="#231F20" font-family="Helvetica" font-size="15.6084" font-weight="normal">
                            <tspan x="7.2339" y="15.4415">Healthlog</tspan>
                        </text>
                        <g transform="translate(0.000000, 2.000000)" fill="#231F20" fill-rule="nonzero" id="Rectangle">
                            <rect x="0.7" y="4" width="6.3" height="2.3"></rect>
                            <rect transform="translate(5.812600, 3.231700) rotate(90.000000) translate(-5.812600, -3.231700) " x="2.6626" y="2.0817" width="6.3" height="2.3"></rect>
                        </g>
                        <g transform="translate(0.000000, 9.000000)" fill="#231F20" fill-rule="nonzero" id="Rectangle">
                            <rect x="0.7" y="0.1" width="6.3" height="2.3"></rect>
                            <rect transform="translate(5.756500, 3.224400) rotate(-90.000000) translate(-5.756500, -3.224400) " x="2.6065" y="2.0744" width="6.3" height="2.3"></rect>
                        </g>
                    </g>
                    <g transform="translate(2.000000, 110.000000)" fill="#231F20" fill-rule="nonzero" id="Rectangle">
                        <g>
                            <rect x="0.8" y="4.6" width="5.9" height="2.2"></rect>
                            <rect transform="translate(5.588100, 3.813100) rotate(90.000000) translate(-5.588100, -3.813100) " x="2.6381" y="2.7131" width="5.9" height="2.2"></rect>
                        </g>
                        <g transform="translate(7.000000, 0.000000)">
                            <rect transform="translate(3.850700, 5.637900) rotate(-180.000000) translate(-3.850700, -5.637900) " x="0.900700006" y="4.5379" width="5.9" height="2.2"></rect>
                            <rect transform="translate(2.040500, 3.860700) rotate(90.000000) translate(-2.040500, -3.860700) " x="-0.909500001" y="2.76069999" width="5.9" height="2.2"></rect>
                        </g>
                        <g transform="translate(0.000000, 7.000000)">
                            <rect x="0.8" y="0.5" width="5.9" height="2.2"></rect>
                            <rect transform="translate(5.590300, 3.484700) rotate(-90.000000) translate(-5.590300, -3.484700) " x="2.6403" y="2.3847" width="5.9" height="2.2"></rect>
                        </g>
                        <g transform="translate(7.000000, 7.000000)">
                            <rect transform="translate(3.850700, 1.657700) rotate(180.000000) translate(-3.850700, -1.657700) " x="0.900699994" y="0.557700001" width="5.9" height="2.2"></rect>
                            <rect transform="translate(2.042800, 3.437100) rotate(-90.000000) translate(-2.042800, -3.437100) " x="-0.907200001" y="2.33709999" width="5.9" height="2.2"></rect>
                        </g>
                    </g>
                    <g transform="translate(146.000000, 97.000000)" id="Path">
                        <path d="M7.4,13.6 C10.2,12.1 12.9,8.8 12.9,8.8 C12.9,8.8 15.1,6.3 14.5,3.6 C13.8,0.4 11.2,0.6 11.2,0.6 L11.1,0.6 C8.5,0.6 7.3,2.9 7.3,2.9 L7.3,2.9 C7.3,2.9 6.2,0.6 3.5,0.6 L3.4,0.6 C3.4,0.6 0.8,0.4 0.1,3.6 C-0.4,6.2 1.7,8.8 1.7,8.8 C1.7,8.8 4.6,12.2 7.4,13.6 L7.4,13.6 Z" fill="#231F20" fill-rule="nonzero"></path>
                        <g transform="translate(8.000000, 2.000000)" stroke="#FFFFFF" stroke-width="1.4138">
                            <path d="M0.9,2.7 L5.2,2.7"></path>
                            <path d="M3,4.8 L3,0.5"></path>
                        </g>
                    </g>
                    <g transform="translate(105.000000, 146.000000)" id="Path">
                        <path d="M5.2,9.4 C7.1,8.4 9,6.1 9,6.1 C9,6.1 10.5,4.4 10.1,2.5 C9.6,0.3 7.9,0.4 7.9,0.4 L7.8,0.4 C6,0.4 5.2,2 5.2,2 L5.2,2 C5.2,2 4.4,0.4 2.6,0.4 L2.5,0.4 C2.5,0.4 0.7,0.3 0.3,2.5 C-0.1,4.3 1.4,6.1 1.4,6.1 C1.4,6.1 3.3,8.4 5.2,9.4 L5.2,9.4 Z" fill="#231F20" fill-rule="nonzero"></path>
                        <g transform="translate(6.000000, 1.000000)" stroke="#FFFFFF" stroke-width="0.7804">
                            <path d="M0.3,2.4 L3.3,2.4"></path>
                            <path d="M1.8,3.8 L1.8,0.9"></path>
                        </g>
                    </g>
                    <g transform="translate(157.000000, 131.000000)" id="Path">
                        <path d="M4.6,7.8 C6.2,6.9 7.8,5 7.8,5 C7.8,5 9.1,3.5 8.7,2 C8.3,0.1 6.8,0.3 6.8,0.3 L6.7,0.3 C5.2,0.3 4.5,1.6 4.5,1.6 L4.5,1.6 C4.5,1.6 3.8,0.3 2.3,0.3 L2.2,0.3 C2.2,0.3 0.7,0.2 0.3,2 C0,3.5 1.2,5 1.2,5 C1.2,5 3,7 4.6,7.8 L4.6,7.8 Z" fill="#231F20" fill-rule="nonzero"></path>
                        <g transform="translate(5.000000, 1.000000)" stroke="#FFFFFF" stroke-width="0.6594">
                            <path d="M0.5,1.7 L3,1.7"></path>
                            <path d="M1.7,2.9 L1.7,0.4"></path>
                        </g>
                    </g>
                    <g transform="translate(100.000000, 116.000000)" id="Path">
                        <path d="M5.3,9.1 C7.2,8.1 9.1,5.8 9.1,5.8 C9.1,5.8 10.6,4.1 10.2,2.2 C9.7,-1.42108547e-14 8,0.1 8,0.1 L7.9,0.1 C6.1,0.1 5.3,1.7 5.3,1.7 L5.3,1.7 C5.3,1.7 4.5,0.1 2.7,0.1 L2.6,0.1 C2.6,0.1 0.8,0 0.4,2.2 C-5.55111512e-17,4 1.5,5.8 1.5,5.8 C1.5,5.8 3.3,8.1 5.3,9.1 L5.3,9.1 Z" fill="#231F20" fill-rule="nonzero"></path>
                        <g transform="translate(6.000000, 1.000000)" stroke="#FFFFFF" stroke-width="0.7804">
                            <path d="M0.3,2.1 L3.3,2.1"></path>
                            <path d="M1.8,3.5 L1.8,0.5"></path>
                        </g>
                    </g>
                    <g transform="translate(83.000000, 133.000000)" fill="#6D6E71" fill-rule="nonzero">
                        <g>
                            <g transform="translate(0.000000, 4.000000)">
                                <circle id="Oval" cx="2.3" cy="1.6" r="1.6"></circle>
                                <rect id="Rectangle" x="2.3" y="0.1" width="1.6" height="3.1"></rect>
                            </g>
                            <g transform="translate(3.000000, 0.000000)">
                                <circle id="Oval" cx="2.5" cy="2.5" r="1.6"></circle>
                                <rect id="Rectangle" transform="translate(2.506800, 3.336200) rotate(90.000000) translate(-2.506800, -3.336200) " x="1.7068" y="1.7862" width="1.6" height="3.1"></rect>
                            </g>
                            <g transform="translate(3.000000, 7.000000)">
                                <circle id="Oval" cx="2.5" cy="1.8" r="1.6"></circle>
                                <rect id="Rectangle" transform="translate(2.436400, 0.934200) rotate(-90.000000) translate(-2.436400, -0.934200) " x="1.6364" y="-0.6158" width="1.6" height="3.1"></rect>
                            </g>
                            <g transform="translate(7.000000, 4.000000)">
                                <circle id="Oval" cx="1.6" cy="1.6" r="1.6"></circle>
                                <rect id="Rectangle" transform="translate(0.808300, 1.610200) rotate(-180.000000) translate(-0.808300, -1.610200) " x="0.0083" y="0.0602" width="1.6" height="3.1"></rect>
                            </g>
                        </g>
                        <rect id="Rectangle" x="3.9" y="4.1" width="3.1" height="3.1"></rect>
                    </g>
                    <g transform="translate(201.000000, 297.000000)" fill="#231F20" fill-rule="nonzero">
                        <g>
                            <g transform="translate(0.000000, 2.000000)">
                                <circle id="Oval" cx="1.6" cy="1.3" r="1"></circle>
                                <rect id="Rectangle" x="1.6" y="0.3" width="1" height="2.1"></rect>
                            </g>
                            <g transform="translate(2.000000, 0.000000)">
                                <circle id="Oval" cx="1.7" cy="1.2" r="1"></circle>
                                <rect id="Rectangle" transform="translate(1.672700, 1.683100) rotate(90.000000) translate(-1.672700, -1.683100) " x="1.1727" y="0.6331" width="1" height="2.1"></rect>
                            </g>
                            <g transform="translate(2.000000, 4.000000)">
                                <circle id="Oval" cx="1.7" cy="1.4" r="1"></circle>
                                <rect id="Rectangle" transform="translate(1.648600, 0.941000) rotate(-90.000000) translate(-1.648600, -0.941000) " x="1.1486" y="-0.109" width="1" height="2.1"></rect>
                            </g>
                            <g transform="translate(4.000000, 2.000000)">
                                <circle id="Oval" cx="1.8" cy="1.3" r="1"></circle>
                                <rect id="Rectangle" transform="translate(1.264700, 1.267200) rotate(-180.000000) translate(-1.264700, -1.267200) " x="0.7647" y="0.2172" width="1" height="2.1"></rect>
                            </g>
                        </g>
                        <rect id="Rectangle" x="2.6" y="2.3" width="2.1" height="2.1"></rect>
                    </g>
                    <rect id="Rectangle" x="141.7" y="296.4" width="60.3" height="14.3"></rect>
                    <text id="Healthplus" fill="#231F20" font-family="Helvetica" font-size="15.6084" font-weight="normal">
                        <tspan x="141.7144" y="306.9142">Healthplus</tspan>
                    </text>
                    <g transform="translate(3.000000, 156.000000)" fill="#6D6E71" fill-rule="nonzero">
                        <g>
                            <path d="M1.2,12.8 C1.1,12.8 1,12.8 0.9,12.7 C0.8,12.6 0.8,12.5 0.8,12.4 L0.8,1.1 C0.8,1 0.8,0.9 0.9,0.8 C1,0.7 1.1,0.7 1.2,0.7 C1.3,0.7 1.4,0.7 1.5,0.8 C1.6,0.9 1.6,1 1.6,1.1 L1.6,6.3 L9.5,6.3 L9.5,1.1 C9.5,1 9.5,0.9 9.6,0.8 C9.7,0.7 9.8,0.7 9.9,0.7 C10,0.7 10.1,0.7 10.2,0.8 C10.3,0.9 10.3,1 10.3,1.1 L10.3,12.4 C10.3,12.5 10.3,12.6 10.2,12.7 C10.1,12.8 10,12.8 9.9,12.8 C9.8,12.8 9.7,12.8 9.6,12.7 C9.5,12.6 9.5,12.5 9.5,12.4 L9.5,7.1 L1.7,7.1 L1.7,12.4 C1.7,12.5 1.7,12.6 1.6,12.7 C1.5,12.8 1.4,12.8 1.2,12.8 Z" id="Path"></path>
                            <path d="M16,12.9 C15.2,12.9 14.4,12.7 13.8,12.3 C13.2,11.9 12.7,11.4 12.3,10.8 C11.9,10.1 11.8,9.4 11.8,8.6 C11.8,7.7 12,7 12.3,6.3 C12.6,5.7 13.1,5.1 13.7,4.8 C14.3,4.4 15,4.2 15.8,4.2 C16.6,4.2 17.3,4.4 17.8,4.7 C18.4,5.1 18.9,5.6 19.2,6.2 C19.5,6.8 19.7,7.6 19.7,8.4 C19.7,8.5 19.7,8.6 19.6,8.7 C19.5,8.8 19.4,8.8 19.3,8.8 L12.4,8.8 L12.4,8 L19.5,8 L18.8,8.5 C18.8,7.8 18.7,7.2 18.5,6.7 C18.3,6.2 17.9,5.8 17.4,5.5 C16.9,5.2 16.4,5.1 15.8,5.1 C15.2,5.1 14.7,5.2 14.2,5.5 C13.7,5.8 13.4,6.2 13.1,6.7 C12.8,7.2 12.7,7.8 12.7,8.5 C12.7,9.2 12.8,9.8 13.1,10.3 C13.4,10.8 13.8,11.2 14.3,11.5 C14.8,11.8 15.4,11.9 16,11.9 C16.4,11.9 16.8,11.8 17.2,11.7 C17.6,11.6 17.9,11.4 18.2,11.1 C18.3,11 18.4,11 18.5,11 C18.6,11 18.7,11 18.8,11.1 C18.9,11.2 19,11.3 19,11.4 C19,11.5 19,11.6 18.9,11.7 C18.6,12 18.1,12.3 17.6,12.4 C17,12.8 16.5,12.9 16,12.9 Z" id="Path"></path>
                            <path d="M25,12.9 C24.2,12.9 23.4,12.7 22.8,12.3 C22.2,11.9 21.6,11.4 21.2,10.7 C20.8,10 20.6,9.3 20.6,8.5 C20.6,7.7 20.8,6.9 21.2,6.3 C21.6,5.6 22.1,5.1 22.8,4.7 C23.5,4.3 24.2,4.1 25,4.1 C25.8,4.1 26.6,4.3 27.2,4.7 C27.9,5.1 28.4,5.6 28.8,6.3 C29.2,7 29.4,7.7 29.4,8.5 L29,9.1 C29,9.8 28.8,10.4 28.5,11 C28.2,11.6 27.7,12 27.1,12.3 C26.5,12.6 25.8,12.9 25,12.9 Z M25,12 C25.7,12 26.2,11.8 26.8,11.5 C27.4,11.2 27.7,10.8 28,10.3 C28.3,9.8 28.4,9.2 28.4,8.5 C28.4,7.8 28.3,7.2 28,6.7 C27.7,6.2 27.3,5.8 26.8,5.5 C26.3,5.2 25.7,5 25,5 C24.4,5 23.8,5.2 23.3,5.5 C22.8,5.8 22.4,6.2 22.1,6.7 C21.8,7.2 21.6,7.8 21.6,8.5 C21.6,9.2 21.8,9.7 22.1,10.3 C22.4,10.8 22.8,11.2 23.3,11.5 C23.8,11.8 24.4,12 25,12 Z M28.9,12.8 C28.8,12.8 28.7,12.8 28.6,12.7 C28.5,12.6 28.5,12.5 28.5,12.4 L28.5,9.5 L28.8,8.6 L29.4,8.6 L29.4,12.4 C29.4,12.5 29.4,12.6 29.3,12.7 C29.2,12.8 29,12.8 28.9,12.8 Z" id="Shape"></path>
                            <path d="M33,12.8 C32.6,12.8 32.3,12.7 31.9,12.5 C31.6,12.3 31.4,12 31.2,11.6 C31,11.2 30.9,10.8 30.9,10.3 L30.9,1.2 C30.9,1.1 30.9,0.9 31,0.9 C31.1,0.8 31.2,0.8 31.3,0.8 C31.4,0.8 31.6,0.8 31.6,0.9 C31.7,1 31.7,1.1 31.7,1.2 L31.7,10.3 C31.7,10.8 31.8,11.2 32,11.5 C32.2,11.8 32.5,12 32.8,12 L33.2,12 C33.3,12 33.4,12 33.5,12.1 C33.6,12.2 33.6,12.3 33.6,12.4 C33.6,12.5 33.6,12.6 33.5,12.7 C33.4,12.8 33.3,12.8 33.2,12.8 L33,12.8 L33,12.8 Z" id="Path"></path>
                            <path d="M33.7,5.4 C33.6,5.4 33.5,5.4 33.4,5.3 C33.3,5.2 33.3,5.1 33.3,5 C33.3,4.9 33.3,4.8 33.4,4.7 C33.5,4.6 33.6,4.6 33.7,4.6 L37.9,4.6 C38,4.6 38.1,4.6 38.2,4.7 C38.3,4.8 38.3,4.9 38.3,5 C38.3,5.1 38.3,5.2 38.2,5.3 C38.1,5.4 38,5.4 37.9,5.4 L33.7,5.4 Z M37.8,12.8 C37.2,12.8 36.7,12.7 36.3,12.4 C35.9,12.1 35.5,11.8 35.3,11.3 C35.1,10.8 34.9,10.3 34.9,9.8 L34.9,2 C34.9,1.9 34.9,1.7 35,1.6 C35.1,1.5 35.2,1.5 35.3,1.5 C35.4,1.5 35.6,1.5 35.7,1.6 C35.8,1.7 35.8,1.8 35.8,2 L35.8,9.8 C35.8,10.4 36,10.9 36.4,11.3 C36.8,11.7 37.3,11.9 37.9,11.9 L38.2,11.9 C38.3,11.9 38.5,11.9 38.6,12 C38.7,12.1 38.7,12.2 38.7,12.4 C38.7,12.5 38.7,12.6 38.6,12.7 C38.5,12.8 38.4,12.8 38.2,12.8 L37.8,12.8 Z" id="Shape"></path>
                            <path d="M40.5,9.1 C40.4,9.1 40.3,9.1 40.2,9 C40.1,8.9 40.1,8.8 40.1,8.7 L40.1,1.2 C40.1,1.1 40.1,0.9 40.2,0.9 C40.3,0.8 40.4,0.8 40.5,0.8 C40.6,0.8 40.8,0.8 40.8,0.9 C40.9,1 40.9,1.1 40.9,1.2 L40.9,8.7 C40.9,8.8 40.9,8.9 40.8,9 C40.8,9 40.6,9.1 40.5,9.1 Z M40.5,12.8 C40.4,12.8 40.3,12.8 40.2,12.7 C40.1,12.6 40.1,12.5 40.1,12.4 L40.1,4.8 C40.1,4.7 40.1,4.5 40.2,4.5 C40.3,4.4 40.4,4.4 40.5,4.4 C40.6,4.4 40.8,4.4 40.8,4.5 C40.9,4.6 40.9,4.7 40.9,4.8 L40.9,12.4 C40.9,12.5 40.9,12.6 40.8,12.7 C40.8,12.8 40.6,12.8 40.5,12.8 Z M47.4,12.8 C47.3,12.8 47.2,12.8 47.1,12.7 C47,12.6 47,12.5 47,12.4 L47,8.2 C47,7.5 46.9,6.9 46.6,6.5 C46.3,6.1 46,5.7 45.5,5.5 C45,5.3 44.5,5.2 44,5.2 C43.4,5.2 42.9,5.3 42.5,5.5 C42.1,5.7 41.7,6 41.4,6.4 C41.1,6.8 41,7.2 41,7.7 L40.2,7.7 C40.2,7.1 40.4,6.5 40.8,6 C41.1,5.5 41.6,5.1 42.1,4.8 C42.7,4.5 43.3,4.4 43.9,4.4 C44.6,4.4 45.3,4.6 45.9,4.9 C46.5,5.2 47,5.7 47.3,6.2 C47.6,6.7 47.8,7.5 47.8,8.4 L47.8,12.6 C47.8,12.7 47.8,12.8 47.7,12.9 C47.7,12.8 47.5,12.8 47.4,12.8 Z" id="Shape"></path>
                        </g>
                        <g transform="translate(49.000000, 0.000000)">
                            <path d="M1.4,16.4 C1.2,16.4 1,16.3 0.8,16.2 C0.6,16.1 0.6,15.9 0.6,15.6 L0.6,8.4 C0.6,7.6 0.8,6.8 1.2,6.2 C1.6,5.6 2.1,5 2.7,4.6 C3.3,4.2 4.1,4 4.9,4 C5.7,4 6.5,4.2 7.1,4.6 C7.7,5 8.3,5.5 8.6,6.2 C9,6.9 9.2,7.6 9.2,8.4 C9.2,9.2 9,10 8.7,10.6 C8.3,11.3 7.9,11.8 7.3,12.2 C6.7,12.6 6,12.8 5.2,12.8 C4.6,12.8 4,12.7 3.5,12.4 C3,12.1 2.5,11.8 2.2,11.4 L2.2,15.6 C2.2,15.8 2.1,16 2,16.2 C1.8,16.4 1.6,16.4 1.4,16.4 Z M4.9,11.4 C5.4,11.4 5.9,11.3 6.3,11 C6.7,10.7 7.1,10.4 7.3,9.9 C7.5,9.5 7.7,9 7.7,8.4 C7.7,7.8 7.6,7.3 7.3,6.9 C7,6.5 6.7,6.1 6.3,5.8 C5.9,5.5 5.4,5.4 4.9,5.4 C4.4,5.4 3.9,5.5 3.5,5.8 C3.1,6.1 2.7,6.4 2.5,6.9 C2.3,7.3 2.1,7.9 2.1,8.4 C2.1,9 2.2,9.5 2.5,9.9 C2.7,10.3 3.1,10.7 3.5,11 C3.9,11.3 4.4,11.4 4.9,11.4 Z" id="Shape"></path>
                            <path d="M12.8,12.8 C12.3,12.8 11.9,12.7 11.6,12.4 C11.2,12.1 11,11.8 10.8,11.4 C10.6,11 10.5,10.5 10.5,9.9 L10.5,1.3 C10.5,1.1 10.6,0.9 10.7,0.7 C10.8,0.6 11,0.5 11.3,0.5 C11.5,0.5 11.7,0.6 11.9,0.7 C12,0.8 12.1,1 12.1,1.3 L12.1,9.9 C12.1,10.3 12.2,10.6 12.3,10.9 C12.4,11.2 12.6,11.3 12.9,11.3 L13.3,11.3 C13.5,11.3 13.7,11.4 13.8,11.5 C13.9,11.6 14,11.8 14,12.1 C14,12.4 13.9,12.5 13.7,12.7 C13.4,12.7 13.1,12.8 12.8,12.8 L12.8,12.8 Z" id="Path"></path>
                            <path d="M18.2,12.8 C17.5,12.8 16.8,12.6 16.3,12.3 C15.7,12 15.3,11.5 14.9,10.9 C14.6,10.3 14.4,9.6 14.4,8.7 L14.4,5 C14.4,4.8 14.5,4.6 14.6,4.4 C14.8,4.2 14.9,4.2 15.2,4.2 C15.4,4.2 15.6,4.3 15.8,4.4 C16,4.6 16,4.7 16,5 L16,8.9 C16,9.5 16.1,10 16.3,10.4 C16.5,10.8 16.8,11.1 17.2,11.2 C17.6,11.3 18,11.5 18.5,11.5 C19,11.5 19.4,11.4 19.7,11.2 C20.1,11 20.3,10.8 20.5,10.5 C20.7,10.2 20.8,9.9 20.8,9.5 L21.8,9.5 C21.8,10.1 21.6,10.7 21.3,11.3 C21,11.8 20.5,12.2 20,12.5 C19.5,12.8 18.9,12.8 18.2,12.8 Z M21.7,12.8 C21.5,12.8 21.3,12.7 21.1,12.6 C20.9,12.4 20.9,12.3 20.9,12 L20.9,5 C20.9,4.8 21,4.6 21.1,4.4 C21.3,4.3 21.4,4.2 21.7,4.2 C21.9,4.2 22.1,4.3 22.3,4.4 C22.4,4.5 22.5,4.7 22.5,5 L22.5,12 C22.5,12.2 22.4,12.4 22.3,12.6 C22.1,12.7 21.9,12.8 21.7,12.8 Z" id="Shape"></path>
                            <path d="M27.3,12.8 C26.6,12.8 25.9,12.7 25.3,12.5 C24.7,12.3 24.2,12 23.8,11.6 C23.6,11.4 23.6,11.2 23.6,11 C23.6,10.8 23.7,10.6 23.9,10.5 C24.1,10.3 24.3,10.3 24.5,10.3 C24.7,10.3 24.9,10.4 25,10.6 C25.2,10.8 25.5,11 25.9,11.2 C26.3,11.4 26.7,11.5 27.2,11.5 C27.8,11.5 28.3,11.4 28.6,11.2 C28.9,11 29.1,10.7 29.1,10.4 C29.1,10.1 29,9.8 28.7,9.6 C28.4,9.4 27.8,9.2 27,9 C25.9,8.8 25.2,8.5 24.7,8.1 C24.2,7.7 24,7.2 24,6.6 C24,6.1 24.2,5.6 24.5,5.3 C24.8,4.9 25.2,4.7 25.7,4.5 C26.2,4.3 26.7,4.2 27.2,4.2 C27.9,4.2 28.5,4.3 29,4.5 C29.5,4.7 30,5 30.3,5.4 C30.4,5.6 30.5,5.7 30.5,5.9 C30.5,6.1 30.4,6.2 30.2,6.4 C30,6.5 29.8,6.6 29.6,6.5 C29.4,6.5 29.2,6.4 29,6.2 C28.7,5.9 28.5,5.8 28.2,5.7 C27.9,5.6 27.5,5.6 27.1,5.6 C26.6,5.6 26.2,5.7 25.9,5.8 C25.6,5.9 25.4,6.2 25.4,6.5 C25.4,6.7 25.4,6.9 25.5,7 C25.6,7.2 25.8,7.3 26.1,7.4 C26.4,7.5 26.8,7.6 27.4,7.8 C28.2,8 28.8,8.2 29.3,8.4 C29.8,8.6 30.1,8.9 30.3,9.2 C30.5,9.5 30.6,9.9 30.6,10.3 C30.6,10.8 30.5,11.2 30.2,11.6 C29.9,12 29.6,12.3 29.1,12.5 C28.7,12.7 28.1,12.8 27.3,12.8 Z" id="Path"></path>
                        </g>
                    </g>
                    <g transform="translate(83.000000, 157.000000)" fill="#6D6E71" fill-rule="nonzero">
                        <g transform="translate(0.000000, 3.000000)">
                            <circle id="Oval" cx="1.8" cy="1.9" r="1.6"></circle>
                            <rect id="Rectangle" x="1.8" y="0.3" width="1.6" height="3.1"></rect>
                        </g>
                        <g transform="translate(3.000000, 0.000000)">
                            <circle id="Oval" cx="1.9" cy="1.8" r="1.6"></circle>
                            <rect id="Rectangle" transform="translate(1.869700, 2.568800) rotate(90.000000) translate(-1.869700, -2.568800) " x="1.0697" y="1.0188" width="1.6" height="3.1"></rect>
                        </g>
                        <g transform="translate(3.000000, 6.000000)">
                            <circle id="Oval" cx="1.9" cy="2" r="1.6"></circle>
                            <rect id="Rectangle" transform="translate(1.903800, 1.197100) rotate(-90.000000) translate(-1.903800, -1.197100) " x="1.1038" y="-0.3529" width="1.6" height="3.1"></rect>
                        </g>
                        <g transform="translate(6.000000, 3.000000)">
                            <circle id="Oval" cx="2" cy="1.9" r="1.6"></circle>
                            <rect id="Rectangle" transform="translate(1.238600, 1.905700) rotate(-180.000000) translate(-1.238600, -1.905700) " x="0.4386" y="0.3557" width="1.6" height="3.1"></rect>
                        </g>
                    </g>
                    <rect id="Rectangle" fill="#FFFFFF" fill-rule="nonzero" x="80.8" y="231.8" width="6.1" height="6.1"></rect>
                    <path d="M83.8,237 C84.7,236.5 85.7,235.4 85.7,235.4 C85.7,235.4 86.4,234.5 86.3,233.6 C86.1,232.5 85.2,232.6 85.2,232.6 L85.2,232.6 C84.3,232.6 83.9,233.4 83.9,233.4 L83.9,233.4 C83.9,233.4 83.5,232.6 82.6,232.6 L82.6,232.6 C82.6,232.6 81.7,232.5 81.5,233.6 C81.3,234.5 82.1,235.4 82.1,235.4 C82.1,235.4 82.9,236.5 83.8,237 L83.8,237 Z" id="Path" fill="#231F20" fill-rule="nonzero"></path>
                    <path d="M47.6,268.1 L47.6,265.5 C47.6,263.9 46.3,262.6 44.7,262.6 C43.1,262.6 41.8,263.9 41.8,265.1 L41.8,267.7 L41.8,267.9 L39.2,267.9 C37.6,267.9 36.3,269.2 36.3,270.8 C36.3,272.4 37.6,273.7 39.2,273.7 L41.8,273.7 L41.8,274.2 L41.8,276.1 C41.8,277.7 43.1,279 44.7,279 C46.3,279 47.6,277.7 47.6,276.1 L47.6,274.3 L47.6,273.7 L50.2,273.7 C51.8,273.7 53.1,272.4 53.1,270.8 C53.1,269.2 51.8,267.9 50.2,267.9 L49.5,267.9" id="Path" stroke="#00A651" stroke-width="0.7804" stroke-linecap="round" stroke-linejoin="round"></path>
                    <g transform="translate(66.000000, 252.000000)" id="Path" stroke="#00A651" stroke-linecap="round" stroke-linejoin="round">
                        <path d="M22.2,16.1 L22.2,13.5 C22.2,11.9 20.9,10.6 19.3,10.6 C17.7,10.6 16.4,11.9 16.4,13.1 L16.4,15.7 L16.4,15.9 L13.8,15.9 C12.2,15.9 10.9,17.2 10.9,18.8 C10.9,20.4 12.2,21.7 13.8,21.7 L16.4,21.7 L16.4,22.2 L16.4,24.1 C16.4,25.7 17.7,27 19.3,27 C20.9,27 22.2,25.7 22.2,24.1 L22.2,22.3 L22.2,21.7 L24.8,21.7 C26.4,21.7 27.7,20.4 27.7,18.8 C27.7,17.2 26.4,15.9 24.8,15.9 L24.1,15.9" stroke-width="0.7804"></path>
                        <path d="M38,29.2 C38,31.1 36.5,32.6 34.6,32.6 L4,32.6 C2.1,32.6 0.6,31.1 0.6,29.2 L0.6,8.7 C0.6,6.8 2.1,5.3 4,5.3 L34.6,5.3 C36.5,5.3 38,6.8 38,8.7 L38,29.2 Z" stroke-width="0.7514"></path>
                        <path d="M0.7,7.8 C0.7,7.8 0.8,7.2 1,6.5 C1.2,5.8 1.5,4.4 1.9,3.5 L2.4,1.9 C2.7,0.9 3.8,0.1 4.9,0.1 L15.4,0.1 C16.4,0.1 17.5,0.9 17.9,1.9 L19.1,5.2" stroke-width="0.7133"></path>
                    </g>
                    <rect id="Rectangle" fill="#000000" fill-rule="nonzero" x="30.7" y="317.8" width="14" height="14"></rect>
                    <g transform="translate(31.000000, 319.000000)" fill="#FFFFFF" fill-rule="nonzero" id="Rectangle">
                        <rect x="0.8" y="0.1" width="2.7" height="2.6"></rect>
                        <rect x="10" y="0.1" width="2.7" height="2.6"></rect>
                        <rect x="0.8" y="8.9" width="2.7" height="2.6"></rect>
                        <rect x="10" y="8.9" width="2.7" height="2.6"></rect>
                        <g>
                            <rect x="0.8" y="3.4" width="5.3" height="2"></rect>
                            <rect transform="translate(5.166800, 2.728800) rotate(90.000000) translate(-5.166800, -2.728800) " x="2.5168" y="1.7288" width="5.3" height="2"></rect>
                        </g>
                        <g transform="translate(7.000000, 0.000000)">
                            <rect transform="translate(2.975900, 4.405400) rotate(-180.000000) translate(-2.975900, -4.405400) " x="0.325900015" y="3.4054" width="5.3" height="2"></rect>
                            <rect transform="translate(1.313100, 2.682500) rotate(90.000000) translate(-1.313100, -2.682500) " x="-1.3369" y="1.68249999" width="5.3" height="2"></rect>
                        </g>
                        <g transform="translate(0.000000, 6.000000)">
                            <rect x="0.8" y="0.1" width="5.3" height="2"></rect>
                            <rect transform="translate(5.163900, 2.774100) rotate(-90.000000) translate(-5.163900, -2.774100) " x="2.5139" y="1.7741" width="5.3" height="2"></rect>
                        </g>
                        <g transform="translate(7.000000, 6.000000)">
                            <rect transform="translate(2.975900, 1.100400) rotate(180.000000) translate(-2.975900, -1.100400) " x="0.325899985" y="0.100400002" width="5.3" height="2"></rect>
                            <rect transform="translate(1.310200, 2.820400) rotate(-90.000000) translate(-1.310200, -2.820400) " x="-1.3398" y="1.82039998" width="5.3" height="2"></rect>
                        </g>
                    </g>
                </g>
            </g>
        </g>
    </g>
</svg>