<?xml version="1.0" encoding="utf-8"?>
<!-- Generator: Adobe Illustrator 23.0.4, SVG Export Plug-In . SVG Version: 6.00 Build 0)  -->
<svg version="1.1" id="Layer_1" xmlns="http://www.w3.org/2000/svg" xmlns:xlink="http://www.w3.org/1999/xlink" x="0px" y="0px"
	 viewBox="0 0 240 349" style="enable-background:new 0 0 240 349;" xml:space="preserve">
<style type="text/css">
	.st0{fill:#FFFFFF;}
	.st1{fill:#231F20;}
	.st2{fill:#21409A;}
	.st3{fill:none;stroke:#231F20;stroke-width:0.3902;stroke-miterlimit:10;}
	.st4{fill:none;}
	.st5{font-family:'SFProDisplay-Ultralight';}
	.st6{font-size:18.7301px;}
	.st7{font-size:15.6084px;}
	.st8{font-family:'BodegaSans';}
	.st9{font-family:'Oswald-ExtraLight';}
	.st10{font-family:'Oswald-Medium';}
	.st11{font-family:'Raleway-Thin';}
	.st12{font-size:13.6574px;}
	.st13{font-size:9.3651px;}
	.st14{fill:none;stroke:#231F20;stroke-width:2.3413;stroke-linecap:round;stroke-miterlimit:10;}
	.st15{fill:none;stroke:#231F20;stroke-width:0.3902;}
	.st16{font-family:'AGBookRounded-Bold';}
	.st17{opacity:0.64;fill:none;stroke:#006838;stroke-width:2.3413;stroke-linecap:round;stroke-miterlimit:10;}
	.st18{fill:none;stroke:#FFFFFF;stroke-width:2.3413;stroke-miterlimit:10;}
	.st19{opacity:0.61;fill:none;stroke:#2B3990;stroke-width:2.3413;stroke-linecap:round;stroke-miterlimit:10;}
	.st20{fill:none;stroke:#2B3990;stroke-width:2.3413;stroke-linecap:round;stroke-miterlimit:10;}
	.st21{fill:none;stroke:#009444;stroke-width:2.3413;stroke-linecap:round;stroke-miterlimit:10;}
	.st22{fill:#2B3990;}
	.st23{fill:#27AAE1;}
	.st24{fill:#00A79D;}
	.st25{fill:#006838;}
	.st26{fill:#1B75BC;}
	.st27{fill:url(#SVGID_1_);}
	.st28{opacity:0.75;}
	.st29{fill:url(#SVGID_2_);}
	.st30{opacity:0.56;}
	.st31{fill:#2BB673;}
	.st32{fill:url(#SVGID_3_);}
	.st33{fill:url(#SVGID_4_);}
	.st34{fill:url(#SVGID_5_);}
	.st35{fill:url(#SVGID_6_);}
	.st36{fill:url(#SVGID_7_);}
	.st37{fill:none;stroke:#00A651;stroke-width:0.3902;stroke-miterlimit:10;}
	.st38{font-family:'Anton-Regular';}
	.st39{fill:#6D6E71;}
	.st40{fill:url(#SVGID_8_);}
	.st41{fill:url(#SVGID_9_);}
	.st42{fill:url(#SVGID_10_);}
	.st43{fill:url(#SVGID_11_);}
	.st44{fill:#FFFFFF;stroke:#231F20;stroke-width:0.3902;stroke-miterlimit:10;}
	.st45{font-family:'Aleo-Bold';}
	.st46{font-family:'Oxygen-Regular';}
	.st47{font-family:'PoiretOne-Regular';}
	.st48{font-family:'Duepuntozero';}
	.st49{fill:none;stroke:#FFFFFF;stroke-width:1.4138;stroke-miterlimit:10;}
	.st50{fill:none;stroke:#FFFFFF;stroke-width:0.7804;stroke-miterlimit:10;}
	.st51{fill:none;stroke:#FFFFFF;stroke-width:0.6594;stroke-miterlimit:10;}
	.st52{fill:none;stroke:#00A651;stroke-width:0.7804;stroke-linecap:round;stroke-linejoin:round;stroke-miterlimit:10;}
	.st53{fill:none;stroke:#00A651;stroke-width:0.7514;stroke-linecap:round;stroke-linejoin:round;stroke-miterlimit:10;}
	.st54{fill:none;stroke:#00A651;stroke-width:0.7133;stroke-linecap:round;stroke-linejoin:round;stroke-miterlimit:10;}
	.st55{fill:none;stroke:#231F20;stroke-miterlimit:10;}
	.st56{fill:none;stroke:#231F20;stroke-width:6;stroke-linecap:round;stroke-miterlimit:10;}
	.st57{opacity:0.64;fill:none;stroke:#006838;stroke-width:6;stroke-linecap:round;stroke-miterlimit:10;}
	.st58{fill:none;stroke:#FFFFFF;stroke-width:6;stroke-miterlimit:10;}
	.st59{opacity:0.61;fill:none;stroke:#2B3990;stroke-width:6;stroke-linecap:round;stroke-miterlimit:10;}
	.st60{fill:none;stroke:#2B3990;stroke-width:6;stroke-linecap:round;stroke-miterlimit:10;}
	.st61{fill:none;stroke:#009444;stroke-width:6;stroke-linecap:round;stroke-miterlimit:10;}
	.st62{fill:url(#SVGID_12_);}
	.st63{fill:url(#SVGID_13_);}
	.st64{fill:url(#SVGID_14_);}
	.st65{fill:url(#SVGID_15_);}
	.st66{fill:url(#SVGID_16_);}
	.st67{fill:url(#SVGID_17_);}
	.st68{fill:url(#SVGID_18_);}
	.st69{fill:none;stroke:#00A651;stroke-miterlimit:10;}
	.st70{fill:url(#SVGID_19_);}
	.st71{fill:url(#SVGID_20_);}
	.st72{fill:url(#SVGID_21_);}
	.st73{fill:url(#SVGID_22_);}
	.st74{fill:#FFFFFF;stroke:#231F20;stroke-miterlimit:10;}
	.st75{fill:none;stroke:#FFFFFF;stroke-width:3.6231;stroke-miterlimit:10;}
	.st76{fill:none;stroke:#FFFFFF;stroke-width:2;stroke-miterlimit:10;}
	.st77{fill:none;stroke:#FFFFFF;stroke-width:1.6898;stroke-miterlimit:10;}
	.st78{fill:none;stroke:#00A651;stroke-width:2;stroke-linecap:round;stroke-linejoin:round;stroke-miterlimit:10;}
	.st79{fill:none;stroke:#00A651;stroke-width:1.9257;stroke-linecap:round;stroke-linejoin:round;stroke-miterlimit:10;}
	.st80{fill:none;stroke:#00A651;stroke-width:1.8279;stroke-linecap:round;stroke-linejoin:round;stroke-miterlimit:10;}
	.st81{fill:none;stroke:#231F20;stroke-width:1.688;stroke-linecap:round;stroke-linejoin:round;stroke-miterlimit:10;}
	.st82{fill:none;stroke:#231F20;stroke-width:0.4069;stroke-miterlimit:10;}
	.st83{fill:#FFFFFF;stroke:#231F20;stroke-width:0.4069;stroke-miterlimit:10;}
	.st84{fill:none;stroke:#231F20;stroke-width:0.6868;stroke-linecap:round;stroke-linejoin:round;stroke-miterlimit:10;}
	.st85{fill:none;stroke:#4B4B4B;stroke-miterlimit:10;}
	.st86{fill:#7878B9;}
	.st87{fill:#0997A6;}
</style>
<rect y="0.1" class="st0" width="240" height="348.8"/>
<g>
	<circle class="st1" cx="64.8" cy="219.3" r="9.2"/>
	<rect x="99.7" y="90.9" class="st2" width="18.1" height="17.4"/>
	<g>
		<path class="st0" d="M190.8,100c0,0.8-0.6,1.4-1.4,1.4h-7.3c-0.8,0-1.4-0.6-1.4-1.4V87.8c0-0.8,0.6-1.4,1.4-1.4h7.3
			c0.8,0,1.4,0.6,1.4,1.4V100z"/>
		<path class="st3" d="M190.8,100c0,0.8-0.6,1.4-1.4,1.4h-7.3c-0.8,0-1.4-0.6-1.4-1.4V87.8c0-0.8,0.6-1.4,1.4-1.4h7.3
			c0.8,0,1.4,0.6,1.4,1.4V100z"/>
	</g>
	<rect x="61.9" y="81.7" class="st1" width="9.4" height="9.4"/>
	<rect x="6.7" y="37.8" class="st4" width="48.8" height="19.2"/>
	<text transform="matrix(1 0 0 1 6.7212 51.0446)" class="st1 st5 st6">Health</text>
	<rect x="90.8" y="45.7" class="st4" width="51.5" height="19.2"/>
	<text transform="matrix(1 0 0 1 90.7886 56.7286)" class="st1 st5 st7">HEALT</text>
	<rect x="107.3" y="69.3" class="st4" width="29.2" height="19.2"/>
	<text transform="matrix(1 0 0 1 107.2896 81.3683)" class="st1 st8 st7">HEALTH</text>
	<rect x="146" y="63.1" class="st4" width="62.4" height="19.2"/>
	<text transform="matrix(1 0 0 1 145.9956 75.7145)"><tspan x="0" y="0" class="st1 st9 st7">HEALTH</tspan><tspan x="42.6" y="0" class="st1 st10 st7">log</tspan></text>
	<rect x="135.1" y="20.6" class="st4" width="54.6" height="19.2"/>
	<text transform="matrix(1 0 0 1 135.0523 30.5836)" class="st1 st11 st12">HEALTH</text>
	<rect x="206.2" y="11.1" class="st4" width="19.2" height="11.4"/>
	<text transform="matrix(1 0 0 1 206.2193 18.714)" class="st1 st10 st13">log</text>
	<rect x="7.9" y="19.3" class="st4" width="48.7" height="19.2"/>
	<text transform="matrix(1 0 0 1 7.9185 32.4479)" class="st1 st5 st6">Health</text>
	<rect x="55.5" y="41.6" class="st1" width="9.4" height="9.4"/>
	<g>
		<rect x="59.8" y="41.5" class="st0" width="0.7" height="9.7"/>
		
			<rect x="59.8" y="41.5" transform="matrix(-1.836970e-16 1 -1 -1.836970e-16 106.4718 -13.8928)" class="st0" width="0.7" height="9.7"/>
	</g>
	<g>
		<rect x="81.4" y="28.9" width="0.7" height="9.7"/>
		<rect x="81.4" y="28.9" transform="matrix(-1.836970e-16 1 -1 -1.836970e-16 115.4101 -48.018)" width="0.7" height="9.7"/>
	</g>
	<g>
		<line class="st14" x1="53" y1="27.8" x2="60.1" y2="27.8"/>
		<line class="st14" x1="56.5" y1="31.2" x2="56.5" y2="24.1"/>
	</g>
	<rect x="7.9" y="55.3" class="st4" width="58.7" height="19.2"/>
	<text transform="matrix(1 0 0 1 7.9185 68.7716)" class="st15 st16 st6">Health</text>
	<g>
		<line class="st14" x1="63.1" y1="63.9" x2="70.1" y2="63.9"/>
		<line class="st14" x1="66.6" y1="67.3" x2="66.6" y2="60.2"/>
	</g>
	<line class="st17" x1="147.1" y1="54.5" x2="147.1" y2="47.4"/>
	<g>
		<line class="st18" x1="63.1" y1="86.5" x2="70.1" y2="86.5"/>
		<line class="st18" x1="66.6" y1="89.9" x2="66.6" y2="82.8"/>
	</g>
	<line class="st19" x1="143.6" y1="51.1" x2="150.7" y2="51.1"/>
	<g>
		<line class="st20" x1="133.7" y1="38.6" x2="135.2" y2="38.6"/>
		<line class="st21" x1="135.8" y1="38.6" x2="137.3" y2="38.6"/>
		<rect x="134.5" y="37.4" class="st22" width="1.2" height="2.3"/>
	</g>
	<g>
		<line class="st20" x1="135.5" y1="40.2" x2="135.5" y2="38.7"/>
		<line class="st21" x1="135.5" y1="38.2" x2="135.5" y2="36.6"/>
		
			<rect x="134.9" y="37.7" transform="matrix(4.260953e-11 -1 1 4.260953e-11 96.6065 174.3872)" class="st22" width="1.2" height="2.3"/>
	</g>
	<g>
		<circle class="st23" cx="150.2" cy="90.9" r="3.1"/>
		<rect x="150.2" y="87.8" class="st23" width="3.1" height="6.1"/>
	</g>
	<g>
		<circle class="st23" cx="156.4" cy="84.8" r="3.1"/>
		
			<rect x="154.8" y="83.2" transform="matrix(-1.836970e-16 1 -1 -1.836970e-16 242.6654 -70.0724)" class="st23" width="3.1" height="6.1"/>
	</g>
	<g>
		<circle class="st23" cx="156.4" cy="97" r="3.1"/>
		
			<rect x="154.8" y="92.4" transform="matrix(6.123234e-17 -1 1 6.123234e-17 60.8955 251.8424)" class="st23" width="3.1" height="6.1"/>
	</g>
	<g>
		<circle class="st23" cx="162.5" cy="90.9" r="3.1"/>
		
			<rect x="159.4" y="87.8" transform="matrix(-1 -1.224647e-16 1.224647e-16 -1 321.9348 181.75)" class="st23" width="3.1" height="6.1"/>
	</g>
	<g>
		<circle class="st23" cx="192.5" cy="46.4" r="1.2"/>
		<rect x="192.5" y="45.2" class="st23" width="1.2" height="2.3"/>
	</g>
	<g>
		<circle class="st24" cx="194.9" cy="44.1" r="1.2"/>
		
			<rect x="194.3" y="43.5" transform="matrix(-1.836970e-16 1 -1 -1.836970e-16 239.4836 -150.2169)" class="st24" width="1.2" height="2.3"/>
	</g>
	<g>
		<circle class="st25" cx="194.9" cy="48.7" r="1.2"/>
		
			<rect x="194.3" y="46.9" transform="matrix(6.123234e-17 -1 1 6.123234e-17 146.7398 242.9607)" class="st25" width="1.2" height="2.3"/>
	</g>
	<g>
		<circle class="st26" cx="197.2" cy="46.4" r="1.2"/>
		
			<rect x="196" y="45.2" transform="matrix(-1 -1.224647e-16 1.224647e-16 -1 393.1851 92.7363)" class="st26" width="1.2" height="2.3"/>
	</g>
	<circle class="st23" cx="187.9" cy="55.3" r="1.2"/>
	<g>
		<circle class="st24" cx="190.2" cy="53" r="1.2"/>
		
			<rect x="189.6" y="52.4" transform="matrix(-1.836970e-16 1 -1 -1.836970e-16 243.8078 -136.6002)" class="st24" width="1.2" height="2.3"/>
	</g>
	<g>
		<circle class="st25" cx="190.2" cy="57.7" r="1.2"/>
		
			<rect x="189.6" y="55.9" transform="matrix(6.123234e-17 -1 1 6.123234e-17 133.1231 247.2849)" class="st25" width="1.2" height="2.3"/>
	</g>
	<g>
		<circle class="st26" cx="192.5" cy="55.3" r="1.2"/>
	</g>
	<linearGradient id="SVGID_1_" gradientUnits="userSpaceOnUse" x1="187.8809" y1="55.3386" x2="192.5271" y2="55.3386">
		<stop  offset="5.220734e-02" style="stop-color:#27AAE1"/>
		<stop  offset="1" style="stop-color:#1B75BC"/>
	</linearGradient>
	<rect x="187.9" y="54.2" class="st27" width="4.6" height="2.3"/>
	<g>
		<g class="st28">
			<circle class="st23" cx="176" cy="55.3" r="1.2"/>
			<g>
				<circle class="st26" cx="180.7" cy="55.3" r="1.2"/>
			</g>
			<linearGradient id="SVGID_2_" gradientUnits="userSpaceOnUse" x1="176.0112" y1="55.3386" x2="180.6575" y2="55.3386">
				<stop  offset="5.220734e-02" style="stop-color:#27AAE1"/>
				<stop  offset="1" style="stop-color:#1B75BC"/>
			</linearGradient>
			<rect x="176" y="54.2" class="st29" width="4.6" height="2.3"/>
		</g>
		<g class="st30">
			<circle class="st31" cx="178.3" cy="53.1" r="1.2"/>
			<g>
				<circle class="st25" cx="178.3" cy="57.8" r="1.2"/>
			</g>
			
				<linearGradient id="SVGID_3_" gradientUnits="userSpaceOnUse" x1="383.8456" y1="419.915" x2="388.4919" y2="419.915" gradientTransform="matrix(0 1 -1 0 598.2493 -330.7318)">
				<stop  offset="5.220734e-02" style="stop-color:#2BB673"/>
				<stop  offset="1" style="stop-color:#006838"/>
			</linearGradient>
			<polygon class="st32" points="177.2,57.8 177.2,53.1 179.5,53.1 179.5,57.8 			"/>
		</g>
	</g>
	<g>
		<g class="st28">
			<circle class="st23" cx="9.2" cy="108.1" r="2.2"/>
			<g>
				<circle class="st26" cx="17.9" cy="108.1" r="2.2"/>
			</g>
			<linearGradient id="SVGID_4_" gradientUnits="userSpaceOnUse" x1="9.219" y1="108.1259" x2="17.8896" y2="108.1259">
				<stop  offset="5.220734e-02" style="stop-color:#27AAE1"/>
				<stop  offset="1" style="stop-color:#1B75BC"/>
			</linearGradient>
			<rect x="9.2" y="106" class="st33" width="8.7" height="4.3"/>
		</g>
		<g class="st30">
			<circle class="st31" cx="13.6" cy="104" r="2.2"/>
			<g>
				<circle class="st25" cx="13.6" cy="112.6" r="2.2"/>
			</g>
			
				<linearGradient id="SVGID_5_" gradientUnits="userSpaceOnUse" x1="434.7059" y1="584.695" x2="443.3766" y2="584.695" gradientTransform="matrix(0 1 -1 0 598.2493 -330.7318)">
				<stop  offset="5.220734e-02" style="stop-color:#2BB673"/>
				<stop  offset="1" style="stop-color:#006838"/>
			</linearGradient>
			<polygon class="st34" points="11.4,112.6 11.4,104 15.7,104 15.7,112.6 			"/>
		</g>
	</g>
	<g>
		<g class="st28">
			<circle class="st23" cx="26" cy="108.3" r="2.2"/>
			<g>
				<circle class="st26" cx="34.7" cy="108.3" r="2.2"/>
			</g>
			<linearGradient id="SVGID_6_" gradientUnits="userSpaceOnUse" x1="26.0263" y1="108.3093" x2="34.6969" y2="108.3093">
				<stop  offset="5.220734e-02" style="stop-color:#27AAE1"/>
				<stop  offset="1" style="stop-color:#1B75BC"/>
			</linearGradient>
			<rect x="26" y="106.1" class="st35" width="8.7" height="4.3"/>
		</g>
		<g class="st30">
			<circle class="st31" cx="30.4" cy="104.2" r="2.2"/>
			<g>
				<circle class="st25" cx="30.4" cy="112.8" r="2.2"/>
			</g>
			
				<linearGradient id="SVGID_7_" gradientUnits="userSpaceOnUse" x1="434.8893" y1="567.8878" x2="443.5599" y2="567.8878" gradientTransform="matrix(0 1 -1 0 598.2493 -330.7318)">
				<stop  offset="5.220734e-02" style="stop-color:#2BB673"/>
				<stop  offset="1" style="stop-color:#006838"/>
			</linearGradient>
			<polygon class="st36" points="28.2,112.8 28.2,104.2 32.5,104.2 32.5,112.8 			"/>
		</g>
	</g>
	<g>
		<circle class="st37" cx="22" cy="279.7" r="2.9"/>
		<g>
			<circle class="st37" cx="33.5" cy="279.7" r="2.9"/>
		</g>
		<rect x="22" y="276.9" class="st37" width="11.5" height="5.7"/>
	</g>
	<g>
		<circle class="st37" cx="27.7" cy="274.2" r="2.9"/>
		<g>
			<circle class="st37" cx="27.7" cy="285.7" r="2.9"/>
		</g>
		
			<rect x="22" y="277.1" transform="matrix(-1.836970e-16 1 -1 -1.836970e-16 307.7076 252.2425)" class="st37" width="11.5" height="5.7"/>
	</g>
	<rect x="158.5" y="323.6" class="st4" width="70.4" height="19.2"/>
	<text transform="matrix(1 0 0 1 158.4673 337.0831)" class="st1 st38 st7">Healthplus</text>
	<g>
		<g>
			<path class="st39" d="M7.8,154.6c-0.1,0-0.2,0-0.3-0.1c-0.1-0.1-0.1-0.2-0.1-0.3v-11.3c0-0.1,0-0.2,0.1-0.3
				c0.1-0.1,0.2-0.1,0.3-0.1c0.1,0,0.2,0,0.3,0.1c0.1,0.1,0.1,0.2,0.1,0.3v5.2h7.9v-5.2c0-0.1,0-0.2,0.1-0.3
				c0.1-0.1,0.2-0.1,0.3-0.1c0.1,0,0.2,0,0.3,0.1c0.1,0.1,0.1,0.2,0.1,0.3v11.3c0,0.1,0,0.2-0.1,0.3c-0.1,0.1-0.2,0.1-0.3,0.1
				c-0.1,0-0.2,0-0.3-0.1c-0.1-0.1-0.1-0.2-0.1-0.3v-5.3H8.3v5.3c0,0.1,0,0.2-0.1,0.3C8.1,154.5,8,154.6,7.8,154.6z"/>
			<path class="st39" d="M22.6,154.7c-0.8,0-1.6-0.2-2.2-0.6c-0.6-0.4-1.1-0.9-1.5-1.5c-0.4-0.7-0.5-1.4-0.5-2.2
				c0-0.9,0.2-1.6,0.5-2.3c0.3-0.6,0.8-1.2,1.4-1.5c0.6-0.4,1.3-0.6,2.1-0.6c0.8,0,1.5,0.2,2,0.5c0.6,0.4,1.1,0.9,1.4,1.5
				c0.3,0.6,0.5,1.4,0.5,2.2c0,0.1,0,0.2-0.1,0.3c-0.1,0.1-0.2,0.1-0.3,0.1H19v-0.8h7.1l-0.7,0.5c0-0.7-0.1-1.3-0.3-1.8
				c-0.2-0.5-0.6-0.9-1.1-1.2c-0.5-0.3-1-0.4-1.6-0.4c-0.6,0-1.1,0.1-1.6,0.4c-0.5,0.3-0.8,0.7-1.1,1.2c-0.3,0.5-0.4,1.1-0.4,1.8
				c0,0.7,0.1,1.3,0.4,1.8c0.3,0.5,0.7,0.9,1.2,1.2c0.5,0.3,1.1,0.4,1.7,0.4c0.4,0,0.8-0.1,1.2-0.2s0.7-0.3,1-0.6
				c0.1-0.1,0.2-0.1,0.3-0.1s0.2,0,0.3,0.1c0.1,0.1,0.2,0.2,0.2,0.3c0,0.1,0,0.2-0.1,0.3c-0.3,0.3-0.8,0.6-1.3,0.7
				C23.6,154.6,23.1,154.7,22.6,154.7z"/>
			<path class="st39" d="M31.6,154.7c-0.8,0-1.6-0.2-2.2-0.6s-1.2-0.9-1.6-1.6c-0.4-0.7-0.6-1.4-0.6-2.2c0-0.8,0.2-1.6,0.6-2.2
				c0.4-0.7,0.9-1.2,1.6-1.6s1.4-0.6,2.2-0.6c0.8,0,1.6,0.2,2.2,0.6c0.7,0.4,1.2,0.9,1.6,1.6c0.4,0.7,0.6,1.4,0.6,2.2l-0.4,0.6
				c0,0.7-0.2,1.3-0.5,1.9s-0.8,1-1.4,1.3S32.4,154.7,31.6,154.7z M31.6,153.8c0.7,0,1.2-0.2,1.8-0.5s0.9-0.7,1.2-1.2
				c0.3-0.5,0.4-1.1,0.4-1.8c0-0.7-0.1-1.3-0.4-1.8c-0.3-0.5-0.7-0.9-1.2-1.2c-0.5-0.3-1.1-0.5-1.8-0.5c-0.6,0-1.2,0.2-1.7,0.5
				c-0.5,0.3-0.9,0.7-1.2,1.2c-0.3,0.5-0.5,1.1-0.5,1.8c0,0.7,0.2,1.2,0.5,1.8c0.3,0.5,0.7,0.9,1.2,1.2S31,153.8,31.6,153.8z
				 M35.5,154.6c-0.1,0-0.2,0-0.3-0.1c-0.1-0.1-0.1-0.2-0.1-0.3v-2.9l0.3-0.9H36v3.8c0,0.1,0,0.2-0.1,0.3
				C35.7,154.5,35.6,154.6,35.5,154.6z"/>
			<path class="st39" d="M39.6,154.6c-0.4,0-0.7-0.1-1.1-0.3c-0.3-0.2-0.5-0.5-0.7-0.9s-0.3-0.8-0.3-1.3v-9.1c0-0.1,0-0.3,0.1-0.3
				c0.1-0.1,0.2-0.1,0.3-0.1c0.1,0,0.3,0,0.3,0.1c0.1,0.1,0.1,0.2,0.1,0.3v9.1c0,0.5,0.1,0.9,0.3,1.2c0.2,0.3,0.5,0.5,0.8,0.5H40
				c0.1,0,0.2,0,0.3,0.1c0.1,0.1,0.1,0.2,0.1,0.3c0,0.1,0,0.2-0.1,0.3c-0.1,0.1-0.2,0.1-0.3,0.1H39.6z"/>
			<path class="st39" d="M40.3,147.2c-0.1,0-0.2,0-0.3-0.1s-0.1-0.2-0.1-0.3s0-0.2,0.1-0.3c0.1-0.1,0.2-0.1,0.3-0.1h4.2
				c0.1,0,0.2,0,0.3,0.1c0.1,0.1,0.1,0.2,0.1,0.3s0,0.2-0.1,0.3c-0.1,0.1-0.2,0.1-0.3,0.1H40.3z M44.4,154.6c-0.6,0-1.1-0.1-1.5-0.4
				c-0.4-0.3-0.8-0.6-1-1.1c-0.2-0.5-0.4-1-0.4-1.5v-7.8c0-0.1,0-0.3,0.1-0.4s0.2-0.1,0.3-0.1c0.1,0,0.3,0,0.4,0.1s0.1,0.2,0.1,0.4
				v7.8c0,0.6,0.2,1.1,0.6,1.5c0.4,0.4,0.9,0.6,1.5,0.6h0.3c0.1,0,0.3,0,0.4,0.1c0.1,0.1,0.1,0.2,0.1,0.4c0,0.1,0,0.2-0.1,0.3
				c-0.1,0.1-0.2,0.1-0.4,0.1H44.4z"/>
			<path class="st39" d="M47.1,150.8c-0.1,0-0.2,0-0.3-0.1c-0.1-0.1-0.1-0.2-0.1-0.3v-7.5c0-0.1,0-0.3,0.1-0.3
				c0.1-0.1,0.2-0.1,0.3-0.1c0.1,0,0.3,0,0.3,0.1c0.1,0.1,0.1,0.2,0.1,0.3v7.5c0,0.1,0,0.2-0.1,0.3
				C47.3,150.8,47.2,150.8,47.1,150.8z M47.1,154.6c-0.1,0-0.2,0-0.3-0.1c-0.1-0.1-0.1-0.2-0.1-0.3v-7.6c0-0.1,0-0.3,0.1-0.3
				c0.1-0.1,0.2-0.1,0.3-0.1c0.1,0,0.3,0,0.3,0.1c0.1,0.1,0.1,0.2,0.1,0.3v7.6c0,0.1,0,0.2-0.1,0.3
				C47.3,154.5,47.2,154.6,47.1,154.6z M54,154.6c-0.1,0-0.2,0-0.3-0.1c-0.1-0.1-0.1-0.2-0.1-0.3v-4.2c0-0.7-0.1-1.3-0.4-1.7
				c-0.3-0.4-0.6-0.8-1.1-1c-0.5-0.2-1-0.3-1.5-0.3c-0.6,0-1.1,0.1-1.5,0.3c-0.4,0.2-0.8,0.5-1.1,0.9c-0.3,0.4-0.4,0.8-0.4,1.3h-0.8
				c0-0.6,0.2-1.2,0.6-1.7c0.3-0.5,0.8-0.9,1.3-1.2c0.6-0.3,1.2-0.4,1.8-0.4c0.7,0,1.4,0.2,2,0.5c0.6,0.3,1.1,0.8,1.4,1.3
				s0.5,1.3,0.5,2.2v4.2c0,0.1,0,0.2-0.1,0.3C54.2,154.5,54.1,154.6,54,154.6z"/>
		</g>
	</g>
	<g>
		<g>
			<path class="st39" d="M57,158.2c-0.2,0-0.4-0.1-0.6-0.2s-0.2-0.3-0.2-0.6v-7.2c0-0.8,0.2-1.6,0.6-2.2s0.9-1.2,1.5-1.6
				s1.4-0.6,2.2-0.6c0.8,0,1.6,0.2,2.2,0.6c0.6,0.4,1.2,0.9,1.5,1.6c0.4,0.7,0.6,1.4,0.6,2.2s-0.2,1.6-0.5,2.2
				c-0.4,0.7-0.8,1.2-1.4,1.6c-0.6,0.4-1.3,0.6-2.1,0.6c-0.6,0-1.2-0.1-1.7-0.4c-0.5-0.3-1-0.6-1.3-1v4.2c0,0.2-0.1,0.4-0.2,0.6
				C57.4,158.1,57.2,158.2,57,158.2z M60.5,153.2c0.5,0,1-0.1,1.4-0.4c0.4-0.3,0.8-0.6,1-1.1c0.2-0.4,0.4-0.9,0.4-1.5
				c0-0.6-0.1-1.1-0.4-1.5s-0.6-0.8-1-1.1c-0.4-0.3-0.9-0.4-1.4-0.4c-0.5,0-1,0.1-1.4,0.4c-0.4,0.3-0.8,0.6-1,1.1
				c-0.2,0.4-0.4,1-0.4,1.5c0,0.6,0.1,1.1,0.4,1.5c0.2,0.4,0.6,0.8,1,1.1C59.5,153,60,153.2,60.5,153.2z"/>
			<path class="st39" d="M68.4,154.5c-0.5,0-0.9-0.1-1.2-0.4c-0.4-0.3-0.6-0.6-0.8-1c-0.2-0.4-0.3-0.9-0.3-1.5V143
				c0-0.2,0.1-0.4,0.2-0.6c0.1-0.1,0.3-0.2,0.6-0.2c0.2,0,0.4,0.1,0.6,0.2c0.1,0.1,0.2,0.3,0.2,0.6v8.6c0,0.4,0.1,0.7,0.2,1
				c0.1,0.3,0.3,0.4,0.6,0.4h0.4c0.2,0,0.4,0.1,0.5,0.2s0.2,0.3,0.2,0.6s-0.1,0.4-0.3,0.6C69,154.4,68.7,154.5,68.4,154.5
				L68.4,154.5z"/>
			<path class="st39" d="M73.8,154.6c-0.7,0-1.4-0.2-1.9-0.5c-0.6-0.3-1-0.8-1.4-1.4c-0.3-0.6-0.5-1.3-0.5-2.2v-3.9
				c0-0.2,0.1-0.4,0.2-0.6c0.2-0.2,0.3-0.2,0.6-0.2c0.2,0,0.4,0.1,0.6,0.2c0.2,0.2,0.2,0.3,0.2,0.6v3.9c0,0.6,0.1,1.1,0.3,1.5
				c0.2,0.4,0.5,0.7,0.9,0.8s0.8,0.3,1.3,0.3c0.5,0,0.9-0.1,1.2-0.3c0.4-0.2,0.6-0.4,0.8-0.7s0.3-0.6,0.3-1h1c0,0.6-0.2,1.2-0.5,1.8
				c-0.3,0.5-0.8,0.9-1.3,1.2S74.5,154.6,73.8,154.6z M77.3,154.5c-0.2,0-0.4-0.1-0.6-0.2c-0.2-0.2-0.2-0.3-0.2-0.6v-7
				c0-0.2,0.1-0.4,0.2-0.6c0.2-0.1,0.3-0.2,0.6-0.2c0.2,0,0.4,0.1,0.6,0.2c0.1,0.1,0.2,0.3,0.2,0.6v7c0,0.2-0.1,0.4-0.2,0.6
				C77.7,154.4,77.5,154.5,77.3,154.5z"/>
			<path class="st39" d="M82.9,154.6c-0.7,0-1.4-0.1-2-0.3s-1.1-0.5-1.5-0.9c-0.2-0.2-0.2-0.4-0.2-0.6c0-0.2,0.1-0.4,0.3-0.5
				c0.2-0.2,0.4-0.2,0.6-0.2c0.2,0,0.4,0.1,0.5,0.3c0.2,0.2,0.5,0.4,0.9,0.6c0.4,0.2,0.8,0.3,1.3,0.3c0.6,0,1.1-0.1,1.4-0.3
				c0.3-0.2,0.5-0.5,0.5-0.8c0-0.3-0.1-0.6-0.4-0.8c-0.3-0.2-0.9-0.4-1.7-0.6c-1.1-0.2-1.8-0.5-2.3-0.9s-0.7-0.9-0.7-1.5
				c0-0.5,0.2-1,0.5-1.3c0.3-0.4,0.7-0.6,1.2-0.8c0.5-0.2,1-0.3,1.5-0.3c0.7,0,1.3,0.1,1.8,0.3c0.5,0.2,1,0.5,1.3,0.9
				c0.1,0.2,0.2,0.3,0.2,0.5c0,0.2-0.1,0.3-0.3,0.5c-0.2,0.1-0.4,0.2-0.6,0.1c-0.2,0-0.4-0.1-0.6-0.3c-0.3-0.3-0.5-0.4-0.8-0.5
				c-0.3-0.1-0.7-0.1-1.1-0.1c-0.5,0-0.9,0.1-1.2,0.2s-0.5,0.4-0.5,0.7c0,0.2,0,0.4,0.1,0.5c0.1,0.2,0.3,0.3,0.6,0.4
				c0.3,0.1,0.7,0.2,1.3,0.4c0.8,0.2,1.4,0.4,1.9,0.6s0.8,0.5,1,0.8c0.2,0.3,0.3,0.7,0.3,1.1c0,0.5-0.1,0.9-0.4,1.3
				c-0.3,0.4-0.6,0.7-1.1,0.9C84.3,154.5,83.7,154.6,82.9,154.6z"/>
		</g>
	</g>
	<g>
		<g class="st28">
			<circle class="st23" cx="216.5" cy="55.2" r="1.2"/>
			<g>
				<circle class="st26" cx="221.2" cy="55.2" r="1.2"/>
			</g>
			<linearGradient id="SVGID_8_" gradientUnits="userSpaceOnUse" x1="216.5205" y1="55.2403" x2="221.1667" y2="55.2403">
				<stop  offset="5.220734e-02" style="stop-color:#27AAE1"/>
				<stop  offset="1" style="stop-color:#1B75BC"/>
			</linearGradient>
			<rect x="216.5" y="54.1" class="st40" width="4.6" height="2.3"/>
		</g>
		<g class="st30">
			<circle class="st31" cx="218.8" cy="53" r="1.2"/>
			<g>
				<circle class="st25" cx="218.8" cy="57.7" r="1.2"/>
			</g>
			
				<linearGradient id="SVGID_9_" gradientUnits="userSpaceOnUse" x1="383.7473" y1="379.4057" x2="388.3935" y2="379.4057" gradientTransform="matrix(0 1 -1 0 598.2493 -330.7318)">
				<stop  offset="5.220734e-02" style="stop-color:#2BB673"/>
				<stop  offset="1" style="stop-color:#006838"/>
			</linearGradient>
			<polygon class="st41" points="217.7,57.7 217.7,53 220,53 220,57.7 			"/>
		</g>
	</g>
	<g>
		<g class="st28">
			<circle class="st23" cx="185.9" cy="25" r="1.5"/>
			<g>
				<circle class="st26" cx="191.9" cy="25" r="1.5"/>
			</g>
			<linearGradient id="SVGID_10_" gradientUnits="userSpaceOnUse" x1="185.8966" y1="24.9883" x2="191.8979" y2="24.9883">
				<stop  offset="5.220734e-02" style="stop-color:#27AAE1"/>
				<stop  offset="1" style="stop-color:#1B75BC"/>
			</linearGradient>
			<rect x="185.9" y="23.5" class="st42" width="6" height="3"/>
		</g>
		<g class="st30">
			<circle class="st31" cx="188.9" cy="22.1" r="1.5"/>
			<g>
				<circle class="st25" cx="188.9" cy="28.1" r="1.5"/>
			</g>
			
				<linearGradient id="SVGID_11_" gradientUnits="userSpaceOnUse" x1="352.8464" y1="409.3521" x2="358.8478" y2="409.3521" gradientTransform="matrix(0 1 -1 0 598.2493 -330.7318)">
				<stop  offset="5.220734e-02" style="stop-color:#2BB673"/>
				<stop  offset="1" style="stop-color:#006838"/>
			</linearGradient>
			<polygon class="st43" points="187.4,28.1 187.4,22.1 190.4,22.1 190.4,28.1 			"/>
		</g>
	</g>
	<rect x="179.6" y="86.4" class="st44" width="2.2" height="15"/>
	<path class="st1" d="M185.7,96.1c0.9-0.5,1.9-1.6,1.9-1.6s0.7-0.9,0.6-1.8c-0.2-1.1-1.1-1-1.1-1h0c-0.9,0-1.3,0.8-1.3,0.8l0,0
		c0,0-0.4-0.8-1.3-0.8h0c0,0-0.9-0.1-1.1,1c-0.2,0.9,0.6,1.8,0.6,1.8S184.8,95.6,185.7,96.1L185.7,96.1z"/>
	<g>
		<path class="st0" d="M20.3,94.6c0,0.8-0.6,1.4-1.4,1.4h-7.3c-0.8,0-1.4-0.6-1.4-1.4V82.5c0-0.8,0.6-1.4,1.4-1.4h7.3
			c0.8,0,1.4,0.6,1.4,1.4V94.6z"/>
		<path class="st3" d="M20.3,94.6c0,0.8-0.6,1.4-1.4,1.4h-7.3c-0.8,0-1.4-0.6-1.4-1.4V82.5c0-0.8,0.6-1.4,1.4-1.4h7.3
			c0.8,0,1.4,0.6,1.4,1.4V94.6z"/>
	</g>
	<rect x="9" y="81" class="st44" width="2.2" height="15"/>
	<path class="st1" d="M15.2,90.8c0.9-0.5,1.9-1.6,1.9-1.6s0.7-0.9,0.6-1.8c-0.2-1.1-1.1-1-1.1-1h0c-0.9,0-1.3,0.8-1.3,0.8l0,0
		c0,0-0.4-0.8-1.3-0.8h0c0,0-0.9-0.1-1.1,1c-0.2,0.9,0.6,1.8,0.6,1.8S14.2,90.3,15.2,90.8L15.2,90.8z"/>
	<path class="st23" d="M156.4,92.6c0.7-0.4,1.4-1.2,1.4-1.2s0.6-0.7,0.4-1.3c-0.2-0.8-0.8-0.8-0.8-0.8h0c-0.7,0-1,0.6-1,0.6l0,0
		c0,0-0.3-0.6-1-0.6h0c0,0-0.7-0.1-0.8,0.8c-0.1,0.7,0.4,1.3,0.4,1.3S155.7,92.3,156.4,92.6L156.4,92.6z"/>
	<g>
		<path class="st0" d="M50,228.4c0,0.8-0.6,1.4-1.4,1.4h-7.3c-0.8,0-1.4-0.6-1.4-1.4v-12.2c0-0.8,0.6-1.4,1.4-1.4h7.3
			c0.8,0,1.4,0.6,1.4,1.4V228.4z"/>
		<path class="st3" d="M50,228.4c0,0.8-0.6,1.4-1.4,1.4h-7.3c-0.8,0-1.4-0.6-1.4-1.4v-12.2c0-0.8,0.6-1.4,1.4-1.4h7.3
			c0.8,0,1.4,0.6,1.4,1.4V228.4z"/>
	</g>
	<g>
		<circle class="st1" cx="9.4" cy="219.3" r="3.1"/>
		<rect x="9.4" y="216.3" class="st1" width="3.1" height="6.1"/>
	</g>
	<g>
		<circle class="st1" cx="15.6" cy="213.2" r="3.1"/>
		
			<rect x="14" y="211.7" transform="matrix(-1.836970e-16 1 -1 -1.836970e-16 230.3158 199.1664)" class="st1" width="3.1" height="6.1"/>
	</g>
	<g>
		<circle class="st1" cx="15.6" cy="225.5" r="3.1"/>
		
			<rect x="14" y="220.9" transform="matrix(6.123234e-17 -1 1 6.123234e-17 -208.3434 239.4928)" class="st1" width="3.1" height="6.1"/>
	</g>
	<g>
		<circle class="st1" cx="21.7" cy="219.3" r="3.1"/>
		
			<rect x="18.6" y="216.3" transform="matrix(-1 -1.224647e-16 1.224647e-16 -1 40.3464 438.6392)" class="st1" width="3.1" height="6.1"/>
	</g>
	<rect x="38.8" y="214.8" class="st44" width="2.2" height="15"/>
	<g>
		<path class="st0" d="M98.1,228.4c0,0.8-0.6,1.4-1.4,1.4h-7.3c-0.8,0-1.4-0.6-1.4-1.4v-12.2c0-0.8,0.6-1.4,1.4-1.4h7.3
			c0.8,0,1.4,0.6,1.4,1.4V228.4z"/>
		<path class="st3" d="M98.1,228.4c0,0.8-0.6,1.4-1.4,1.4h-7.3c-0.8,0-1.4-0.6-1.4-1.4v-12.2c0-0.8,0.6-1.4,1.4-1.4h7.3
			c0.8,0,1.4,0.6,1.4,1.4V228.4z"/>
	</g>
	<rect x="86.8" y="214.8" class="st44" width="2.2" height="15"/>
	<path class="st1" d="M44.9,224.5c0.9-0.5,1.9-1.6,1.9-1.6s0.7-0.9,0.6-1.8c-0.2-1.1-1.1-1-1.1-1h0c-0.9,0-1.3,0.8-1.3,0.8l0,0
		c0,0-0.4-0.8-1.3-0.8h0c0,0-0.9-0.1-1.1,1c-0.2,0.9,0.6,1.8,0.6,1.8S44,224,44.9,224.5L44.9,224.5z"/>
	<path class="st1" d="M15.6,221.1c0.7-0.4,1.4-1.2,1.4-1.2s0.6-0.7,0.4-1.3c-0.2-0.8-0.8-0.8-0.8-0.8h0c-0.7,0-1,0.6-1,0.6l0,0
		c0,0-0.3-0.6-1-0.6h0c0,0-0.7-0.1-0.8,0.8c-0.1,0.7,0.4,1.3,0.4,1.3S14.9,220.7,15.6,221.1L15.6,221.1z"/>
	<g>
		<circle class="st0" cx="58.6" cy="219.3" r="3.1"/>
		<rect x="58.6" y="216.3" class="st0" width="3.1" height="6.1"/>
	</g>
	<g>
		<circle class="st0" cx="64.8" cy="213.2" r="3.1"/>
		
			<rect x="63.2" y="211.7" transform="matrix(-1.836970e-16 1 -1 -1.836970e-16 279.5214 149.9608)" class="st0" width="3.1" height="6.1"/>
	</g>
	<g>
		<circle class="st0" cx="64.8" cy="225.5" r="3.1"/>
		
			<rect x="63.2" y="220.9" transform="matrix(6.123234e-17 -1 1 6.123234e-17 -159.1378 288.6983)" class="st0" width="3.1" height="6.1"/>
	</g>
	<g>
		<circle class="st0" cx="70.9" cy="219.3" r="3.1"/>
		
			<rect x="67.8" y="216.3" transform="matrix(-1 -1.224647e-16 1.224647e-16 -1 138.7575 438.6392)" class="st0" width="3.1" height="6.1"/>
	</g>
	<path class="st0" d="M64.8,221.1c0.7-0.4,1.4-1.2,1.4-1.2s0.6-0.7,0.4-1.3c-0.2-0.8-0.8-0.8-0.8-0.8h0c-0.7,0-1,0.6-1,0.6l0,0
		c0,0-0.3-0.6-1-0.6h0c0,0-0.7-0.1-0.8,0.8c-0.1,0.7,0.4,1.3,0.4,1.3S64.1,220.7,64.8,221.1L64.8,221.1z"/>
	<circle class="st1" cx="64.8" cy="243.8" r="9.2"/>
	<g>
		<circle class="st0" cx="58.6" cy="243.8" r="3.1"/>
		<rect x="58.6" y="240.8" class="st0" width="3.1" height="6.1"/>
	</g>
	<g>
		<circle class="st0" cx="64.8" cy="237.7" r="3.1"/>
		
			<rect x="63.2" y="236.2" transform="matrix(-1.836970e-16 1 -1 -1.836970e-16 304.0266 174.4661)" class="st0" width="3.1" height="6.1"/>
	</g>
	<g>
		<circle class="st0" cx="64.8" cy="250" r="3.1"/>
		
			<rect x="63.2" y="245.4" transform="matrix(6.123234e-17 -1 1 6.123234e-17 -183.6431 313.2036)" class="st0" width="3.1" height="6.1"/>
	</g>
	<g>
		<circle class="st0" cx="70.9" cy="243.8" r="3.1"/>
		
			<rect x="67.8" y="240.8" transform="matrix(-1 -1.224647e-16 1.224647e-16 -1 138.7575 487.6497)" class="st0" width="3.1" height="6.1"/>
	</g>
	<circle class="st1" cx="86.8" cy="243.8" r="9.2"/>
	<g>
		<circle class="st0" cx="80.7" cy="243.8" r="3.1"/>
		<rect x="80.7" y="240.8" class="st0" width="3.1" height="6.1"/>
	</g>
	<g>
		<circle class="st0" cx="86.8" cy="237.7" r="3.1"/>
		
			<rect x="85.3" y="236.2" transform="matrix(-1.836970e-16 1 -1 -1.836970e-16 326.0641 152.4285)" class="st0" width="3.1" height="6.1"/>
	</g>
	<g>
		<circle class="st0" cx="86.8" cy="250" r="3.1"/>
		
			<rect x="85.3" y="245.4" transform="matrix(6.123234e-17 -1 1 6.123234e-17 -161.6055 335.2411)" class="st0" width="3.1" height="6.1"/>
	</g>
	<g>
		<circle class="st0" cx="92.9" cy="243.8" r="3.1"/>
		
			<rect x="89.9" y="240.8" transform="matrix(-1 -1.224647e-16 1.224647e-16 -1 182.8326 487.6497)" class="st0" width="3.1" height="6.1"/>
	</g>
	<g>
		<circle class="st1" cx="90.9" cy="222.3" r="1.2"/>
		<rect x="90.9" y="221.1" class="st1" width="1.2" height="2.4"/>
	</g>
	<g>
		<circle class="st1" cx="93.4" cy="219.9" r="1.2"/>
		
			<rect x="92.8" y="219.3" transform="matrix(-1.836970e-16 1 -1 -1.836970e-16 313.8864 127.1158)" class="st1" width="1.2" height="2.4"/>
	</g>
	<g>
		<circle class="st1" cx="93.4" cy="224.8" r="1.2"/>
		
			<rect x="92.8" y="222.9" transform="matrix(6.123234e-17 -1 1 6.123234e-17 -130.7689 317.5395)" class="st1" width="1.2" height="2.4"/>
	</g>
	<g>
		<circle class="st1" cx="95.8" cy="222.3" r="1.2"/>
		
			<rect x="94.6" y="221.1" transform="matrix(-1 -1.224647e-16 1.224647e-16 -1 190.4317 444.6473)" class="st1" width="1.2" height="2.4"/>
	</g>
	<path class="st1" d="M220.9,103.9c5.6-2.9,11.1-9.6,11.1-9.6s4.4-5.1,3.3-10.3c-1.3-6.4-6.5-6-6.5-6h-0.3c-5.2,0-7.5,4.6-7.5,4.6
		l0,0c0,0-2.3-4.6-7.5-4.6h-0.3c0,0-5.2-0.4-6.5,6c-1.1,5.3,3.3,10.3,3.3,10.3S215.4,101,220.9,103.9L220.9,103.9z"/>
	<g>
		<rect x="99.7" y="96" class="st24" width="8.2" height="3"/>
		
			<rect x="102.3" y="93.4" transform="matrix(-1.836970e-16 1 -1 -1.836970e-16 201.3128 -11.3956)" class="st24" width="8.2" height="3"/>
	</g>
	<g>
		
			<rect x="109.6" y="96" transform="matrix(-1 -4.498947e-11 4.498947e-11 -1 227.4538 195.0574)" class="st24" width="8.2" height="3"/>
		
			<rect x="107.1" y="93.4" transform="matrix(-4.476704e-11 1 -1 -4.476704e-11 206.1264 -16.2092)" class="st24" width="8.2" height="3"/>
	</g>
	<g>
		<rect x="99.7" y="100.1" class="st24" width="8.2" height="3"/>
		
			<rect x="102.3" y="102.7" transform="matrix(6.123234e-17 -1 1 6.123234e-17 2.1284 210.58)" class="st24" width="8.2" height="3"/>
	</g>
	<g>
		
			<rect x="109.6" y="100.1" transform="matrix(-1 4.476629e-11 -4.476629e-11 -1 227.4538 203.3114)" class="st24" width="8.2" height="3"/>
		
			<rect x="107.1" y="102.7" transform="matrix(-4.476679e-11 -1 1 -4.476679e-11 6.942 215.3936)" class="st24" width="8.2" height="3"/>
	</g>
	<rect x="175.9" y="113.8" class="st24" width="4.1" height="3.9"/>
	<rect x="189.9" y="113.8" class="st24" width="4.1" height="3.9"/>
	<rect x="175.9" y="127.3" class="st24" width="4.1" height="3.9"/>
	<rect x="189.9" y="127.3" class="st24" width="4.1" height="3.9"/>
	<g>
		<rect x="175.9" y="119" class="st24" width="8.2" height="3"/>
		
			<rect x="178.5" y="116.4" transform="matrix(-1.836970e-16 1 -1 -1.836970e-16 300.5016 -64.6471)" class="st24" width="8.2" height="3"/>
	</g>
	<g>
		
			<rect x="185.9" y="119" transform="matrix(-1 -4.498947e-11 4.498947e-11 -1 379.8941 240.9948)" class="st24" width="8.2" height="3"/>
		
			<rect x="183.3" y="116.4" transform="matrix(-4.476704e-11 1 -1 -4.476704e-11 305.3152 -69.4607)" class="st24" width="8.2" height="3"/>
	</g>
	<g>
		<rect x="175.9" y="123.1" class="st24" width="8.2" height="3"/>
		
			<rect x="178.5" y="125.7" transform="matrix(6.123234e-17 -1 1 6.123234e-17 55.3799 309.7688)" class="st24" width="8.2" height="3"/>
	</g>
	<g>
		
			<rect x="185.9" y="123.1" transform="matrix(-1 4.487776e-11 -4.487776e-11 -1 379.8941 249.2487)" class="st24" width="8.2" height="3"/>
		
			<rect x="183.3" y="125.7" transform="matrix(-4.476679e-11 -1 1 -4.476679e-11 60.1935 314.5825)" class="st24" width="8.2" height="3"/>
	</g>
	<g>
		<rect x="143" y="323.7" class="st1" width="3.1" height="3"/>
		<rect x="153.6" y="323.7" class="st1" width="3.1" height="3"/>
		<rect x="143" y="333.9" class="st1" width="3.1" height="3"/>
		<rect x="153.6" y="333.9" class="st1" width="3.1" height="3"/>
		<g>
			<rect x="143" y="327.6" class="st1" width="6.2" height="2.3"/>
			
				<rect x="144.9" y="325.6" transform="matrix(-1.836970e-16 1 -1 -1.836970e-16 474.7922 178.7453)" class="st1" width="6.2" height="2.3"/>
		</g>
		<g>
			
				<rect x="150.5" y="327.6" transform="matrix(-1 -4.463331e-11 4.463331e-11 -1 307.1574 657.4106)" class="st1" width="6.2" height="2.3"/>
			
				<rect x="148.6" y="325.6" transform="matrix(-4.492958e-11 1 -1 -4.492958e-11 478.4192 175.1183)" class="st1" width="6.2" height="2.3"/>
		</g>
		<g>
			<rect x="143" y="330.7" class="st1" width="6.2" height="2.3"/>
			
				<rect x="144.9" y="332.6" transform="matrix(6.123234e-17 -1 1 6.123234e-17 -185.728 481.7749)" class="st1" width="6.2" height="2.3"/>
		</g>
		<g>
			
				<rect x="150.5" y="330.7" transform="matrix(-1 4.522459e-11 -4.522459e-11 -1 307.1574 663.6298)" class="st1" width="6.2" height="2.3"/>
			
				<rect x="148.6" y="332.6" transform="matrix(-4.492933e-11 -1 1 -4.492933e-11 -182.101 485.4019)" class="st1" width="6.2" height="2.3"/>
		</g>
	</g>
	<rect x="148.2" y="178.5" class="st4" width="73.7" height="17.5"/>
	<text transform="matrix(1 0 0 1 148.1978 191.9679)" class="st1 st38 st7">Healthplus</text>
	<rect x="151.4" y="280.2" class="st4" width="72.1" height="15.5"/>
	<text transform="matrix(1 0 0 1 151.4283 291.8341)" class="st1 st45 st7">Healthlog</text>
	<rect x="146" y="259.9" class="st4" width="72.1" height="15.5"/>
	<text transform="matrix(1 0 0 1 145.9956 271.4581)" class="st1 st45 st7">Healthlog</text>
	<g>
		<rect x="137.8" y="280.5" class="st1" width="2.7" height="2.6"/>
		<rect x="146.9" y="280.5" class="st1" width="2.7" height="2.6"/>
		<rect x="137.8" y="289.4" class="st1" width="2.7" height="2.6"/>
		<rect x="146.9" y="289.4" class="st1" width="2.7" height="2.6"/>
		<g>
			<rect x="137.8" y="283.9" class="st1" width="5.3" height="2"/>
			
				<rect x="139.5" y="282.2" transform="matrix(-1.836970e-16 1 -1 -1.836970e-16 425.328 141.0729)" class="st1" width="5.3" height="2"/>
		</g>
		<g>
			
				<rect x="144.3" y="283.9" transform="matrix(-1 -4.480828e-11 4.480828e-11 -1 293.8931 569.7606)" class="st1" width="5.3" height="2"/>
			
				<rect x="142.6" y="282.2" transform="matrix(-4.549002e-11 1 -1 -4.549002e-11 428.4743 137.9266)" class="st1" width="5.3" height="2"/>
		</g>
		<g>
			<rect x="137.8" y="286.6" class="st1" width="5.3" height="2"/>
			
				<rect x="139.5" y="288.3" transform="matrix(6.123234e-17 -1 1 6.123234e-17 -147.1301 431.3853)" class="st1" width="5.3" height="2"/>
		</g>
		<g>
			
				<rect x="144.3" y="286.6" transform="matrix(-1 4.514865e-11 -4.514865e-11 -1 293.8931 575.1556)" class="st1" width="5.3" height="2"/>
			
				<rect x="142.6" y="288.3" transform="matrix(-4.548977e-11 -1 1 -4.548977e-11 -143.9838 434.5316)" class="st1" width="5.3" height="2"/>
		</g>
	</g>
	
		<rect x="50.6" y="272" transform="matrix(4.042593e-03 -1 1 4.042593e-03 -250.3753 369.3111)" class="st4" width="19.2" height="76.8"/>
	<text transform="matrix(1 0 0 1 21.8745 312.2667)" class="st39 st46 st7">Healthlog</text>
	<g>
		<rect x="8.6" y="301" class="st39" width="2.7" height="2.6"/>
		<rect x="17.7" y="301" class="st39" width="2.7" height="2.6"/>
		<rect x="8.6" y="309.9" class="st39" width="2.7" height="2.6"/>
		<rect x="17.7" y="309.9" class="st39" width="2.7" height="2.6"/>
		<g>
			<rect x="8.6" y="304.4" class="st39" width="5.3" height="2"/>
			
				<rect x="10.2" y="302.7" transform="matrix(-1.836970e-16 1 -1 -1.836970e-16 316.596 290.8083)" class="st39" width="5.3" height="2"/>
		</g>
		<g>
			
				<rect x="15" y="304.4" transform="matrix(-1 -4.480828e-11 4.480828e-11 -1 35.4256 610.764)" class="st39" width="5.3" height="2"/>
			
				<rect x="13.4" y="302.7" transform="matrix(-4.480879e-11 1 -1 -4.480879e-11 319.7423 287.662)" class="st39" width="5.3" height="2"/>
		</g>
		<g>
			<rect x="8.6" y="307.1" class="st39" width="5.3" height="2"/>
			
				<rect x="10.2" y="308.8" transform="matrix(6.123234e-17 -1 1 6.123234e-17 -296.8655 322.6532)" class="st39" width="5.3" height="2"/>
		</g>
		<g>
			
				<rect x="15" y="307.1" transform="matrix(-1 4.514865e-11 -4.514865e-11 -1 35.4256 616.159)" class="st39" width="5.3" height="2"/>
			
				<rect x="13.4" y="308.8" transform="matrix(-4.480854e-11 -1 1 -4.480854e-11 -293.7192 325.7995)" class="st39" width="5.3" height="2"/>
		</g>
	</g>
	<rect x="17.2" y="186.6" class="st4" width="76.8" height="16.2"/>
	<text transform="matrix(1 0 0 1 17.2076 198.2638)" class="st39 st47 st7">Healthlog</text>
	<g>
		<rect x="3.6" y="186.9" class="st39" width="2.7" height="2.6"/>
		<rect x="12.7" y="186.9" class="st39" width="2.7" height="2.6"/>
		<rect x="3.6" y="195.7" class="st39" width="2.7" height="2.6"/>
		<rect x="12.7" y="195.7" class="st39" width="2.7" height="2.6"/>
		<g>
			<rect x="3.6" y="190.2" class="st39" width="5.3" height="2"/>
			
				<rect x="5.2" y="188.5" transform="matrix(-1.836970e-16 1 -1 -1.836970e-16 197.427 181.613)" class="st39" width="5.3" height="2"/>
		</g>
		<g>
			
				<rect x="10.1" y="190.2" transform="matrix(-1 -4.497836e-11 4.497836e-11 -1 25.4519 382.3997)" class="st39" width="5.3" height="2"/>
			
				<rect x="8.4" y="188.5" transform="matrix(-4.480879e-11 1 -1 -4.480879e-11 200.5733 178.4667)" class="st39" width="5.3" height="2"/>
		</g>
		<g>
			<rect x="3.6" y="192.9" class="st39" width="5.3" height="2"/>
			
				<rect x="5.2" y="194.6" transform="matrix(6.123234e-17 -1 1 6.123234e-17 -187.6702 203.4842)" class="st39" width="5.3" height="2"/>
		</g>
		<g>
			
				<rect x="10.1" y="192.9" transform="matrix(-1 4.497812e-11 -4.497812e-11 -1 25.4519 387.7947)" class="st39" width="5.3" height="2"/>
			
				<rect x="8.4" y="194.6" transform="matrix(-4.480854e-11 -1 1 -4.480854e-11 -184.5239 206.6305)" class="st39" width="5.3" height="2"/>
		</g>
	</g>
	<rect x="127.3" y="145.2" class="st4" width="65.5" height="16"/>
	<text transform="matrix(1 0 0 1 127.2622 155.6827)" class="st1 st48 st7">Healthplus</text>
	<rect x="197.4" y="138.7" class="st24" width="3.4" height="3.3"/>
	<rect x="212" y="138.7" class="st24" width="3.4" height="3.3"/>
	<rect x="197.4" y="152.8" class="st24" width="3.4" height="3.3"/>
	<rect x="212" y="152.8" class="st24" width="3.4" height="3.3"/>
	<g>
		<rect x="197.4" y="143.8" class="st22" width="8.2" height="3"/>
		
			<rect x="199.9" y="141.2" transform="matrix(-1.836970e-16 1 -1 -1.836970e-16 346.7663 -61.2553)" class="st22" width="8.2" height="3"/>
	</g>
	<g>
		
			<rect x="207.3" y="143.8" transform="matrix(-1 -4.487800e-11 4.487800e-11 -1 422.767 290.6513)" class="st22" width="8.2" height="3"/>
		
			<rect x="204.7" y="141.2" transform="matrix(-4.476704e-11 1 -1 -4.476704e-11 351.58 -66.0689)" class="st22" width="8.2" height="3"/>
	</g>
	<g>
		<rect x="197.4" y="147.9" class="st22" width="8.2" height="3"/>
		
			<rect x="199.9" y="150.5" transform="matrix(6.123234e-17 -1 1 6.123234e-17 51.9881 356.0335)" class="st22" width="8.2" height="3"/>
	</g>
	<g>
		
			<rect x="207.3" y="147.9" transform="matrix(-1 4.476629e-11 -4.476629e-11 -1 422.767 298.9052)" class="st22" width="8.2" height="3"/>
		
			<rect x="204.7" y="150.5" transform="matrix(-4.476679e-11 -1 1 -4.476679e-11 56.8017 360.8472)" class="st22" width="8.2" height="3"/>
	</g>
	<rect x="202.8" y="113.8" class="st24" width="4.1" height="3.9"/>
	<rect x="216.8" y="113.8" class="st24" width="4.1" height="3.9"/>
	<rect x="202.8" y="127.3" class="st24" width="4.1" height="3.9"/>
	<rect x="216.8" y="127.3" class="st24" width="4.1" height="3.9"/>
	<g>
		<rect x="202.8" y="119" class="st22" width="8.2" height="3"/>
		
			<rect x="205.4" y="116.4" transform="matrix(-1.836970e-16 1 -1 -1.836970e-16 327.3836 -91.5291)" class="st22" width="8.2" height="3"/>
	</g>
	<g>
		
			<rect x="212.7" y="119" transform="matrix(-1 -4.498947e-11 4.498947e-11 -1 433.6581 240.9948)" class="st22" width="8.2" height="3"/>
		
			<rect x="210.2" y="116.4" transform="matrix(-4.476704e-11 1 -1 -4.476704e-11 332.1972 -96.3427)" class="st22" width="8.2" height="3"/>
	</g>
	<g>
		<rect x="202.8" y="123.1" class="st22" width="8.2" height="3"/>
		
			<rect x="205.4" y="125.7" transform="matrix(6.123234e-17 -1 1 6.123234e-17 82.2619 336.6508)" class="st22" width="8.2" height="3"/>
	</g>
	<g>
		
			<rect x="212.7" y="123.1" transform="matrix(-1 4.487776e-11 -4.487776e-11 -1 433.6581 249.2487)" class="st22" width="8.2" height="3"/>
		
			<rect x="210.2" y="125.7" transform="matrix(-4.476679e-11 -1 1 -4.476679e-11 87.0755 341.4644)" class="st22" width="8.2" height="3"/>
	</g>
	<g>
		<g>
			<rect x="121.5" y="96" class="st24" width="8.2" height="3"/>
			
				<rect x="124.1" y="93.4" transform="matrix(-1.836970e-16 1 -1 -1.836970e-16 223.1428 -33.2256)" class="st24" width="8.2" height="3"/>
		</g>
		<g>
			
				<rect x="131.5" y="96" transform="matrix(-1 -4.498947e-11 4.498947e-11 -1 271.1138 195.0574)" class="st24" width="8.2" height="3"/>
			
				<rect x="128.9" y="93.4" transform="matrix(-4.476704e-11 1 -1 -4.476704e-11 227.9564 -38.0392)" class="st24" width="8.2" height="3"/>
		</g>
		<g>
			<rect x="121.5" y="100.1" class="st24" width="8.2" height="3"/>
			
				<rect x="124.1" y="102.7" transform="matrix(6.123234e-17 -1 1 6.123234e-17 23.9584 232.41)" class="st24" width="8.2" height="3"/>
		</g>
		<g>
			
				<rect x="131.5" y="100.1" transform="matrix(-1 4.476629e-11 -4.476629e-11 -1 271.1138 203.3114)" class="st24" width="8.2" height="3"/>
			
				<rect x="128.9" y="102.7" transform="matrix(-4.476679e-11 -1 1 -4.476679e-11 28.772 237.2236)" class="st24" width="8.2" height="3"/>
		</g>
	</g>
	<g>
		<g>
			<rect x="24.3" y="124.1" class="st1" width="5.5" height="2.1"/>
			
				<rect x="26" y="122.4" transform="matrix(-1.836970e-16 1 -1 -1.836970e-16 152.1588 94.6806)" class="st1" width="5.5" height="2.1"/>
		</g>
		<g>
			
				<rect x="31" y="124.1" transform="matrix(-1 -4.493174e-11 4.493174e-11 -1 67.4185 250.3046)" class="st1" width="5.5" height="2.1"/>
			
				<rect x="29.2" y="122.4" transform="matrix(-4.526176e-11 1 -1 -4.526176e-11 155.4038 91.4356)" class="st1" width="5.5" height="2.1"/>
		</g>
		<g>
			<rect x="24.3" y="126.9" class="st1" width="5.5" height="2.1"/>
			
				<rect x="26" y="128.6" transform="matrix(6.123234e-17 -1 1 6.123234e-17 -100.928 158.4061)" class="st1" width="5.5" height="2.1"/>
		</g>
		<g>
			
				<rect x="31" y="126.9" transform="matrix(-1 4.460109e-11 -4.460109e-11 -1 67.4185 255.8689)" class="st1" width="5.5" height="2.1"/>
			
				<rect x="29.2" y="128.6" transform="matrix(-4.526151e-11 -1 1 -4.526151e-11 -97.6829 161.6512)" class="st1" width="5.5" height="2.1"/>
		</g>
	</g>
	<g>
		<g>
			<rect x="134" y="182.5" class="st1" width="6.3" height="2.3"/>
			
				<rect x="136" y="180.5" transform="matrix(-1.836970e-16 1 -1 -1.836970e-16 320.7872 42.5213)" class="st1" width="6.3" height="2.3"/>
		</g>
		<g>
			
				<rect x="141.7" y="182.5" transform="matrix(-1 -4.498369e-11 4.498369e-11 -1 289.5818 367.2532)" class="st1" width="6.3" height="2.3"/>
			
				<rect x="139.7" y="180.5" transform="matrix(-4.541896e-11 1 -1 -4.541896e-11 324.4813 38.8272)" class="st1" width="6.3" height="2.3"/>
		</g>
		<g>
			<rect x="134" y="185.6" class="st1" width="6.3" height="2.3"/>
			
				<rect x="136" y="187.6" transform="matrix(6.123234e-17 -1 1 6.123234e-17 -49.6331 327.899)" class="st1" width="6.3" height="2.3"/>
		</g>
		<g>
			
				<rect x="141.7" y="185.6" transform="matrix(-1 4.469346e-11 -4.469346e-11 -1 289.5818 373.5874)" class="st1" width="6.3" height="2.3"/>
			
				<rect x="139.7" y="187.6" transform="matrix(-4.541872e-11 -1 1 -4.541872e-11 -45.939 331.5931)" class="st1" width="6.3" height="2.3"/>
		</g>
	</g>
	<g>
		<g>
			<rect x="133.8" y="263.3" class="st1" width="5.4" height="2"/>
			
				<rect x="135.5" y="261.6" transform="matrix(-1.836970e-16 1 -1 -1.836970e-16 400.752 124.3971)" class="st1" width="5.4" height="2"/>
		</g>
		<g>
			
				<rect x="140.4" y="263.3" transform="matrix(-1 -4.491175e-11 4.491175e-11 -1 286.1533 528.5648)" class="st1" width="5.4" height="2"/>
			
				<rect x="138.7" y="261.6" transform="matrix(-4.524755e-11 1 -1 -4.524755e-11 403.9507 121.1984)" class="st1" width="5.4" height="2"/>
		</g>
		<g>
			<rect x="133.8" y="266" class="st1" width="5.4" height="2"/>
			
				<rect x="135.5" y="267.7" transform="matrix(6.123234e-17 -1 1 6.123234e-17 -130.5553 406.9101)" class="st1" width="5.4" height="2"/>
		</g>
		<g>
			
				<rect x="140.4" y="266" transform="matrix(-1 4.457667e-11 -4.457667e-11 -1 286.1533 534.0496)" class="st1" width="5.4" height="2"/>
			
				<rect x="138.7" y="267.7" transform="matrix(-4.524730e-11 -1 1 -4.524730e-11 -127.3565 410.1088)" class="st1" width="5.4" height="2"/>
		</g>
	</g>
	<g>
		<rect x="148.2" y="202.1" class="st4" width="73.7" height="17.5"/>
		<text transform="matrix(1 0 0 1 148.2339 215.5363)" class="st1 st38 st7">Healthplus</text>
		<g>
			<rect x="141.7" y="206.1" class="st1" width="6.3" height="2.3"/>
			
				<rect x="143.7" y="204.1" transform="matrix(-1.836970e-16 1 -1 -1.836970e-16 352.0572 58.4763)" class="st1" width="6.3" height="2.3"/>
		</g>
		<g>
			<rect x="141.7" y="209.2" class="st1" width="6.3" height="2.3"/>
			
				<rect x="143.7" y="211.2" transform="matrix(6.123234e-17 -1 1 6.123234e-17 -65.5882 359.169)" class="st1" width="6.3" height="2.3"/>
		</g>
	</g>
	<g>
		<rect x="148.2" y="231" class="st4" width="73.7" height="17.5"/>
		<text transform="matrix(1 0 0 1 148.2339 244.4415)" class="st1 st38 st7">Healthlog</text>
		<g>
			<rect x="141.7" y="235" class="st1" width="6.3" height="2.3"/>
			
				<rect x="143.7" y="233" transform="matrix(-1.836970e-16 1 -1 -1.836970e-16 380.9626 87.3817)" class="st1" width="6.3" height="2.3"/>
		</g>
		<g>
			<rect x="141.7" y="238.1" class="st1" width="6.3" height="2.3"/>
			
				<rect x="143.7" y="240.1" transform="matrix(6.123234e-17 -1 1 6.123234e-17 -94.4935 388.0744)" class="st1" width="6.3" height="2.3"/>
		</g>
	</g>
	<g>
		<g>
			<rect x="5.8" y="123.6" class="st1" width="5.9" height="2.2"/>
			
				<rect x="7.6" y="121.7" transform="matrix(-1.836970e-16 1 -1 -1.836970e-16 133.3881 112.2631)" class="st1" width="5.9" height="2.2"/>
		</g>
		<g>
			
				<rect x="12.9" y="123.6" transform="matrix(-1 -4.502721e-11 4.502721e-11 -1 31.7007 249.3379)" class="st1" width="5.9" height="2.2"/>
			
				<rect x="11.1" y="121.7" transform="matrix(-4.487273e-11 1 -1 -4.487273e-11 136.8405 108.8107)" class="st1" width="5.9" height="2.2"/>
		</g>
		<g>
			<rect x="5.8" y="126.5" class="st1" width="5.9" height="2.2"/>
			
				<rect x="7.6" y="128.4" transform="matrix(6.123234e-17 -1 1 6.123234e-17 -118.9097 140.0347)" class="st1" width="5.9" height="2.2"/>
		</g>
		<g>
			
				<rect x="12.9" y="126.5" transform="matrix(-1 4.471655e-11 -4.471655e-11 -1 31.7007 255.2577)" class="st1" width="5.9" height="2.2"/>
			
				<rect x="11.1" y="128.4" transform="matrix(-4.487249e-11 -1 1 -4.487249e-11 -115.4572 143.4871)" class="st1" width="5.9" height="2.2"/>
		</g>
	</g>
	<g>
		<path class="st1" d="M156.4,119.6c2.8-1.5,5.5-4.8,5.5-4.8s2.2-2.5,1.6-5.2c-0.7-3.2-3.3-3-3.3-3h-0.1c-2.6,0-3.8,2.3-3.8,2.3l0,0
			c0,0-1.1-2.3-3.8-2.3h-0.1c0,0-2.6-0.2-3.3,3c-0.5,2.6,1.6,5.2,1.6,5.2S153.6,118.2,156.4,119.6L156.4,119.6z"/>
		<g>
			<line class="st49" x1="157.9" y1="110.7" x2="162.2" y2="110.7"/>
			<line class="st49" x1="160" y1="112.8" x2="160" y2="108.5"/>
		</g>
	</g>
	<g>
		<path class="st1" d="M113.2,164.4c1.9-1,3.8-3.3,3.8-3.3s1.5-1.7,1.1-3.6c-0.5-2.2-2.2-2.1-2.2-2.1h-0.1c-1.8,0-2.6,1.6-2.6,1.6
			l0,0c0,0-0.8-1.6-2.6-1.6h-0.1c0,0-1.8-0.1-2.2,2.1c-0.4,1.8,1.1,3.6,1.1,3.6S111.3,163.4,113.2,164.4L113.2,164.4z"/>
		<g>
			<line class="st50" x1="114.3" y1="158.4" x2="117.3" y2="158.4"/>
			<line class="st50" x1="115.8" y1="159.8" x2="115.8" y2="156.9"/>
		</g>
	</g>
	<g>
		<path class="st1" d="M164.6,147.8c1.6-0.9,3.2-2.8,3.2-2.8s1.3-1.5,0.9-3c-0.4-1.9-1.9-1.7-1.9-1.7h-0.1c-1.5,0-2.2,1.3-2.2,1.3
			l0,0c0,0-0.7-1.3-2.2-1.3h-0.1c0,0-1.5-0.1-1.9,1.7c-0.3,1.5,0.9,3,0.9,3S163,147,164.6,147.8L164.6,147.8z"/>
		<g>
			<line class="st51" x1="165.5" y1="142.7" x2="168" y2="142.7"/>
			<line class="st51" x1="166.7" y1="143.9" x2="166.7" y2="141.4"/>
		</g>
	</g>
	<g>
		<path class="st1" d="M108.3,134.1c1.9-1,3.8-3.3,3.8-3.3s1.5-1.7,1.1-3.6c-0.5-2.2-2.2-2.1-2.2-2.1h-0.1c-1.8,0-2.6,1.6-2.6,1.6
			l0,0c0,0-0.8-1.6-2.6-1.6h-0.1c0,0-1.8-0.1-2.2,2.1c-0.4,1.8,1.1,3.6,1.1,3.6S106.3,133.1,108.3,134.1L108.3,134.1z"/>
		<g>
			<line class="st50" x1="109.3" y1="128.1" x2="112.3" y2="128.1"/>
			<line class="st50" x1="110.8" y1="129.5" x2="110.8" y2="126.5"/>
		</g>
	</g>
	<g>
		<g>
			<g>
				<circle class="st39" cx="88.3" cy="147.6" r="1.6"/>
				<rect x="88.3" y="146.1" class="st39" width="1.6" height="3.1"/>
			</g>
			<g>
				<circle class="st39" cx="91.5" cy="144.5" r="1.6"/>
				
					<rect x="90.7" y="143.7" transform="matrix(-1.836970e-16 1 -1 -1.836970e-16 236.7568 53.8362)" class="st39" width="1.6" height="3.1"/>
			</g>
			<g>
				<circle class="st39" cx="91.5" cy="150.8" r="1.6"/>
				
					<rect x="90.7" y="148.4" transform="matrix(6.123234e-17 -1 1 6.123234e-17 -58.5136 241.4342)" class="st39" width="1.6" height="3.1"/>
			</g>
			<g>
				<circle class="st39" cx="94.6" cy="147.6" r="1.6"/>
				
					<rect x="93" y="146.1" transform="matrix(-1 -1.224647e-16 1.224647e-16 -1 187.6083 295.2602)" class="st39" width="1.6" height="3.1"/>
			</g>
		</g>
		<rect x="89.9" y="146.1" class="st39" width="3.1" height="3.1"/>
	</g>
	<g>
		<g>
			<g>
				<circle class="st1" cx="205.6" cy="309.3" r="1"/>
				<rect x="205.6" y="308.3" class="st1" width="1" height="2.1"/>
			</g>
			<g>
				<circle class="st1" cx="207.7" cy="307.2" r="1"/>
				
					<rect x="207.1" y="306.7" transform="matrix(-1.836970e-16 1 -1 -1.836970e-16 515.4227 100.0831)" class="st1" width="1" height="2.1"/>
			</g>
			<g>
				<circle class="st1" cx="207.7" cy="311.4" r="1"/>
				
					<rect x="207.1" y="309.8" transform="matrix(6.123234e-17 -1 1 6.123234e-17 -103.2014 518.541)" class="st1" width="1" height="2.1"/>
			</g>
			<g>
				<circle class="st1" cx="209.8" cy="309.3" r="1"/>
				
					<rect x="208.7" y="308.3" transform="matrix(-1 -1.224647e-16 1.224647e-16 -1 418.4647 618.6172)" class="st1" width="1" height="2.1"/>
			</g>
		</g>
		<rect x="206.6" y="308.3" class="st1" width="2.1" height="2.1"/>
	</g>
	<rect x="144.7" y="305.4" class="st4" width="60.3" height="14.3"/>
	<text transform="matrix(1 0 0 1 144.7144 315.9142)" class="st1 st48 st7">Healthplus</text>
	<g>
		<g>
			<g>
				<path class="st39" d="M7.2,177.8c-0.1,0-0.2,0-0.3-0.1c-0.1-0.1-0.1-0.2-0.1-0.3v-11.3c0-0.1,0-0.2,0.1-0.3
					c0.1-0.1,0.2-0.1,0.3-0.1c0.1,0,0.2,0,0.3,0.1c0.1,0.1,0.1,0.2,0.1,0.3v5.2h7.9v-5.2c0-0.1,0-0.2,0.1-0.3
					c0.1-0.1,0.2-0.1,0.3-0.1c0.1,0,0.2,0,0.3,0.1c0.1,0.1,0.1,0.2,0.1,0.3v11.3c0,0.1,0,0.2-0.1,0.3c-0.1,0.1-0.2,0.1-0.3,0.1
					c-0.1,0-0.2,0-0.3-0.1c-0.1-0.1-0.1-0.2-0.1-0.3v-5.3H7.7v5.3c0,0.1,0,0.2-0.1,0.3C7.5,177.8,7.4,177.8,7.2,177.8z"/>
				<path class="st39" d="M22,177.9c-0.8,0-1.6-0.2-2.2-0.6c-0.6-0.4-1.1-0.9-1.5-1.5c-0.4-0.7-0.5-1.4-0.5-2.2
					c0-0.9,0.2-1.6,0.5-2.3c0.3-0.6,0.8-1.2,1.4-1.5c0.6-0.4,1.3-0.6,2.1-0.6c0.8,0,1.5,0.2,2,0.5c0.6,0.4,1.1,0.9,1.4,1.5
					c0.3,0.6,0.5,1.4,0.5,2.2c0,0.1,0,0.2-0.1,0.3c-0.1,0.1-0.2,0.1-0.3,0.1h-6.9V173h7.1l-0.7,0.5c0-0.7-0.1-1.3-0.3-1.8
					c-0.2-0.5-0.6-0.9-1.1-1.2c-0.5-0.3-1-0.4-1.6-0.4c-0.6,0-1.1,0.1-1.6,0.4c-0.5,0.3-0.8,0.7-1.1,1.2c-0.3,0.5-0.4,1.1-0.4,1.8
					c0,0.7,0.1,1.3,0.4,1.8c0.3,0.5,0.7,0.9,1.2,1.2c0.5,0.3,1.1,0.4,1.7,0.4c0.4,0,0.8-0.1,1.2-0.2s0.7-0.3,1-0.6
					c0.1-0.1,0.2-0.1,0.3-0.1s0.2,0,0.3,0.1c0.1,0.1,0.2,0.2,0.2,0.3c0,0.1,0,0.2-0.1,0.3c-0.3,0.3-0.8,0.6-1.3,0.7
					C23,177.8,22.5,177.9,22,177.9z"/>
				<path class="st39" d="M31,177.9c-0.8,0-1.6-0.2-2.2-0.6s-1.2-0.9-1.6-1.6c-0.4-0.7-0.6-1.4-0.6-2.2c0-0.8,0.2-1.6,0.6-2.2
					c0.4-0.7,0.9-1.2,1.6-1.6s1.4-0.6,2.2-0.6s1.6,0.2,2.2,0.6c0.7,0.4,1.2,0.9,1.6,1.6c0.4,0.7,0.6,1.4,0.6,2.2l-0.4,0.6
					c0,0.7-0.2,1.3-0.5,1.9s-0.8,1-1.4,1.3S31.8,177.9,31,177.9z M31,177c0.7,0,1.2-0.2,1.8-0.5s0.9-0.7,1.2-1.2
					c0.3-0.5,0.4-1.1,0.4-1.8c0-0.7-0.1-1.3-0.4-1.8c-0.3-0.5-0.7-0.9-1.2-1.2c-0.5-0.3-1.1-0.5-1.8-0.5c-0.6,0-1.2,0.2-1.7,0.5
					c-0.5,0.3-0.9,0.7-1.2,1.2c-0.3,0.5-0.5,1.1-0.5,1.8c0,0.7,0.2,1.2,0.5,1.8c0.3,0.5,0.7,0.9,1.2,1.2S30.4,177,31,177z
					 M34.9,177.8c-0.1,0-0.2,0-0.3-0.1c-0.1-0.1-0.1-0.2-0.1-0.3v-2.9l0.3-0.9h0.6v3.8c0,0.1,0,0.2-0.1,0.3
					C35.2,177.8,35,177.8,34.9,177.8z"/>
				<path class="st39" d="M39,177.8c-0.4,0-0.7-0.1-1.1-0.3c-0.3-0.2-0.5-0.5-0.7-0.9s-0.3-0.8-0.3-1.3v-9.1c0-0.1,0-0.3,0.1-0.3
					c0.1-0.1,0.2-0.1,0.3-0.1c0.1,0,0.3,0,0.3,0.1c0.1,0.1,0.1,0.2,0.1,0.3v9.1c0,0.5,0.1,0.9,0.3,1.2c0.2,0.3,0.5,0.5,0.8,0.5h0.4
					c0.1,0,0.2,0,0.3,0.1c0.1,0.1,0.1,0.2,0.1,0.3c0,0.1,0,0.2-0.1,0.3c-0.1,0.1-0.2,0.1-0.3,0.1H39z"/>
				<path class="st39" d="M39.7,170.4c-0.1,0-0.2,0-0.3-0.1s-0.1-0.2-0.1-0.3s0-0.2,0.1-0.3c0.1-0.1,0.2-0.1,0.3-0.1h4.2
					c0.1,0,0.2,0,0.3,0.1c0.1,0.1,0.1,0.2,0.1,0.3s0,0.2-0.1,0.3c-0.1,0.1-0.2,0.1-0.3,0.1H39.7z M43.8,177.8
					c-0.6,0-1.1-0.1-1.5-0.4c-0.4-0.3-0.8-0.6-1-1.1c-0.2-0.5-0.4-1-0.4-1.5v-7.8c0-0.1,0-0.3,0.1-0.4s0.2-0.1,0.3-0.1
					c0.1,0,0.3,0,0.4,0.1s0.1,0.2,0.1,0.4v7.8c0,0.6,0.2,1.1,0.6,1.5c0.4,0.4,0.9,0.6,1.5,0.6h0.3c0.1,0,0.3,0,0.4,0.1
					c0.1,0.1,0.1,0.2,0.1,0.4c0,0.1,0,0.2-0.1,0.3c-0.1,0.1-0.2,0.1-0.4,0.1H43.8z"/>
				<path class="st39" d="M46.5,174.1c-0.1,0-0.2,0-0.3-0.1c-0.1-0.1-0.1-0.2-0.1-0.3v-7.5c0-0.1,0-0.3,0.1-0.3
					c0.1-0.1,0.2-0.1,0.3-0.1c0.1,0,0.3,0,0.3,0.1c0.1,0.1,0.1,0.2,0.1,0.3v7.5c0,0.1,0,0.2-0.1,0.3C46.8,174,46.6,174.1,46.5,174.1
					z M46.5,177.8c-0.1,0-0.2,0-0.3-0.1c-0.1-0.1-0.1-0.2-0.1-0.3v-7.6c0-0.1,0-0.3,0.1-0.3c0.1-0.1,0.2-0.1,0.3-0.1
					c0.1,0,0.3,0,0.3,0.1c0.1,0.1,0.1,0.2,0.1,0.3v7.6c0,0.1,0,0.2-0.1,0.3C46.8,177.8,46.6,177.8,46.5,177.8z M53.4,177.8
					c-0.1,0-0.2,0-0.3-0.1c-0.1-0.1-0.1-0.2-0.1-0.3v-4.2c0-0.7-0.1-1.3-0.4-1.7c-0.3-0.4-0.6-0.8-1.1-1c-0.5-0.2-1-0.3-1.5-0.3
					c-0.6,0-1.1,0.1-1.5,0.3c-0.4,0.2-0.8,0.5-1.1,0.9c-0.3,0.4-0.4,0.8-0.4,1.3h-0.8c0-0.6,0.2-1.2,0.6-1.7
					c0.3-0.5,0.8-0.9,1.3-1.2c0.6-0.3,1.2-0.4,1.8-0.4c0.7,0,1.4,0.2,2,0.5c0.6,0.3,1.1,0.8,1.4,1.3s0.5,1.3,0.5,2.2v4.2
					c0,0.1,0,0.2-0.1,0.3C53.7,177.8,53.5,177.8,53.4,177.8z"/>
			</g>
		</g>
		<g>
			<g>
				<path class="st39" d="M56.4,181.4c-0.2,0-0.4-0.1-0.6-0.2s-0.2-0.3-0.2-0.6v-7.2c0-0.8,0.2-1.6,0.6-2.2s0.9-1.2,1.5-1.6
					s1.4-0.6,2.2-0.6c0.8,0,1.6,0.2,2.2,0.6c0.6,0.4,1.2,0.9,1.5,1.6c0.4,0.7,0.6,1.4,0.6,2.2s-0.2,1.6-0.5,2.2
					c-0.4,0.7-0.8,1.2-1.4,1.6c-0.6,0.4-1.3,0.6-2.1,0.6c-0.6,0-1.2-0.1-1.7-0.4c-0.5-0.3-1-0.6-1.3-1v4.2c0,0.2-0.1,0.4-0.2,0.6
					C56.8,181.4,56.6,181.4,56.4,181.4z M59.9,176.4c0.5,0,1-0.1,1.4-0.4c0.4-0.3,0.8-0.6,1-1.1c0.2-0.4,0.4-0.9,0.4-1.5
					c0-0.6-0.1-1.1-0.4-1.5s-0.6-0.8-1-1.1c-0.4-0.3-0.9-0.4-1.4-0.4c-0.5,0-1,0.1-1.4,0.4c-0.4,0.3-0.8,0.6-1,1.1
					c-0.2,0.4-0.4,1-0.4,1.5c0,0.6,0.1,1.1,0.4,1.5c0.2,0.4,0.6,0.8,1,1.1C58.9,176.3,59.4,176.4,59.9,176.4z"/>
				<path class="st39" d="M67.8,177.8c-0.5,0-0.9-0.1-1.2-0.4c-0.4-0.3-0.6-0.6-0.8-1c-0.2-0.4-0.3-0.9-0.3-1.5v-8.6
					c0-0.2,0.1-0.4,0.2-0.6c0.1-0.1,0.3-0.2,0.6-0.2c0.2,0,0.4,0.1,0.6,0.2c0.1,0.1,0.2,0.3,0.2,0.6v8.6c0,0.4,0.1,0.7,0.2,1
					c0.1,0.3,0.3,0.4,0.6,0.4h0.4c0.2,0,0.4,0.1,0.5,0.2s0.2,0.3,0.2,0.6s-0.1,0.4-0.3,0.6C68.4,177.7,68.1,177.8,67.8,177.8
					L67.8,177.8z"/>
				<path class="st39" d="M73.2,177.8c-0.7,0-1.4-0.2-1.9-0.5c-0.6-0.3-1-0.8-1.4-1.4c-0.3-0.6-0.5-1.3-0.5-2.2V170
					c0-0.2,0.1-0.4,0.2-0.6c0.2-0.2,0.3-0.2,0.6-0.2c0.2,0,0.4,0.1,0.6,0.2c0.2,0.2,0.2,0.3,0.2,0.6v3.9c0,0.6,0.1,1.1,0.3,1.5
					c0.2,0.4,0.5,0.7,0.9,0.8s0.8,0.3,1.3,0.3c0.5,0,0.9-0.1,1.2-0.3c0.4-0.2,0.6-0.4,0.8-0.7s0.3-0.6,0.3-1h1
					c0,0.6-0.2,1.2-0.5,1.8c-0.3,0.5-0.8,0.9-1.3,1.2S73.9,177.8,73.2,177.8z M76.7,177.8c-0.2,0-0.4-0.1-0.6-0.2
					c-0.2-0.2-0.2-0.3-0.2-0.6v-7c0-0.2,0.1-0.4,0.2-0.6c0.2-0.1,0.3-0.2,0.6-0.2c0.2,0,0.4,0.1,0.6,0.2c0.1,0.1,0.2,0.3,0.2,0.6v7
					c0,0.2-0.1,0.4-0.2,0.6C77.1,177.7,76.9,177.8,76.7,177.8z"/>
				<path class="st39" d="M82.3,177.8c-0.7,0-1.4-0.1-2-0.3s-1.1-0.5-1.5-0.9c-0.2-0.2-0.2-0.4-0.2-0.6c0-0.2,0.1-0.4,0.3-0.5
					c0.2-0.2,0.4-0.2,0.6-0.2c0.2,0,0.4,0.1,0.5,0.3c0.2,0.2,0.5,0.4,0.9,0.6c0.4,0.2,0.8,0.3,1.3,0.3c0.6,0,1.1-0.1,1.4-0.3
					c0.3-0.2,0.5-0.5,0.5-0.8c0-0.3-0.1-0.6-0.4-0.8c-0.3-0.2-0.9-0.4-1.7-0.6c-1.1-0.2-1.8-0.5-2.3-0.9s-0.7-0.9-0.7-1.5
					c0-0.5,0.2-1,0.5-1.3c0.3-0.4,0.7-0.6,1.2-0.8c0.5-0.2,1-0.3,1.5-0.3c0.7,0,1.3,0.1,1.8,0.3c0.5,0.2,1,0.5,1.3,0.9
					c0.1,0.2,0.2,0.3,0.2,0.5c0,0.2-0.1,0.3-0.3,0.5c-0.2,0.1-0.4,0.2-0.6,0.1c-0.2,0-0.4-0.1-0.6-0.3c-0.3-0.3-0.5-0.4-0.8-0.5
					c-0.3-0.1-0.7-0.1-1.1-0.1c-0.5,0-0.9,0.1-1.2,0.2s-0.5,0.4-0.5,0.7c0,0.2,0,0.4,0.1,0.5c0.1,0.2,0.3,0.3,0.6,0.4
					c0.3,0.1,0.7,0.2,1.3,0.4c0.8,0.2,1.4,0.4,1.9,0.6s0.8,0.5,1,0.8c0.2,0.3,0.3,0.7,0.3,1.1c0,0.5-0.1,0.9-0.4,1.3
					c-0.3,0.4-0.6,0.7-1.1,0.9C83.7,177.7,83.1,177.8,82.3,177.8z"/>
			</g>
		</g>
	</g>
	<g>
		<g>
			<circle class="st39" cx="87.8" cy="170.9" r="1.6"/>
			<rect x="87.8" y="169.3" class="st39" width="1.6" height="3.1"/>
		</g>
		<g>
			<circle class="st39" cx="90.9" cy="167.8" r="1.6"/>
			
				<rect x="90.1" y="167" transform="matrix(-1.836970e-16 1 -1 -1.836970e-16 259.4197 77.6688)" class="st39" width="1.6" height="3.1"/>
		</g>
		<g>
			<circle class="st39" cx="90.9" cy="174" r="1.6"/>
			
				<rect x="90.1" y="171.7" transform="matrix(6.123234e-17 -1 1 6.123234e-17 -82.3462 264.0971)" class="st39" width="1.6" height="3.1"/>
		</g>
		<g>
			<circle class="st39" cx="94" cy="170.9" r="1.6"/>
			
				<rect x="92.4" y="169.3" transform="matrix(-1 -1.224647e-16 1.224647e-16 -1 186.4386 341.7557)" class="st39" width="1.6" height="3.1"/>
		</g>
	</g>
	<rect x="83.8" y="240.8" class="st0" width="6.1" height="6.1"/>
	<path class="st1" d="M86.8,246c0.9-0.5,1.9-1.6,1.9-1.6s0.7-0.9,0.6-1.8c-0.2-1.1-1.1-1-1.1-1h0c-0.9,0-1.3,0.8-1.3,0.8l0,0
		c0,0-0.4-0.8-1.3-0.8h0c0,0-0.9-0.1-1.1,1c-0.2,0.9,0.6,1.8,0.6,1.8S85.9,245.5,86.8,246L86.8,246z"/>
	<path class="st52" d="M50.6,277.1v-2.6c0-1.6-1.3-2.9-2.9-2.9c-1.6,0-2.9,1.3-2.9,2.5v2.6v0.2h-2.6c-1.6,0-2.9,1.3-2.9,2.9
		c0,1.6,1.3,2.9,2.9,2.9h2.6v0.5v1.9c0,1.6,1.3,2.9,2.9,2.9c1.6,0,2.9-1.3,2.9-2.9v-1.8v-0.6h2.6c1.6,0,2.9-1.3,2.9-2.9
		c0-1.6-1.3-2.9-2.9-2.9h-0.7"/>
	<g>
		<path class="st52" d="M91.2,277.1v-2.6c0-1.6-1.3-2.9-2.9-2.9c-1.6,0-2.9,1.3-2.9,2.5v2.6v0.2h-2.6c-1.6,0-2.9,1.3-2.9,2.9
			c0,1.6,1.3,2.9,2.9,2.9h2.6v0.5v1.9c0,1.6,1.3,2.9,2.9,2.9c1.6,0,2.9-1.3,2.9-2.9v-1.8v-0.6h2.6c1.6,0,2.9-1.3,2.9-2.9
			c0-1.6-1.3-2.9-2.9-2.9h-0.7"/>
		<g>
			<path class="st53" d="M107,290.2c0,1.9-1.5,3.4-3.4,3.4H73c-1.9,0-3.4-1.5-3.4-3.4v-20.5c0-1.9,1.5-3.4,3.4-3.4h30.6
				c1.9,0,3.4,1.5,3.4,3.4V290.2z"/>
		</g>
		<g>
			<path class="st54" d="M69.7,268.8c0,0,0.1-0.6,0.3-1.3s0.5-2.1,0.9-3l0.5-1.6c0.3-1,1.4-1.8,2.5-1.8h10.5c1,0,2.1,0.8,2.5,1.8
				l1.2,3.3"/>
		</g>
	</g>
	<rect x="33.7" y="326.8" width="14" height="14"/>
	<g>
		<rect x="34.8" y="328.1" class="st0" width="2.7" height="2.6"/>
		<rect x="44" y="328.1" class="st0" width="2.7" height="2.6"/>
		<rect x="34.8" y="336.9" class="st0" width="2.7" height="2.6"/>
		<rect x="44" y="336.9" class="st0" width="2.7" height="2.6"/>
		<g>
			<rect x="34.8" y="331.4" class="st0" width="5.3" height="2"/>
			
				<rect x="36.5" y="329.7" transform="matrix(-1.836970e-16 1 -1 -1.836970e-16 369.8668 291.5788)" class="st0" width="5.3" height="2"/>
		</g>
		<g>
			
				<rect x="41.3" y="331.4" transform="matrix(-1 -4.480828e-11 4.480828e-11 -1 87.9259 664.8054)" class="st0" width="5.3" height="2"/>
			
				<rect x="39.6" y="329.7" transform="matrix(-4.463825e-11 1 -1 -4.463825e-11 373.0131 288.4325)" class="st0" width="5.3" height="2"/>
		</g>
		<g>
			<rect x="34.8" y="334.1" class="st0" width="5.3" height="2"/>
			
				<rect x="36.5" y="335.8" transform="matrix(6.123234e-17 -1 1 6.123234e-17 -297.6361 375.9241)" class="st0" width="5.3" height="2"/>
		</g>
		<g>
			
				<rect x="41.3" y="334.1" transform="matrix(-1 4.531918e-11 -4.531918e-11 -1 87.9259 670.2004)" class="st0" width="5.3" height="2"/>
			
				<rect x="39.6" y="335.8" transform="matrix(-4.463801e-11 -1 1 -4.463801e-11 -294.4898 379.0704)" class="st0" width="5.3" height="2"/>
		</g>
	</g>
</g>
</svg>
