<?xml version="1.0" encoding="utf-8"?>
<!-- Generator: Adobe Illustrator 23.0.4, SVG Export Plug-In . SVG Version: 6.00 Build 0)  -->
<svg version="1.1" id="Layer_1" xmlns="http://www.w3.org/2000/svg" xmlns:xlink="http://www.w3.org/1999/xlink" x="0px" y="0px"
	 viewBox="0 0 147.4 53.9" style="enable-background:new 0 0 147.4 53.9;" xml:space="preserve">
<style type="text/css">
	.st0{fill:#4A4A4A;stroke:#4A4A4A;stroke-width:2.55;}
	.st1{fill:#4A4A4A;stroke:#4A4A4A;stroke-width:1.78;}
</style>
<title>mvm-logo</title>
<path class="st0" d="M73.9,32.1L59.4,2.2h1.4L74,29.3l13.2-27h1.2L73.9,32.1z"/>
<path class="st1" d="M26.8,2.5l23.9,49.1h-2.3L26.6,7.2L5,51.7H3L26.8,2.5z"/>
<path class="st1" d="M50.7,2.5l23.9,49.1h-2.3L50.5,7.2L28.9,51.7h-2.1L50.7,2.5z"/>
<path class="st1" d="M96.9,2.8l23.9,49.1h-2.3L96.7,7.4L75.1,51.9H73L96.9,2.8z"/>
<path class="st1" d="M120.8,2.8l23.9,49.1h-2.3L120.6,7.4L99,51.9h-2L120.8,2.8z"/>
</svg>
